<!-- Generated by IcoMoon.io -->
<svg version="1.1" xmlns="http://www.w3.org/2000/svg" width="32" height="32" viewBox="0 0 32 32">
<title>Diamond</title>
<path fill="#5b554d" d="M15.85 29.1v0c-0.15 0-0.25-0.050-0.35-0.15l-14.9-17.2c-0.1-0.15-0.15-0.35-0.050-0.5 3.4-5.75 3.65-6 3.95-6l11.25-2.35c0.050 0 0.1 0 0.2 0l11.3 2.35c0.1 0 0.2 0.1 0.25 0.2l3.9 5.6c0.1 0.15 0.1 0.4-0.050 0.55l-15.15 17.35c-0.1 0.050-0.2 0.15-0.35 0.15zM1.5 11.45l14.35 16.55 14.65-16.7-3.6-5.2-11-2.3-11.15 2.3c-0.4 0.55-1.9 3-3.25 5.35z"></path>
<path fill="#5b554d" d="M15.85 29.1c-0.1 0-0.25-0.050-0.35-0.15l-14.9-17.2c-0.1-0.15-0.15-0.35-0.050-0.5 3.55-6.050 3.65-6 4-6 0.1 0 0.2 0.050 0.3 0.15 0.5 0.4 1.65 1.65 5.25 5.75 0.050 0.050 0.050 0.1 0.1 0.15l6.050 17.2c0.050 0.2 0 0.4-0.2 0.55-0.050 0-0.1 0.050-0.2 0.050zM1.5 11.45l13.15 15.15-5.25-14.9c-1.55-1.8-4-4.5-4.8-5.35-0.55 0.8-1.9 3-3.1 5.1z"></path>
<path fill="#5b554d" d="M16.2 28.7c-0.1 0-0.15 0-0.2-0.050-0.2-0.1-0.25-0.35-0.2-0.55l5.8-16.7c0-0.050 0.050-0.1 0.1-0.15l5.2-5.85c0.1-0.1 0.2-0.15 0.35-0.15s0.25 0.1 0.35 0.2l3.9 5.6c0.1 0.15 0.1 0.4-0.050 0.55l-14.95 16.95c-0.050 0.1-0.2 0.15-0.3 0.15zM22.4 11.8l-5.050 14.45 13.15-14.95-3.35-4.85-4.75 5.35z"></path>
<path fill="#5b554d" d="M4.45 6.2c-0.1 0-0.2-0.050-0.25-0.1-0.1-0.1-0.2-0.2-0.2-0.35 0-0.1 0.050-0.2 0.1-0.25 0-0.050 0.050-0.1 0.1-0.1 0.2-0.15 0.45-0.15 0.6 0.050 0.050 0.1 0.1 0.2 0.1 0.3s-0.050 0.25-0.15 0.3c0 0.1-0.15 0.15-0.3 0.15z"></path>
<path fill="#5b554d" d="M9.8 11.9c-0.15 0-0.25-0.050-0.35-0.15-1.75-2-4.65-5.25-5.1-5.65-0.050-0.050-0.1-0.050-0.15-0.15-0.1-0.15-0.1-0.3-0.050-0.45s0.2-0.2 0.35-0.25v0l11-2.35c0.2-0.050 0.35 0.050 0.45 0.2s0.1 0.35 0 0.5l-5.8 8.15c-0.1 0.1-0.2 0.15-0.35 0.15v0zM5.45 5.95c0.7 0.7 1.95 2.1 4.3 4.8l4.8-6.75-9.1 1.95z"></path>
<path fill="#5b554d" d="M4.5 6.15c-0.050 0-0.050 0-0.1 0-0.1 0-0.25-0.1-0.3-0.2s-0.1-0.15-0.1-0.25c0-0.15 0.050-0.25 0.2-0.35 0.1-0.1 0.25-0.1 0.4-0.050s0.25 0.15 0.3 0.25c0 0.050 0.050 0.1 0.050 0.2 0 0.15-0.1 0.35-0.25 0.4-0.050 0-0.1 0-0.2 0z"></path>
<path fill="#5b554d" d="M4.45 6.25c-0.1 0-0.15 0-0.2-0.050-0.2-0.1-0.25-0.25-0.25-0.4 0-0.050 0-0.15 0.050-0.2l0.050-0.050c0.15-0.2 0.4-0.25 0.6-0.15 0.15 0.1 0.2 0.25 0.2 0.35s0 0.15-0.050 0.25c-0.1 0.15-0.25 0.25-0.4 0.25z"></path>
<path fill="#5b554d" d="M4.1 6.85c-0.050 0-0.15 0-0.2-0.050-0.15-0.1-0.25-0.25-0.25-0.4 0-0.050 0-0.15 0.050-0.2l0.050-0.15c0.1-0.2 0.4-0.3 0.6-0.2 0.15 0.1 0.25 0.25 0.25 0.4 0 0.050 0 0.15-0.050 0.2l-0.050 0.15c-0.050 0.15-0.2 0.25-0.4 0.25z"></path>
<path fill="#5b554d" d="M4.35 6.35c-0.050 0-0.15 0-0.2-0.050-0.15-0.1-0.2-0.25-0.25-0.4 0-0.050 0-0.15 0.050-0.2l0.4 0.2-0.35-0.25 0.4 0.15 0.35 0.25c-0.1 0.25-0.25 0.3-0.4 0.3z"></path>
<path fill="#5b554d" d="M4 7.050c-0.050 0-0.15 0-0.2-0.050-0.15-0.1-0.25-0.25-0.25-0.4 0-0.050 0-0.15 0.050-0.2l0.1-0.15c0.1-0.2 0.4-0.3 0.6-0.2 0.15 0.1 0.25 0.25 0.25 0.4 0 0.050 0 0.15-0.050 0.2l-0.050 0.15c-0.1 0.15-0.25 0.25-0.45 0.25z"></path>
<path fill="#5b554d" d="M4.2 6.65c-0.050 0-0.15 0-0.2-0.050-0.15-0.1-0.25-0.25-0.25-0.4 0-0.050 0-0.15 0.050-0.2l0.050-0.1c0.1-0.2 0.4-0.35 0.6-0.2 0.15 0.1 0.25 0.25 0.25 0.4 0 0.050 0 0.1-0.050 0.2l-0.1 0.1c0 0.15-0.15 0.25-0.35 0.25z"></path>
<path fill="#5b554d" d="M4.3 6.45c-0.050 0-0.15 0-0.2-0.050-0.15-0.1-0.25-0.25-0.25-0.4 0-0.050 0-0.15 0.050-0.2v-0.050c0.1-0.2 0.4-0.35 0.6-0.2 0.15 0.1 0.25 0.25 0.25 0.4 0 0.050 0 0.15-0.050 0.2l-0.050 0.050c0 0.2-0.2 0.25-0.35 0.25z"></path>
<path fill="#5b554d" d="M22.1 11.9c-0.050 0-0.050 0 0 0-0.15 0-0.3-0.1-0.35-0.2l-5.8-8.1c-0.1-0.15-0.1-0.35 0-0.5s0.3-0.25 0.45-0.2l10.85 2.35c0.15 0.050 0.3 0.15 0.35 0.3s0 0.3-0.1 0.45l-5.1 5.75c-0.1 0.1-0.2 0.15-0.3 0.15zM17.35 4.050l4.8 6.7 4.25-4.8-9.050-1.9z"></path>
<path fill="#5b554d" d="M30.9 11.95h-29.9c-0.15 0-0.25-0.050-0.35-0.15-0.1-0.15-0.15-0.4-0.1-0.55 3.4-5.8 3.65-6 3.95-6l11.5-2.35c0.050 0 0.1 0 0.2 0l11.1 2.35c0.1 0 0.2 0.1 0.25 0.2l3.9 5.6c0.1 0.15 0.1 0.4-0.050 0.55l-0.15 0.2c-0.1 0.1-0.25 0.15-0.35 0.15zM1.7 11.1h28.65l-3.45-4.95-10.8-2.35-11.35 2.3c-0.4 0.5-1.75 2.8-3.050 5z"></path>
</svg>
