<!-- Generated by IcoMoon.io -->
<svg version="1.1" xmlns="http://www.w3.org/2000/svg" width="32" height="32" viewBox="0 0 32 32">
<title>Eye</title>
<path fill="#5b554d" d="M16 26.65c-6.7 0-10.5-4.55-14.95-9.85l-0.45-0.55c-0.15-0.15-0.15-0.35 0-0.55 5.35-6.4 9.75-10.35 15.4-10.35 6.75 0 11.8 5.6 15.4 10.5 0.1 0.15 0.1 0.35 0 0.5l-0.35 0.4c-3.3 3.95-8.35 9.9-15.050 9.9zM1.45 16l0.25 0.3c4.3 5.1 8 9.55 14.3 9.55 6.35 0 11-5.55 14.45-9.6l0.1-0.15c-3.5-4.7-8.3-9.95-14.55-9.95-5.25 0-9.35 3.6-14.55 9.85z"></path>
<path fill="#5b554d" d="M16 21.35c-2.95 0-5.35-2.4-5.35-5.35s2.4-5.35 5.35-5.35c2.95 0 5.35 2.4 5.35 5.35s-2.4 5.35-5.35 5.35zM16 11.45c-2.5 0-4.55 2.050-4.55 4.55s2.050 4.55 4.55 4.55c2.5 0 4.55-2.050 4.55-4.55-0.050-2.5-2.050-4.55-4.55-4.55z"></path>
<path fill="#5b554d" d="M18.25 16c0 1.243-1.007 2.25-2.25 2.25s-2.25-1.007-2.25-2.25c0-1.243 1.007-2.25 2.25-2.25s2.25 1.007 2.25 2.25z"></path>
</svg>
