<!-- Generated by IcoMoon.io -->
<svg version="1.1" xmlns="http://www.w3.org/2000/svg" width="32" height="32" viewBox="0 0 32 32">
<title>facebook</title>
<path d="M18.272 31.424h-4.256c-1.024 0-1.888-0.864-1.888-1.888v-11.488h-3.52c-1.024 0-1.888-0.864-1.888-1.888v-3.296c0-1.024 0.864-1.888 1.888-1.888h3.488v-2.976c0-4.416 2.912-7.392 7.264-7.392h3.232c1.024 0 1.888 0.864 1.888 1.888v3.904c0 1.024-0.864 1.888-1.888 1.888h-2.24c-0.064 0-0.128 0-0.16 0 0 0.064 0 0.096 0 0.128v2.56h3.2c0.576 0 1.12 0.256 1.472 0.704s0.512 1.024 0.384 1.568v0l-0.672 3.264c-0.16 0.864-0.96 1.504-1.856 1.504h-2.56v11.52c0 0.992-0.864 1.888-1.888 1.888zM8.608 12.736c-0.064 0-0.128 0.064-0.128 0.128v3.328c0 0.064 0.064 0.128 0.128 0.128h5.28v13.216c0 0.064 0.064 0.128 0.128 0.128h4.256c0.064 0 0.128-0.064 0.128-0.128v-13.28h4.32c0.064 0 0.128-0.032 0.128-0.064l0.672-3.296c0-0.064 0-0.096-0.032-0.128s-0.064-0.032-0.128-0.032h-4.928v-4.32c0-1.152 0.32-1.888 1.92-1.888h2.24c0.064 0 0.128-0.064 0.128-0.128v-3.936c0-0.064-0.064-0.128-0.128-0.128h-3.232c-3.328 0-5.504 2.208-5.504 5.632v4.736h-5.248z"></path>
</svg>
