<!-- Generated by IcoMoon.io -->
<svg version="1.1" xmlns="http://www.w3.org/2000/svg" width="32" height="32" viewBox="0 0 32 32">
<title>facebook-filled</title>
<path d="M19.584 7.52h3.712c0.704 0 1.28-0.576 1.28-1.28v-3.168c0-0.704-0.576-1.28-1.28-1.28h-4.992c-3.168 0-5.696 2.56-5.696 5.696v0 4.352c0 0.192-0.128 0.32-0.32 0.32h-3.584c-0.704 0-1.28 0.576-1.28 1.28v3.168c0 0.704 0.576 1.28 1.28 1.28h3.584c0.192 0 0.32 0.128 0.32 0.32v10.72c0 0.704 0.576 1.28 1.28 1.28h3.168c0.704 0 1.28-0.576 1.28-1.28v-10.72c0-0.192 0.128-0.32 0.32-0.32h4.672c0.704 0 1.28-0.576 1.28-1.28v-3.168c0-0.704-0.576-1.28-1.28-1.28h-4.704c-0.192 0-0.32-0.128-0.32-0.32v-3.040c0-0.704 0.576-1.28 1.28-1.28z"></path>
</svg>
