<!-- Generated by IcoMoon.io -->
<svg version="1.1" xmlns="http://www.w3.org/2000/svg" width="32" height="32" viewBox="0 0 32 32">
<title>github-original</title>
<path d="M16 1.184c-8.384 0-15.2 6.784-15.2 15.2 0 6.72 4.352 12.416 10.4 14.432 0.768 0.128 1.024-0.32 1.024-0.736 0-0.352 0-1.312-0.032-2.592-4.224 0.928-5.12-2.048-5.12-2.048-0.704-1.76-1.696-2.208-1.696-2.208-1.376-0.928 0.096-0.928 0.096-0.928 1.536 0.096 2.336 1.568 2.336 1.568 1.344 2.336 3.552 1.664 4.416 1.248 0.128-0.992 0.544-1.664 0.96-2.048-3.328-0.352-6.88-1.664-6.88-7.488 0-1.664 0.608-3.008 1.568-4.064-0.16-0.384-0.672-1.92 0.16-4.032 0 0 1.28-0.416 4.192 1.568 1.216-0.352 2.528-0.512 3.808-0.512s2.592 0.16 3.808 0.512c2.912-1.952 4.16-1.568 4.16-1.568 0.832 2.080 0.32 3.648 0.16 4.032 0.96 1.056 1.568 2.432 1.568 4.064 0 5.824-3.552 7.136-6.944 7.488 0.544 0.48 1.024 1.408 1.024 2.816 0 2.048-0.032 3.68-0.032 4.16 0 0.416 0.288 0.864 1.056 0.736 6.048-2.016 10.4-7.712 10.4-14.432-0.032-8.384-6.848-15.168-15.232-15.168z"></path>
</svg>
