<!-- Generated by IcoMoon.io -->
<svg version="1.1" xmlns="http://www.w3.org/2000/svg" width="32" height="32" viewBox="0 0 32 32">
<title>Home</title>
<path fill="#5b554d" d="M23.15 30.45h-4.4c-0.2 0-0.4-0.15-0.4-0.4v-6.7h-4.7v6.7c0 0.2-0.15 0.4-0.4 0.4h-4.4c-1.7 0-3.1-1.4-3.1-3.1v-11.75c0-0.2 0.15-0.4 0.4-0.4 0.2 0 0.4 0.15 0.4 0.4v11.75c0 1.3 1.050 2.35 2.35 2.35h4.050v-6.75c0-0.2 0.15-0.4 0.4-0.4h5.5c0.2 0 0.4 0.15 0.4 0.4v6.7h4c1.3 0 2.35-1.050 2.35-2.35v-11.7c0-0.2 0.15-0.4 0.4-0.4 0.2 0 0.4 0.15 0.4 0.4v11.75c-0.15 1.7-1.55 3.1-3.25 3.1z"></path>
<path fill="#5b554d" d="M29.25 15.95c-0.050 0-0.1 0-0.2 0-0.050 0-0.15-0.050-0.2-0.050l-12.85-9.3-12.9 9.3c-0.050 0.050-0.1 0.050-0.2 0.050-0.65 0.050-1.25-0.2-1.6-0.7l-0.5-0.7c-0.25-0.35-0.4-0.85-0.3-1.3 0.050-0.45 0.3-0.85 0.7-1.15l13.45-9.65c0.55-0.4 1-0.75 1.1-0.8 0 0 0 0 0.050 0 0.15-0.1 0.35-0.1 0.45 0 0 0 0.050 0.050 0.050 0.050v0c0.050 0.050 0.35 0.25 0.75 0.55l3.9 2.85c0.6 0.45 5.6 4.050 6.2 4.45l3.65 2.6c0 0 0 0 0 0 0.8 0.55 0.95 1.65 0.4 2.45l-0.5 0.7c-0.35 0.4-0.9 0.65-1.45 0.65zM29.25 15.2c0.3 0 0.6-0.15 0.8-0.4l0.5-0.7c0.3-0.45 0.2-1.050-0.2-1.35l-3.65-2.6c-0.6-0.45-5.6-4.050-6.2-4.45l-3.9-2.85c-0.3-0.2-0.45-0.35-0.6-0.45-0.15 0.15-0.45 0.35-0.9 0.65l-13.4 9.7c-0.2 0.15-0.35 0.4-0.4 0.65s0 0.5 0.15 0.7l0.5 0.7c0.2 0.25 0.45 0.4 0.8 0.4l13-9.4c0.15-0.1 0.35-0.1 0.45 0v0l13.050 9.4zM16 6.1v0 0z"></path>
<path fill="#5b554d" d="M26.9 10.2c-0.1 0-0.15 0-0.25-0.050-0.7-0.5-1.25-1.6-1.25-2.45v-4.35c0-0.55-0.45-0.95-0.95-0.95h-1.3c-0.55 0-0.95 0.45-0.95 0.95v1.45c0 0.5-0.2 0.9-0.55 1.050s-0.75 0.1-1.2-0.2c-0.15-0.15-0.2-0.35-0.1-0.55 0.15-0.15 0.35-0.2 0.55-0.1 0.2 0.15 0.3 0.15 0.4 0.15 0.050-0.050 0.1-0.15 0.1-0.4v-1.4c0-0.95 0.8-1.75 1.75-1.75h1.3c0.95 0 1.75 0.8 1.75 1.75v4.3c0 0.6 0.45 1.45 0.95 1.85 0.15 0.15 0.2 0.35 0.1 0.55-0.1 0.1-0.2 0.15-0.35 0.15z"></path>
</svg>
