<!-- Generated by IcoMoon.io -->
<svg version="1.1" xmlns="http://www.w3.org/2000/svg" width="32" height="32" viewBox="0 0 32 32">
<title>html</title>
<path fill="#e44d26" d="M4.759 28.469l-2.501-28.054h27.484l-2.504 28.049-11.255 3.12z"></path>
<path fill="#f16529" d="M16 29.2l9.095-2.521 2.14-23.97h-11.234z"></path>
<path fill="#ebebeb" d="M16 13.114h-4.553l-0.315-3.524h4.867v-3.441h-8.628l0.082 0.923 0.845 9.482h7.7zM16 22.049l-0.015 0.004-3.832-1.035-0.245-2.744h-3.454l0.482 5.402 7.048 1.956 0.016-0.004z"></path>
<path fill="#fff" d="M15.988 13.114v3.441h4.237l-0.399 4.462-3.838 1.036v3.58l7.054-1.955 0.052-0.581 0.808-9.058 0.084-0.924h-0.927zM15.988 6.15v3.441h8.311l0.069-0.773 0.157-1.745 0.082-0.923z"></path>
</svg>
