<!-- Generated by IcoMoon.io -->
<svg version="1.1" xmlns="http://www.w3.org/2000/svg" width="32" height="32" viewBox="0 0 32 32">
<title>icon-35-angry-face-teeth</title>
<path fill="#929292" d="M19 20v1h-2v-1h2zM20 20v1h1.915c-0.206-0.583-0.763-1-1.421-1h-0.494zM19 23v-1h-2v1h2zM20 23v-1h1.915c-0.206 0.585-0.765 1-1.422 1h-0.494zM16 20v1h-2v-1h2zM16 23v-1h-2v1h2zM13 20v1h-1.915c0.206-0.585 0.765-1 1.422-1h0.494zM13 23v-1h-1.915c0.206 0.583 0.763 1 1.421 1h0.494zM16.5 29v0c-6.904 0-12.5-5.596-12.5-12.5s5.596-12.5 12.5-12.5c6.904 0 12.5 5.596 12.5 12.5s-5.596 12.5-12.5 12.5zM16.5 28c6.351 0 11.5-5.149 11.5-11.5s-5.149-11.5-11.5-11.5c-6.351 0-11.5 5.149-11.5 11.5s5.149 11.5 11.5 11.5v0zM12 15v0c-0.552 0-1-0.448-1-1s0.448-1 1-1c0.552 0 1 0.448 1 1s-0.448 1-1 1zM21 15v0c-0.552 0-1-0.448-1-1s0.448-1 1-1c0.552 0 1 0.448 1 1s-0.448 1-1 1zM12.507 19h7.987c1.387 0 2.507 1.119 2.507 2.5 0 1.39-1.122 2.5-2.507 2.5h-7.987c-1.387 0-2.507-1.119-2.507-2.5 0-1.39 1.122-2.5 2.507-2.5zM21.378 9.967l-3.316 2.237 0.559 0.829 3.316-2.237-0.559-0.829zM14.938 12.204l-3.316-2.237-0.559 0.829 3.316 2.237 0.559-0.829z"></path>
</svg>
