<!-- Generated by IcoMoon.io -->
<svg version="1.1" xmlns="http://www.w3.org/2000/svg" width="32" height="32" viewBox="0 0 32 32">
<title>iconfinder_Muslim_Mosque-13_2044984</title>
<path fill="none" stroke="#000" stroke-linejoin="round" stroke-linecap="round" stroke-miterlimit="10" stroke-width="0.5" d="M15.075 16.512c0.019-1.494-2.594-1.719-3.406-0.044-0.438 0.9 0.45 1.969 0.819 3.063 0.675 1.988 1.244 3.181 2.481 2.675 1.119-0.456 0.356-1.956 0.012-2.913-0.269-0.744 0.081-1.9 0.094-2.781z"></path>
<path d="M14.599 13.305c0.314 0.001 0.567 0.347 0.566 0.771s-0.258 0.768-0.572 0.766c-0.314-0.001-0.567-0.347-0.566-0.771s0.258-0.768 0.572-0.766z"></path>
<path d="M13.78 14.117c0.024 0.313-0.146 0.582-0.38 0.6s-0.443-0.221-0.468-0.534c-0.024-0.313 0.146-0.582 0.38-0.6s0.443 0.221 0.468 0.534z"></path>
<path d="M12.724 14.34c0.086 0.251 0.005 0.507-0.181 0.571s-0.407-0.088-0.493-0.339c-0.086-0.251-0.005-0.507 0.181-0.571s0.407 0.088 0.493 0.339z"></path>
<path d="M11.914 14.823c0.133 0.198 0.122 0.438-0.025 0.536s-0.372 0.017-0.505-0.181c-0.133-0.198-0.122-0.438 0.025-0.536s0.372-0.017 0.505 0.181z"></path>
<path d="M11.246 15.465c0.148 0.129 0.189 0.325 0.092 0.437s-0.297 0.098-0.445-0.032c-0.148-0.129-0.189-0.325-0.092-0.437s0.297-0.098 0.445 0.032z"></path>
<path fill="none" stroke="#000" stroke-linejoin="round" stroke-linecap="round" stroke-miterlimit="10" stroke-width="0.5" d="M16.95 12.894c-0.050-1.494 2.556-1.775 3.406-0.119 0.456 0.887-0.406 1.981-0.756 3.081-0.631 2-1.175 3.212-2.419 2.731-1.125-0.431-0.4-1.95-0.081-2.912 0.25-0.75-0.119-1.9-0.15-2.781z"></path>
<path d="M17.944 10.429c0.011 0.424-0.235 0.775-0.549 0.783s-0.578-0.329-0.589-0.754c-0.011-0.424 0.235-0.775 0.549-0.783s0.578 0.329 0.589 0.754z"></path>
<path d="M18.651 9.925c0.234 0.013 0.41 0.278 0.393 0.592s-0.222 0.557-0.456 0.544c-0.234-0.013-0.41-0.278-0.393-0.592s0.222-0.557 0.456-0.544z"></path>
<path d="M19.738 10.323c0.187 0.060 0.274 0.314 0.193 0.567s-0.298 0.41-0.486 0.35c-0.187-0.060-0.274-0.314-0.193-0.567s0.298-0.41 0.486-0.35z"></path>
<path d="M20.569 10.943c0.148 0.095 0.165 0.334 0.036 0.535s-0.352 0.287-0.501 0.192c-0.148-0.095-0.165-0.334-0.036-0.535s0.352-0.287 0.501-0.192z"></path>
<path d="M21.202 11.72c0.1 0.11 0.063 0.306-0.082 0.439s-0.344 0.151-0.444 0.042c-0.1-0.11-0.063-0.306 0.082-0.439s0.344-0.151 0.444-0.042z"></path>
</svg>
