<!-- Generated by IcoMoon.io -->
<svg version="1.1" xmlns="http://www.w3.org/2000/svg" width="32" height="32" viewBox="0 0 32 32">
<title>linkedin</title>
<path d="M7.68 12.16h-4.416c-0.832 0-1.536 0.672-1.536 1.536v14.944c0 0.832 0.672 1.536 1.536 1.536h4.416c0.832 0 1.536-0.672 1.536-1.536v-14.944c0-0.832-0.704-1.536-1.536-1.536zM7.456 28.416h-3.936v-14.496h3.936v14.496z"></path>
<path d="M25.504 12.224c-1.344-0.16-2.848 0.064-4.192 0.672-0.608 0.288-1.216 0.64-1.792 1.056v-0.288c0-0.832-0.672-1.536-1.536-1.536h-4.416c-0.832 0-1.536 0.672-1.536 1.536v14.944c0 0.832 0.672 1.536 1.536 1.536h4.416c0.832 0 1.536-0.672 1.536-1.536v-6.112c0-0.992 0.8-1.792 1.792-1.792s1.792 0.8 1.792 1.792v6.144c0 0.832 0.672 1.536 1.536 1.536h4.416c0.832 0 1.536-0.672 1.536-1.536v-10.752c-0.064-2.848-2.272-5.312-5.088-5.664zM28.768 28.416h-3.936v-5.952c0-1.952-1.6-3.552-3.552-3.552s-3.552 1.6-3.552 3.552v5.92h-3.904v-14.464h3.936v0.992c0 0.48 0.288 0.928 0.736 1.152s0.96 0.16 1.344-0.16c0.192-0.16 0.384-0.288 0.512-0.384 0.064-0.064 0.128-0.096 0.16-0.128 0.48-0.384 0.992-0.672 1.536-0.928 1.088-0.48 2.24-0.672 3.264-0.544 1.952 0.224 3.456 1.952 3.456 3.936v10.56z"></path>
<path d="M5.472 1.856c-2.208 0-4 1.792-4 4s1.792 4 4 4c2.208 0 4-1.792 4-4s-1.76-4-4-4zM5.472 8.096c-1.248 0-2.24-1.024-2.24-2.24s1.024-2.24 2.24-2.24c1.248 0 2.24 1.024 2.24 2.24s-0.992 2.24-2.24 2.24z"></path>
</svg>
