<!-- Generated by IcoMoon.io -->
<svg version="1.1" xmlns="http://www.w3.org/2000/svg" width="32" height="32" viewBox="0 0 32 32">
<title>Paper-plane</title>
<path fill="#5b554d" d="M14.55 25.75c0 0-0.050 0 0 0-0.15 0-0.2-0.050-0.3-0.15l-4.85-7.4-3.2 0.9c-0.1 0.050-0.2 0-0.3-0.050s-0.15-0.15-0.15-0.3l0.2-5.4-5.35-6.5c-0.1-0.1-0.1-0.25-0.050-0.35s0.15-0.2 0.3-0.2l30.3-0.050c0 0 0 0 0.050 0s0.1 0 0.15 0.050c0.050 0 0.050 0.050 0.1 0.050 0.050 0.050 0.050 0.1 0.050 0.15v0c0 0 0 0 0 0s0 0.050 0 0.050 0 0.1 0 0.15c0 0.050-0.050 0.050-0.050 0.1 0 0 0 0 0 0l-16.65 18.85c-0.1 0.050-0.15 0.1-0.25 0.1zM9.55 17.5c0.1 0 0.2 0.050 0.3 0.15l4.75 7.25 15.85-17.95h-28.9l5 6.1c0.050 0.050 0.1 0.15 0.1 0.25l-0.2 5.050 3-0.85c0.050 0 0.050 0 0.1 0z"></path>
<path fill="#5b554d" d="M6.3 13.6c-0.15 0-0.3-0.1-0.3-0.25-0.050-0.2 0.050-0.35 0.25-0.4l24.85-6.7c0.2-0.050 0.35 0.050 0.4 0.25s-0.050 0.35-0.25 0.4l-24.85 6.7c-0.050 0-0.050 0-0.1 0z"></path>
<path fill="#5b554d" d="M6.1 19.15c-0.1 0-0.15-0.050-0.2-0.1-0.15-0.1-0.15-0.35-0.050-0.45l2.6-3.050c0.050-0.050 0.1-0.050 0.15-0.1l22.5-9.2c0.15-0.050 0.35 0 0.45 0.2 0.050 0.15 0 0.35-0.2 0.45l-22.45 9.15-2.55 2.95c-0.050 0.1-0.15 0.15-0.25 0.15z"></path>
</svg>
