<!-- Generated by IcoMoon.io -->
<svg version="1.1" xmlns="http://www.w3.org/2000/svg" width="32" height="32" viewBox="0 0 32 32">
<title>Person</title>
<path fill="#5b554d" d="M24.75 31.5h-17.5c-0.6 0-1.2-0.25-1.5-0.7-0.35-0.45-0.45-1.050-0.3-1.65 0 0 0.050-0.25 0.15-0.65 0.55-2.4 2.050-7.85 3.050-9.3 1.9-2.7 5.1-2.6 5.2-2.6h3.25c0.15 0 4.4-0.1 6 2.75 1.2 1.55 2.85 7.3 3.35 9.45l0.050 0.35c0.15 0.6 0.050 1.2-0.3 1.65-0.25 0.45-0.8 0.7-1.45 0.7zM13.8 17.55c-0.35 0-2.9 0.050-4.4 2.2-0.8 1.15-2.25 5.95-2.95 9-0.1 0.4-0.15 0.6-0.15 0.6-0.1 0.35-0.050 0.65 0.1 0.9 0.15 0.2 0.45 0.35 0.8 0.35h17.5c0.35 0 0.6-0.1 0.75-0.35 0.15-0.2 0.2-0.5 0.1-0.8 0 0 0 0 0-0.050v-0.4c-0.55-2.45-2.2-7.85-3.2-9.1 0 0-0.050-0.050-0.050-0.050-1.3-2.35-5.15-2.3-5.15-2.3h-3.35c0.050 0 0.050 0 0 0zM15.95 15c-4 0-7.25-3.25-7.25-7.25s3.25-7.25 7.25-7.25c4 0 7.25 3.25 7.25 7.25 0.050 4-3.2 7.25-7.25 7.25zM15.95 1.45c-3.5 0-6.3 2.85-6.3 6.3 0 3.5 2.85 6.3 6.3 6.3 3.5 0 6.3-2.85 6.3-6.3 0.050-3.45-2.8-6.3-6.3-6.3z"></path>
</svg>
