<!-- Generated by IcoMoon.io -->
<svg version="1.1" xmlns="http://www.w3.org/2000/svg" width="32" height="32" viewBox="0 0 32 32">
<title>python</title>
<path d="M12.332 15.5h7.29c2.029 0 3.628-1.717 3.628-3.755v-6.949c0-1.978-1.658-3.464-3.639-3.794-1.253-0.209-2.549-0.304-3.797-0.298s-2.403 0.112-3.451 0.298c-3.089 0.545-3.613 1.688-3.613 3.794v2.704h7.25v1h-10.056c-2.121 0-3.978 1.277-4.559 3.703-0.67 2.78-0.7 4.48 0 7.383 0.519 2.16 1.758 3.665 3.879 3.665h2.487v-3.262c0-2.409 2.107-4.488 4.582-4.488zM11.873 5.723c-0.757 0-1.37-0.62-1.37-1.386 0-0.77 0.613-1.395 1.37-1.395 0.754 0 1.37 0.625 1.37 1.395-0 0.766-0.616 1.386-1.37 1.386zM30.57 12.203c-0.524-2.112-1.526-3.703-3.65-3.703h-2.671v3.245c0 2.513-2.198 4.505-4.628 4.505h-7.29c-1.997 0-3.582 1.831-3.582 3.831v6.95c0 1.977 1.686 3.141 3.615 3.709 2.311 0.679 4.498 0.802 7.263 0 1.837-0.532 3.622-1.603 3.622-3.709v-2.782h-7.25v-1h10.921c2.121 0 2.912-1.444 3.65-3.665 0.762-2.286 0.729-4.45 0-7.382zM20.081 26.104c0.757 0 1.37 0.62 1.37 1.387 0 0.769-0.613 1.395-1.37 1.395-0.754 0-1.369-0.625-1.369-1.395 0-0.767 0.616-1.387 1.369-1.387z"></path>
</svg>
