<!-- Generated by IcoMoon.io -->
<svg version="1.1" xmlns="http://www.w3.org/2000/svg" width="32" height="32" viewBox="0 0 32 32">
<title>twitter-filled</title>
<path d="M27.648 7.968l1.824-2.304c0.544-0.608 0.704-1.056 0.768-1.344-1.408 0.896-2.752 1.152-3.712 1.184h-0.384l-0.224-0.256c-1.152-1.024-2.592-1.6-4.16-1.6-3.36 0-6.080 2.752-6.080 6.080 0 0.256 0 0.48 0.032 0.704l0.16 0.992-1.024-0.032c-6.24-0.16-11.264-5.44-12.128-6.4-1.344 2.496-0.608 4.768 0.256 6.208l1.632 2.72-2.592-1.408c0.032 2.016 0.832 3.616 2.304 4.768l1.248 0.96-1.312 0.544c0.832 2.496 2.624 3.488 4.032 3.872l1.76 0.48-1.536 1.056c-2.688 1.888-6.112 1.76-7.52 1.632 3.072 2.112 6.656 2.56 9.216 2.56 1.888 0 3.264-0.256 3.616-0.32 13.568-3.2 14.176-15.296 14.144-17.728v-0.384l0.288-0.256c1.632-1.536 2.336-2.4 2.72-2.848-0.16 0.096-0.32 0.128-0.544 0.192l-2.784 0.928z"></path>
</svg>
