<!-- Generated by IcoMoon.io -->
<svg version="1.1" xmlns="http://www.w3.org/2000/svg" width="32" height="32" viewBox="0 0 32 32">
<title>twitter-original</title>
<path d="M10.368 28.352c11.488 0 17.76-9.504 17.76-17.76 0-0.256 0-0.544-0.032-0.8 1.216-0.896 2.272-1.984 3.104-3.232-1.12 0.512-2.336 0.832-3.584 0.992 1.28-0.768 2.272-1.984 2.752-3.456-1.216 0.704-2.528 1.248-3.968 1.504-1.152-1.216-2.752-1.984-4.544-1.984-3.456 0-6.24 2.784-6.24 6.24 0 0.48 0.064 0.96 0.16 1.408-5.184-0.224-9.792-2.688-12.864-6.464-0.544 0.928-0.832 1.984-0.832 3.136 0 2.176 1.088 4.064 2.784 5.184-1.024-0.032-1.984-0.32-2.816-0.768 0 0.032 0 0.064 0 0.064 0 3.008 2.144 5.536 4.992 6.112-0.512 0.128-1.088 0.224-1.632 0.224-0.416 0-0.8-0.032-1.184-0.128 0.8 2.464 3.104 4.288 5.824 4.32-2.144 1.664-4.832 2.656-7.744 2.656-0.512 0-0.992-0.032-1.472-0.096 2.72 1.824 6.016 2.848 9.536 2.848z"></path>
</svg>
