<!-- Generated by IcoMoon.io -->
<svg version="1.1" xmlns="http://www.w3.org/2000/svg" width="32" height="32" viewBox="0 0 32 32">
<title>z-django</title>
<path fill="#003a2b" d="M31.625 20.95c0 0.95-0.775 1.725-1.725 1.725h-27.8c-0.95 0-1.725-0.775-1.725-1.725v-9.9c0-0.95 0.775-1.725 1.725-1.725h27.8c0.95 0 1.725 0.775 1.725 1.725v9.9z"></path>
<path fill="#fff" d="M5.75 11.4h1.5v6.85c-0.75 0.15-1.325 0.2-1.925 0.2-1.8 0-2.75-0.825-2.75-2.375 0-1.5 1-2.5 2.55-2.5 0.25 0 0.425 0.025 0.65 0.075v-2.25h-0.025zM5.75 14.85c-0.175-0.050-0.325-0.075-0.5-0.075-0.75 0-1.175 0.45-1.175 1.275 0 0.8 0.425 1.225 1.175 1.225 0.175 0 0.3 0 0.5-0.050v-2.375zM9.6 13.7v3.425c0 1.175-0.075 1.75-0.35 2.25-0.25 0.475-0.55 0.775-1.2 1.1l-1.375-0.65c0.65-0.3 0.975-0.575 1.175-1s0.275-0.925 0.275-2.2v-2.925h1.475zM8.125 11.425h1.475v1.525h-1.475v-1.525zM10.5 14.025c0.65-0.3 1.275-0.45 1.95-0.45 0.75 0 1.25 0.2 1.475 0.6 0.125 0.225 0.175 0.5 0.175 1.125v3c-0.675 0.1-1.5 0.175-2.125 0.175-1.25 0-1.8-0.425-1.8-1.4 0-1.050 0.75-1.525 2.55-1.675v-0.325c0-0.275-0.125-0.375-0.5-0.375-0.55 0-1.175 0.15-1.75 0.45v-1.125h0.025zM12.8 16.375c-0.975 0.1-1.3 0.25-1.3 0.625 0 0.3 0.175 0.425 0.575 0.425 0.225 0 0.425-0.025 0.7-0.075v-0.975h0.025zM14.825 13.925c0.875-0.225 1.6-0.325 2.325-0.325 0.75 0 1.3 0.175 1.625 0.5 0.3 0.325 0.4 0.675 0.4 1.4v2.9h-1.475v-2.85c0-0.575-0.2-0.775-0.725-0.775-0.2 0-0.375 0.025-0.675 0.1v3.525h-1.475v-4.475zM19.75 19.2c0.525 0.275 1.050 0.4 1.575 0.4 0.975 0 1.375-0.4 1.375-1.325v-0.025c-0.3 0.15-0.575 0.2-0.95 0.2-1.3 0-2.125-0.85-2.125-2.2 0-1.675 1.225-2.625 3.375-2.625 0.625 0 1.225 0.075 1.925 0.2l-0.5 1.075c-0.4-0.075-0.025 0-0.325-0.050v0.15l0.025 0.625v0.8c0 0.2 0 0.4 0.025 0.6v0.4c0 1.275-0.1 1.875-0.425 2.35-0.45 0.725-1.25 1.075-2.4 1.075-0.575 0-1.075-0.075-1.6-0.3v-1.35h0.025zM22.7 14.8h-0.15c-0.3 0-0.625 0.075-0.85 0.2-0.35 0.2-0.55 0.575-0.55 1.075 0 0.75 0.375 1.175 1.025 1.175 0.2 0 0.375-0.050 0.55-0.1v-2.35h-0.025zM27.25 13.575c1.475 0 2.375 0.925 2.375 2.45 0 1.55-0.95 2.525-2.45 2.525-1.475 0-2.4-0.925-2.4-2.425 0.025-1.575 0.975-2.55 2.475-2.55zM27.225 17.325c0.575 0 0.9-0.475 0.9-1.3 0-0.8-0.325-1.3-0.9-1.3s-0.925 0.475-0.925 1.3c0.025 0.85 0.35 1.3 0.925 1.3z"></path>
</svg>
