<!-- Generated by IcoMoon.io -->
<svg version="1.1" xmlns="http://www.w3.org/2000/svg" width="32" height="32" viewBox="0 0 32 32">
<title>z-python</title>
<path fill="#000" d="M15.848 0.497c-1.056 0.005-2.063 0.095-2.95 0.252-2.613 0.462-3.087 1.427-3.087 3.209v2.353h6.173v0.784h-8.49c-1.794 0-3.365 1.078-3.857 3.13-0.567 2.351-0.592 3.819 0 6.274 0.439 1.828 1.487 3.13 3.281 3.13h2.123v-2.82c0-2.038 1.763-3.835 3.857-3.835h6.166c1.716 0 3.087-1.413 3.087-3.137v-5.878c0-1.673-1.412-2.93-3.087-3.209-1.061-0.176-2.161-0.257-3.216-0.252zM12.509 2.389c0.637 0 1.159 0.529 1.159 1.18 0 0.648-0.521 1.172-1.159 1.172-0.64 0-1.158-0.524-1.158-1.173-0-0.651 0.518-1.18 1.158-1.18z"></path>
<path fill="#000" d="M22.921 7.095v2.741c0 2.125-1.802 3.914-3.857 3.914h-6.166c-1.689 0-3.086 1.446-3.086 3.137v5.879c0 1.673 1.454 2.657 3.087 3.137 1.954 0.574 3.828 0.678 6.166 0 1.554-0.45 3.087-1.356 3.087-3.137v-2.353h-6.166v-0.785h9.253c1.794 0 2.463-1.251 3.087-3.13 0.645-1.934 0.617-3.793 0-6.274-0.444-1.786-1.29-3.13-3.087-3.13h-2.317zM19.452 21.982c0.64 0 1.159 0.524 1.159 1.173 0 0.651-0.518 1.18-1.159 1.18-0.637 0-1.158-0.529-1.158-1.18 0-0.649 0.521-1.173 1.158-1.173z"></path>
<path fill="#000" opacity="0.444" d="M24.327 29.899c0 0.886-3.704 1.604-8.273 1.604s-8.273-0.718-8.273-1.604c0-0.886 3.704-1.604 8.273-1.604s8.273 0.718 8.273 1.604z"></path>
</svg>
