<svg aria-hidden="true" style="position: absolute; width: 0; height: 0; overflow: hidden;" version="1.1" xmlns="http://www.w3.org/2000/svg" xmlns:xlink="http://www.w3.org/1999/xlink">
<defs>
<symbol id="icon-Diamond" viewBox="0 0 32 32">
<title>Diamond</title>
<path fill="#5b554d" style="fill: var(--color1, #5b554d)" d="M15.85 29.1v0c-0.15 0-0.25-0.050-0.35-0.15l-14.9-17.2c-0.1-0.15-0.15-0.35-0.050-0.5 3.4-5.75 3.65-6 3.95-6l11.25-2.35c0.050 0 0.1 0 0.2 0l11.3 2.35c0.1 0 0.2 0.1 0.25 0.2l3.9 5.6c0.1 0.15 0.1 0.4-0.050 0.55l-15.15 17.35c-0.1 0.050-0.2 0.15-0.35 0.15zM1.5 11.45l14.35 16.55 14.65-16.7-3.6-5.2-11-2.3-11.15 2.3c-0.4 0.55-1.9 3-3.25 5.35z"></path>
<path fill="#5b554d" style="fill: var(--color1, #5b554d)" d="M15.85 29.1c-0.1 0-0.25-0.050-0.35-0.15l-14.9-17.2c-0.1-0.15-0.15-0.35-0.050-0.5 3.55-6.050 3.65-6 4-6 0.1 0 0.2 0.050 0.3 0.15 0.5 0.4 1.65 1.65 5.25 5.75 0.050 0.050 0.050 0.1 0.1 0.15l6.050 17.2c0.050 0.2 0 0.4-0.2 0.55-0.050 0-0.1 0.050-0.2 0.050zM1.5 11.45l13.15 15.15-5.25-14.9c-1.55-1.8-4-4.5-4.8-5.35-0.55 0.8-1.9 3-3.1 5.1z"></path>
<path fill="#5b554d" style="fill: var(--color1, #5b554d)" d="M16.2 28.7c-0.1 0-0.15 0-0.2-0.050-0.2-0.1-0.25-0.35-0.2-0.55l5.8-16.7c0-0.050 0.050-0.1 0.1-0.15l5.2-5.85c0.1-0.1 0.2-0.15 0.35-0.15s0.25 0.1 0.35 0.2l3.9 5.6c0.1 0.15 0.1 0.4-0.050 0.55l-14.95 16.95c-0.050 0.1-0.2 0.15-0.3 0.15zM22.4 11.8l-5.050 14.45 13.15-14.95-3.35-4.85-4.75 5.35z"></path>
<path fill="#5b554d" style="fill: var(--color1, #5b554d)" d="M4.45 6.2c-0.1 0-0.2-0.050-0.25-0.1-0.1-0.1-0.2-0.2-0.2-0.35 0-0.1 0.050-0.2 0.1-0.25 0-0.050 0.050-0.1 0.1-0.1 0.2-0.15 0.45-0.15 0.6 0.050 0.050 0.1 0.1 0.2 0.1 0.3s-0.050 0.25-0.15 0.3c0 0.1-0.15 0.15-0.3 0.15z"></path>
<path fill="#5b554d" style="fill: var(--color1, #5b554d)" d="M9.8 11.9c-0.15 0-0.25-0.050-0.35-0.15-1.75-2-4.65-5.25-5.1-5.65-0.050-0.050-0.1-0.050-0.15-0.15-0.1-0.15-0.1-0.3-0.050-0.45s0.2-0.2 0.35-0.25v0l11-2.35c0.2-0.050 0.35 0.050 0.45 0.2s0.1 0.35 0 0.5l-5.8 8.15c-0.1 0.1-0.2 0.15-0.35 0.15v0zM5.45 5.95c0.7 0.7 1.95 2.1 4.3 4.8l4.8-6.75-9.1 1.95z"></path>
<path fill="#5b554d" style="fill: var(--color1, #5b554d)" d="M4.5 6.15c-0.050 0-0.050 0-0.1 0-0.1 0-0.25-0.1-0.3-0.2s-0.1-0.15-0.1-0.25c0-0.15 0.050-0.25 0.2-0.35 0.1-0.1 0.25-0.1 0.4-0.050s0.25 0.15 0.3 0.25c0 0.050 0.050 0.1 0.050 0.2 0 0.15-0.1 0.35-0.25 0.4-0.050 0-0.1 0-0.2 0z"></path>
<path fill="#5b554d" style="fill: var(--color1, #5b554d)" d="M4.45 6.25c-0.1 0-0.15 0-0.2-0.050-0.2-0.1-0.25-0.25-0.25-0.4 0-0.050 0-0.15 0.050-0.2l0.050-0.050c0.15-0.2 0.4-0.25 0.6-0.15 0.15 0.1 0.2 0.25 0.2 0.35s0 0.15-0.050 0.25c-0.1 0.15-0.25 0.25-0.4 0.25z"></path>
<path fill="#5b554d" style="fill: var(--color1, #5b554d)" d="M4.1 6.85c-0.050 0-0.15 0-0.2-0.050-0.15-0.1-0.25-0.25-0.25-0.4 0-0.050 0-0.15 0.050-0.2l0.050-0.15c0.1-0.2 0.4-0.3 0.6-0.2 0.15 0.1 0.25 0.25 0.25 0.4 0 0.050 0 0.15-0.050 0.2l-0.050 0.15c-0.050 0.15-0.2 0.25-0.4 0.25z"></path>
<path fill="#5b554d" style="fill: var(--color1, #5b554d)" d="M4.35 6.35c-0.050 0-0.15 0-0.2-0.050-0.15-0.1-0.2-0.25-0.25-0.4 0-0.050 0-0.15 0.050-0.2l0.4 0.2-0.35-0.25 0.4 0.15 0.35 0.25c-0.1 0.25-0.25 0.3-0.4 0.3z"></path>
<path fill="#5b554d" style="fill: var(--color1, #5b554d)" d="M4 7.050c-0.050 0-0.15 0-0.2-0.050-0.15-0.1-0.25-0.25-0.25-0.4 0-0.050 0-0.15 0.050-0.2l0.1-0.15c0.1-0.2 0.4-0.3 0.6-0.2 0.15 0.1 0.25 0.25 0.25 0.4 0 0.050 0 0.15-0.050 0.2l-0.050 0.15c-0.1 0.15-0.25 0.25-0.45 0.25z"></path>
<path fill="#5b554d" style="fill: var(--color1, #5b554d)" d="M4.2 6.65c-0.050 0-0.15 0-0.2-0.050-0.15-0.1-0.25-0.25-0.25-0.4 0-0.050 0-0.15 0.050-0.2l0.050-0.1c0.1-0.2 0.4-0.35 0.6-0.2 0.15 0.1 0.25 0.25 0.25 0.4 0 0.050 0 0.1-0.050 0.2l-0.1 0.1c0 0.15-0.15 0.25-0.35 0.25z"></path>
<path fill="#5b554d" style="fill: var(--color1, #5b554d)" d="M4.3 6.45c-0.050 0-0.15 0-0.2-0.050-0.15-0.1-0.25-0.25-0.25-0.4 0-0.050 0-0.15 0.050-0.2v-0.050c0.1-0.2 0.4-0.35 0.6-0.2 0.15 0.1 0.25 0.25 0.25 0.4 0 0.050 0 0.15-0.050 0.2l-0.050 0.050c0 0.2-0.2 0.25-0.35 0.25z"></path>
<path fill="#5b554d" style="fill: var(--color1, #5b554d)" d="M22.1 11.9c-0.050 0-0.050 0 0 0-0.15 0-0.3-0.1-0.35-0.2l-5.8-8.1c-0.1-0.15-0.1-0.35 0-0.5s0.3-0.25 0.45-0.2l10.85 2.35c0.15 0.050 0.3 0.15 0.35 0.3s0 0.3-0.1 0.45l-5.1 5.75c-0.1 0.1-0.2 0.15-0.3 0.15zM17.35 4.050l4.8 6.7 4.25-4.8-9.050-1.9z"></path>
<path fill="#5b554d" style="fill: var(--color1, #5b554d)" d="M30.9 11.95h-29.9c-0.15 0-0.25-0.050-0.35-0.15-0.1-0.15-0.15-0.4-0.1-0.55 3.4-5.8 3.65-6 3.95-6l11.5-2.35c0.050 0 0.1 0 0.2 0l11.1 2.35c0.1 0 0.2 0.1 0.25 0.2l3.9 5.6c0.1 0.15 0.1 0.4-0.050 0.55l-0.15 0.2c-0.1 0.1-0.25 0.15-0.35 0.15zM1.7 11.1h28.65l-3.45-4.95-10.8-2.35-11.35 2.3c-0.4 0.5-1.75 2.8-3.050 5z"></path>
</symbol>
<symbol id="icon-Eye" viewBox="0 0 32 32">
<title>Eye</title>
<path fill="#5b554d" style="fill: var(--color1, #5b554d)" d="M16 26.65c-6.7 0-10.5-4.55-14.95-9.85l-0.45-0.55c-0.15-0.15-0.15-0.35 0-0.55 5.35-6.4 9.75-10.35 15.4-10.35 6.75 0 11.8 5.6 15.4 10.5 0.1 0.15 0.1 0.35 0 0.5l-0.35 0.4c-3.3 3.95-8.35 9.9-15.050 9.9zM1.45 16l0.25 0.3c4.3 5.1 8 9.55 14.3 9.55 6.35 0 11-5.55 14.45-9.6l0.1-0.15c-3.5-4.7-8.3-9.95-14.55-9.95-5.25 0-9.35 3.6-14.55 9.85z"></path>
<path fill="#5b554d" style="fill: var(--color1, #5b554d)" d="M16 21.35c-2.95 0-5.35-2.4-5.35-5.35s2.4-5.35 5.35-5.35c2.95 0 5.35 2.4 5.35 5.35s-2.4 5.35-5.35 5.35zM16 11.45c-2.5 0-4.55 2.050-4.55 4.55s2.050 4.55 4.55 4.55c2.5 0 4.55-2.050 4.55-4.55-0.050-2.5-2.050-4.55-4.55-4.55z"></path>
<path fill="#5b554d" style="fill: var(--color1, #5b554d)" d="M18.25 16c0 1.243-1.007 2.25-2.25 2.25s-2.25-1.007-2.25-2.25c0-1.243 1.007-2.25 2.25-2.25s2.25 1.007 2.25 2.25z"></path>
</symbol>
<symbol id="icon-Home" viewBox="0 0 32 32">
<title>Home</title>
<path fill="#5b554d" style="fill: var(--color1, #5b554d)" d="M23.15 30.45h-4.4c-0.2 0-0.4-0.15-0.4-0.4v-6.7h-4.7v6.7c0 0.2-0.15 0.4-0.4 0.4h-4.4c-1.7 0-3.1-1.4-3.1-3.1v-11.75c0-0.2 0.15-0.4 0.4-0.4 0.2 0 0.4 0.15 0.4 0.4v11.75c0 1.3 1.050 2.35 2.35 2.35h4.050v-6.75c0-0.2 0.15-0.4 0.4-0.4h5.5c0.2 0 0.4 0.15 0.4 0.4v6.7h4c1.3 0 2.35-1.050 2.35-2.35v-11.7c0-0.2 0.15-0.4 0.4-0.4 0.2 0 0.4 0.15 0.4 0.4v11.75c-0.15 1.7-1.55 3.1-3.25 3.1z"></path>
<path fill="#5b554d" style="fill: var(--color1, #5b554d)" d="M29.25 15.95c-0.050 0-0.1 0-0.2 0-0.050 0-0.15-0.050-0.2-0.050l-12.85-9.3-12.9 9.3c-0.050 0.050-0.1 0.050-0.2 0.050-0.65 0.050-1.25-0.2-1.6-0.7l-0.5-0.7c-0.25-0.35-0.4-0.85-0.3-1.3 0.050-0.45 0.3-0.85 0.7-1.15l13.45-9.65c0.55-0.4 1-0.75 1.1-0.8 0 0 0 0 0.050 0 0.15-0.1 0.35-0.1 0.45 0 0 0 0.050 0.050 0.050 0.050v0c0.050 0.050 0.35 0.25 0.75 0.55l3.9 2.85c0.6 0.45 5.6 4.050 6.2 4.45l3.65 2.6c0 0 0 0 0 0 0.8 0.55 0.95 1.65 0.4 2.45l-0.5 0.7c-0.35 0.4-0.9 0.65-1.45 0.65zM29.25 15.2c0.3 0 0.6-0.15 0.8-0.4l0.5-0.7c0.3-0.45 0.2-1.050-0.2-1.35l-3.65-2.6c-0.6-0.45-5.6-4.050-6.2-4.45l-3.9-2.85c-0.3-0.2-0.45-0.35-0.6-0.45-0.15 0.15-0.45 0.35-0.9 0.65l-13.4 9.7c-0.2 0.15-0.35 0.4-0.4 0.65s0 0.5 0.15 0.7l0.5 0.7c0.2 0.25 0.45 0.4 0.8 0.4l13-9.4c0.15-0.1 0.35-0.1 0.45 0v0l13.050 9.4zM16 6.1v0 0z"></path>
<path fill="#5b554d" style="fill: var(--color1, #5b554d)" d="M26.9 10.2c-0.1 0-0.15 0-0.25-0.050-0.7-0.5-1.25-1.6-1.25-2.45v-4.35c0-0.55-0.45-0.95-0.95-0.95h-1.3c-0.55 0-0.95 0.45-0.95 0.95v1.45c0 0.5-0.2 0.9-0.55 1.050s-0.75 0.1-1.2-0.2c-0.15-0.15-0.2-0.35-0.1-0.55 0.15-0.15 0.35-0.2 0.55-0.1 0.2 0.15 0.3 0.15 0.4 0.15 0.050-0.050 0.1-0.15 0.1-0.4v-1.4c0-0.95 0.8-1.75 1.75-1.75h1.3c0.95 0 1.75 0.8 1.75 1.75v4.3c0 0.6 0.45 1.45 0.95 1.85 0.15 0.15 0.2 0.35 0.1 0.55-0.1 0.1-0.2 0.15-0.35 0.15z"></path>
</symbol>
<symbol id="icon-Paper-plane" viewBox="0 0 32 32">
<title>Paper-plane</title>
<path fill="#5b554d" style="fill: var(--color1, #5b554d)" d="M14.55 25.75c0 0-0.050 0 0 0-0.15 0-0.2-0.050-0.3-0.15l-4.85-7.4-3.2 0.9c-0.1 0.050-0.2 0-0.3-0.050s-0.15-0.15-0.15-0.3l0.2-5.4-5.35-6.5c-0.1-0.1-0.1-0.25-0.050-0.35s0.15-0.2 0.3-0.2l30.3-0.050c0 0 0 0 0.050 0s0.1 0 0.15 0.050c0.050 0 0.050 0.050 0.1 0.050 0.050 0.050 0.050 0.1 0.050 0.15v0c0 0 0 0 0 0s0 0.050 0 0.050 0 0.1 0 0.15c0 0.050-0.050 0.050-0.050 0.1 0 0 0 0 0 0l-16.65 18.85c-0.1 0.050-0.15 0.1-0.25 0.1zM9.55 17.5c0.1 0 0.2 0.050 0.3 0.15l4.75 7.25 15.85-17.95h-28.9l5 6.1c0.050 0.050 0.1 0.15 0.1 0.25l-0.2 5.050 3-0.85c0.050 0 0.050 0 0.1 0z"></path>
<path fill="#5b554d" style="fill: var(--color1, #5b554d)" d="M6.3 13.6c-0.15 0-0.3-0.1-0.3-0.25-0.050-0.2 0.050-0.35 0.25-0.4l24.85-6.7c0.2-0.050 0.35 0.050 0.4 0.25s-0.050 0.35-0.25 0.4l-24.85 6.7c-0.050 0-0.050 0-0.1 0z"></path>
<path fill="#5b554d" style="fill: var(--color1, #5b554d)" d="M6.1 19.15c-0.1 0-0.15-0.050-0.2-0.1-0.15-0.1-0.15-0.35-0.050-0.45l2.6-3.050c0.050-0.050 0.1-0.050 0.15-0.1l22.5-9.2c0.15-0.050 0.35 0 0.45 0.2 0.050 0.15 0 0.35-0.2 0.45l-22.45 9.15-2.55 2.95c-0.050 0.1-0.15 0.15-0.25 0.15z"></path>
</symbol>
<symbol id="icon-Person" viewBox="0 0 32 32">
<title>Person</title>
<path fill="#5b554d" style="fill: var(--color1, #5b554d)" d="M24.75 31.5h-17.5c-0.6 0-1.2-0.25-1.5-0.7-0.35-0.45-0.45-1.050-0.3-1.65 0 0 0.050-0.25 0.15-0.65 0.55-2.4 2.050-7.85 3.050-9.3 1.9-2.7 5.1-2.6 5.2-2.6h3.25c0.15 0 4.4-0.1 6 2.75 1.2 1.55 2.85 7.3 3.35 9.45l0.050 0.35c0.15 0.6 0.050 1.2-0.3 1.65-0.25 0.45-0.8 0.7-1.45 0.7zM13.8 17.55c-0.35 0-2.9 0.050-4.4 2.2-0.8 1.15-2.25 5.95-2.95 9-0.1 0.4-0.15 0.6-0.15 0.6-0.1 0.35-0.050 0.65 0.1 0.9 0.15 0.2 0.45 0.35 0.8 0.35h17.5c0.35 0 0.6-0.1 0.75-0.35 0.15-0.2 0.2-0.5 0.1-0.8 0 0 0 0 0-0.050v-0.4c-0.55-2.45-2.2-7.85-3.2-9.1 0 0-0.050-0.050-0.050-0.050-1.3-2.35-5.15-2.3-5.15-2.3h-3.35c0.050 0 0.050 0 0 0zM15.95 15c-4 0-7.25-3.25-7.25-7.25s3.25-7.25 7.25-7.25c4 0 7.25 3.25 7.25 7.25 0.050 4-3.2 7.25-7.25 7.25zM15.95 1.45c-3.5 0-6.3 2.85-6.3 6.3 0 3.5 2.85 6.3 6.3 6.3 3.5 0 6.3-2.85 6.3-6.3 0.050-3.45-2.8-6.3-6.3-6.3z"></path>
</symbol>
<symbol id="icon-facebook" viewBox="0 0 32 32">
<title>facebook</title>
<path d="M18.272 31.424h-4.256c-1.024 0-1.888-0.864-1.888-1.888v-11.488h-3.52c-1.024 0-1.888-0.864-1.888-1.888v-3.296c0-1.024 0.864-1.888 1.888-1.888h3.488v-2.976c0-4.416 2.912-7.392 7.264-7.392h3.232c1.024 0 1.888 0.864 1.888 1.888v3.904c0 1.024-0.864 1.888-1.888 1.888h-2.24c-0.064 0-0.128 0-0.16 0 0 0.064 0 0.096 0 0.128v2.56h3.2c0.576 0 1.12 0.256 1.472 0.704s0.512 1.024 0.384 1.568v0l-0.672 3.264c-0.16 0.864-0.96 1.504-1.856 1.504h-2.56v11.52c0 0.992-0.864 1.888-1.888 1.888zM8.608 12.736c-0.064 0-0.128 0.064-0.128 0.128v3.328c0 0.064 0.064 0.128 0.128 0.128h5.28v13.216c0 0.064 0.064 0.128 0.128 0.128h4.256c0.064 0 0.128-0.064 0.128-0.128v-13.28h4.32c0.064 0 0.128-0.032 0.128-0.064l0.672-3.296c0-0.064 0-0.096-0.032-0.128s-0.064-0.032-0.128-0.032h-4.928v-4.32c0-1.152 0.32-1.888 1.92-1.888h2.24c0.064 0 0.128-0.064 0.128-0.128v-3.936c0-0.064-0.064-0.128-0.128-0.128h-3.232c-3.328 0-5.504 2.208-5.504 5.632v4.736h-5.248z"></path>
</symbol>
<symbol id="icon-github-original" viewBox="0 0 32 32">
<title>github-original</title>
<path d="M16 1.184c-8.384 0-15.2 6.784-15.2 15.2 0 6.72 4.352 12.416 10.4 14.432 0.768 0.128 1.024-0.32 1.024-0.736 0-0.352 0-1.312-0.032-2.592-4.224 0.928-5.12-2.048-5.12-2.048-0.704-1.76-1.696-2.208-1.696-2.208-1.376-0.928 0.096-0.928 0.096-0.928 1.536 0.096 2.336 1.568 2.336 1.568 1.344 2.336 3.552 1.664 4.416 1.248 0.128-0.992 0.544-1.664 0.96-2.048-3.328-0.352-6.88-1.664-6.88-7.488 0-1.664 0.608-3.008 1.568-4.064-0.16-0.384-0.672-1.92 0.16-4.032 0 0 1.28-0.416 4.192 1.568 1.216-0.352 2.528-0.512 3.808-0.512s2.592 0.16 3.808 0.512c2.912-1.952 4.16-1.568 4.16-1.568 0.832 2.080 0.32 3.648 0.16 4.032 0.96 1.056 1.568 2.432 1.568 4.064 0 5.824-3.552 7.136-6.944 7.488 0.544 0.48 1.024 1.408 1.024 2.816 0 2.048-0.032 3.68-0.032 4.16 0 0.416 0.288 0.864 1.056 0.736 6.048-2.016 10.4-7.712 10.4-14.432-0.032-8.384-6.848-15.168-15.232-15.168z"></path>
</symbol>
<symbol id="icon-linkedin" viewBox="0 0 32 32">
<title>linkedin</title>
<path d="M7.68 12.16h-4.416c-0.832 0-1.536 0.672-1.536 1.536v14.944c0 0.832 0.672 1.536 1.536 1.536h4.416c0.832 0 1.536-0.672 1.536-1.536v-14.944c0-0.832-0.704-1.536-1.536-1.536zM7.456 28.416h-3.936v-14.496h3.936v14.496z"></path>
<path d="M25.504 12.224c-1.344-0.16-2.848 0.064-4.192 0.672-0.608 0.288-1.216 0.64-1.792 1.056v-0.288c0-0.832-0.672-1.536-1.536-1.536h-4.416c-0.832 0-1.536 0.672-1.536 1.536v14.944c0 0.832 0.672 1.536 1.536 1.536h4.416c0.832 0 1.536-0.672 1.536-1.536v-6.112c0-0.992 0.8-1.792 1.792-1.792s1.792 0.8 1.792 1.792v6.144c0 0.832 0.672 1.536 1.536 1.536h4.416c0.832 0 1.536-0.672 1.536-1.536v-10.752c-0.064-2.848-2.272-5.312-5.088-5.664zM28.768 28.416h-3.936v-5.952c0-1.952-1.6-3.552-3.552-3.552s-3.552 1.6-3.552 3.552v5.92h-3.904v-14.464h3.936v0.992c0 0.48 0.288 0.928 0.736 1.152s0.96 0.16 1.344-0.16c0.192-0.16 0.384-0.288 0.512-0.384 0.064-0.064 0.128-0.096 0.16-0.128 0.48-0.384 0.992-0.672 1.536-0.928 1.088-0.48 2.24-0.672 3.264-0.544 1.952 0.224 3.456 1.952 3.456 3.936v10.56z"></path>
<path d="M5.472 1.856c-2.208 0-4 1.792-4 4s1.792 4 4 4c2.208 0 4-1.792 4-4s-1.76-4-4-4zM5.472 8.096c-1.248 0-2.24-1.024-2.24-2.24s1.024-2.24 2.24-2.24c1.248 0 2.24 1.024 2.24 2.24s-0.992 2.24-2.24 2.24z"></path>
</symbol>
<symbol id="icon-slack" viewBox="0 0 32 32">
<title>slack</title>
<path d="M13.468 14.789l3.853-1.291 1.24 3.702-3.854 1.291-1.24-3.702z"></path>
<path d="M13.468 14.789l3.853-1.291 1.24 3.702-3.854 1.291-1.24-3.702z"></path>
<path d="M29.184 12.032c-2.944-9.888-7.232-12.192-17.152-9.216-9.888 2.944-12.192 7.232-9.216 17.152 2.976 9.888 7.264 12.192 17.152 9.248 9.888-2.976 12.192-7.264 9.216-17.184zM24.192 18.464l-1.856 0.64 0.64 1.92c0.256 0.768-0.16 1.632-0.928 1.888-0.16 0.064-0.352 0.096-0.512 0.064-0.608 0-1.184-0.416-1.376-1.024l-0.64-1.92-3.84 1.28 0.64 1.92c0.256 0.768-0.16 1.632-0.928 1.888-0.16 0.064-0.352 0.096-0.512 0.064-0.608 0-1.184-0.416-1.376-1.024l-0.64-1.92-1.856 0.64c-0.16 0.064-0.352 0.096-0.512 0.064-0.608 0-1.184-0.416-1.376-1.024-0.256-0.768 0.16-1.632 0.928-1.888l1.856-0.64-1.248-3.712-1.856 0.64c-0.16 0.064-0.352 0.096-0.512 0.064-0.608 0-1.184-0.416-1.376-1.024-0.256-0.768 0.16-1.632 0.928-1.888l1.856-0.64-0.64-1.92c-0.256-0.768 0.16-1.632 0.928-1.888s1.632 0.16 1.888 0.928l0.64 1.92 3.84-1.28-0.64-1.92c-0.256-0.768 0.16-1.632 0.928-1.888s1.632 0.16 1.888 0.928l0.64 1.92 1.856-0.64c0.768-0.256 1.632 0.16 1.888 0.928s-0.16 1.632-0.928 1.888l-1.856 0.64 1.248 3.712 1.856-0.64c0.768-0.256 1.632 0.16 1.888 0.928 0.288 0.896-0.16 1.76-0.928 2.016z"></path>
</symbol>
<symbol id="icon-twitter-filled" viewBox="0 0 32 32">
<title>twitter-filled</title>
<path d="M27.648 7.968l1.824-2.304c0.544-0.608 0.704-1.056 0.768-1.344-1.408 0.896-2.752 1.152-3.712 1.184h-0.384l-0.224-0.256c-1.152-1.024-2.592-1.6-4.16-1.6-3.36 0-6.080 2.752-6.080 6.080 0 0.256 0 0.48 0.032 0.704l0.16 0.992-1.024-0.032c-6.24-0.16-11.264-5.44-12.128-6.4-1.344 2.496-0.608 4.768 0.256 6.208l1.632 2.72-2.592-1.408c0.032 2.016 0.832 3.616 2.304 4.768l1.248 0.96-1.312 0.544c0.832 2.496 2.624 3.488 4.032 3.872l1.76 0.48-1.536 1.056c-2.688 1.888-6.112 1.76-7.52 1.632 3.072 2.112 6.656 2.56 9.216 2.56 1.888 0 3.264-0.256 3.616-0.32 13.568-3.2 14.176-15.296 14.144-17.728v-0.384l0.288-0.256c1.632-1.536 2.336-2.4 2.72-2.848-0.16 0.096-0.32 0.128-0.544 0.192l-2.784 0.928z"></path>
</symbol>
</defs>
</svg>
