<svg aria-hidden="true" style="position: absolute; width: 0; height: 0; overflow: hidden;" version="1.1" xmlns="http://www.w3.org/2000/svg" xmlns:xlink="http://www.w3.org/1999/xlink">
<defs>
<symbol id="icon-layers" viewBox="0 0 32 32">
<title>layers</title>
<path d="M30.765 7.262l-11.543-6.515c-1.571-0.887-4.271-0.888-5.845 0l-11.543 6.515c-0.883 0.499-1.368 1.197-1.368 1.967s0.486 1.468 1.368 1.966l11.543 6.516c0.786 0.444 1.824 0.688 2.922 0.688s2.137-0.245 2.923-0.688l11.543-6.516c0.883-0.498 1.369-1.196 1.369-1.966s-0.487-1.468-1.369-1.967zM30.239 10.265l-11.543 6.516c-1.238 0.699-3.556 0.7-4.794 0l-11.543-6.516c-0.524-0.296-0.824-0.674-0.824-1.036s0.3-0.74 0.824-1.037l11.543-6.516c0.619-0.35 1.493-0.55 2.396-0.55 0.904 0 1.778 0.201 2.397 0.55l11.543 6.516c0.524 0.296 0.825 0.674 0.825 1.037 0.001 0.362-0.299 0.74-0.824 1.036zM30.765 14.099c-0.256-0.145-0.582-0.055-0.729 0.203-0.145 0.257-0.054 0.583 0.203 0.728 0.524 0.296 0.825 0.674 0.825 1.036s-0.301 0.74-0.825 1.036l-11.543 6.516c-1.298 0.733-3.494 0.734-4.794 0l-11.543-6.516c-0.524-0.296-0.824-0.674-0.824-1.036s0.3-0.74 0.824-1.036c0.257-0.145 0.348-0.471 0.203-0.728s-0.473-0.349-0.729-0.203c-0.883 0.498-1.368 1.197-1.368 1.967s0.485 1.469 1.368 1.967l11.543 6.516c0.819 0.462 1.871 0.694 2.922 0.694s2.104-0.231 2.923-0.694l11.543-6.516c0.883-0.498 1.369-1.197 1.369-1.967s-0.486-1.469-1.368-1.967zM30.765 20.804c-0.256-0.145-0.582-0.055-0.729 0.203-0.145 0.257-0.054 0.583 0.203 0.728 0.524 0.296 0.825 0.674 0.825 1.036s-0.301 0.74-0.825 1.037l-11.543 6.516c-1.298 0.733-3.494 0.734-4.794 0l-11.543-6.517c-0.524-0.296-0.824-0.674-0.824-1.037 0-0.362 0.3-0.74 0.824-1.036 0.257-0.145 0.348-0.471 0.203-0.728s-0.473-0.349-0.729-0.203c-0.881 0.499-1.367 1.197-1.367 1.968s0.485 1.469 1.368 1.967l11.543 6.516c0.819 0.462 1.871 0.694 2.922 0.694 1.052 0 2.104-0.231 2.923-0.694l11.543-6.516c0.883-0.499 1.369-1.197 1.369-1.967s-0.487-1.469-1.369-1.967z"></path>
</symbol>
<symbol id="icon-Diamond" viewBox="0 0 32 32">
<title>Diamond</title>
<path fill="#5b554d" style="fill: var(--color1, #5b554d)" d="M15.85 29.1v0c-0.15 0-0.25-0.050-0.35-0.15l-14.9-17.2c-0.1-0.15-0.15-0.35-0.050-0.5 3.4-5.75 3.65-6 3.95-6l11.25-2.35c0.050 0 0.1 0 0.2 0l11.3 2.35c0.1 0 0.2 0.1 0.25 0.2l3.9 5.6c0.1 0.15 0.1 0.4-0.050 0.55l-15.15 17.35c-0.1 0.050-0.2 0.15-0.35 0.15zM1.5 11.45l14.35 16.55 14.65-16.7-3.6-5.2-11-2.3-11.15 2.3c-0.4 0.55-1.9 3-3.25 5.35z"></path>
<path fill="#5b554d" style="fill: var(--color1, #5b554d)" d="M15.85 29.1c-0.1 0-0.25-0.050-0.35-0.15l-14.9-17.2c-0.1-0.15-0.15-0.35-0.050-0.5 3.55-6.050 3.65-6 4-6 0.1 0 0.2 0.050 0.3 0.15 0.5 0.4 1.65 1.65 5.25 5.75 0.050 0.050 0.050 0.1 0.1 0.15l6.050 17.2c0.050 0.2 0 0.4-0.2 0.55-0.050 0-0.1 0.050-0.2 0.050zM1.5 11.45l13.15 15.15-5.25-14.9c-1.55-1.8-4-4.5-4.8-5.35-0.55 0.8-1.9 3-3.1 5.1z"></path>
<path fill="#5b554d" style="fill: var(--color1, #5b554d)" d="M16.2 28.7c-0.1 0-0.15 0-0.2-0.050-0.2-0.1-0.25-0.35-0.2-0.55l5.8-16.7c0-0.050 0.050-0.1 0.1-0.15l5.2-5.85c0.1-0.1 0.2-0.15 0.35-0.15s0.25 0.1 0.35 0.2l3.9 5.6c0.1 0.15 0.1 0.4-0.050 0.55l-14.95 16.95c-0.050 0.1-0.2 0.15-0.3 0.15zM22.4 11.8l-5.050 14.45 13.15-14.95-3.35-4.85-4.75 5.35z"></path>
<path fill="#5b554d" style="fill: var(--color1, #5b554d)" d="M4.45 6.2c-0.1 0-0.2-0.050-0.25-0.1-0.1-0.1-0.2-0.2-0.2-0.35 0-0.1 0.050-0.2 0.1-0.25 0-0.050 0.050-0.1 0.1-0.1 0.2-0.15 0.45-0.15 0.6 0.050 0.050 0.1 0.1 0.2 0.1 0.3s-0.050 0.25-0.15 0.3c0 0.1-0.15 0.15-0.3 0.15z"></path>
<path fill="#5b554d" style="fill: var(--color1, #5b554d)" d="M9.8 11.9c-0.15 0-0.25-0.050-0.35-0.15-1.75-2-4.65-5.25-5.1-5.65-0.050-0.050-0.1-0.050-0.15-0.15-0.1-0.15-0.1-0.3-0.050-0.45s0.2-0.2 0.35-0.25v0l11-2.35c0.2-0.050 0.35 0.050 0.45 0.2s0.1 0.35 0 0.5l-5.8 8.15c-0.1 0.1-0.2 0.15-0.35 0.15v0zM5.45 5.95c0.7 0.7 1.95 2.1 4.3 4.8l4.8-6.75-9.1 1.95z"></path>
<path fill="#5b554d" style="fill: var(--color1, #5b554d)" d="M4.5 6.15c-0.050 0-0.050 0-0.1 0-0.1 0-0.25-0.1-0.3-0.2s-0.1-0.15-0.1-0.25c0-0.15 0.050-0.25 0.2-0.35 0.1-0.1 0.25-0.1 0.4-0.050s0.25 0.15 0.3 0.25c0 0.050 0.050 0.1 0.050 0.2 0 0.15-0.1 0.35-0.25 0.4-0.050 0-0.1 0-0.2 0z"></path>
<path fill="#5b554d" style="fill: var(--color1, #5b554d)" d="M4.45 6.25c-0.1 0-0.15 0-0.2-0.050-0.2-0.1-0.25-0.25-0.25-0.4 0-0.050 0-0.15 0.050-0.2l0.050-0.050c0.15-0.2 0.4-0.25 0.6-0.15 0.15 0.1 0.2 0.25 0.2 0.35s0 0.15-0.050 0.25c-0.1 0.15-0.25 0.25-0.4 0.25z"></path>
<path fill="#5b554d" style="fill: var(--color1, #5b554d)" d="M4.1 6.85c-0.050 0-0.15 0-0.2-0.050-0.15-0.1-0.25-0.25-0.25-0.4 0-0.050 0-0.15 0.050-0.2l0.050-0.15c0.1-0.2 0.4-0.3 0.6-0.2 0.15 0.1 0.25 0.25 0.25 0.4 0 0.050 0 0.15-0.050 0.2l-0.050 0.15c-0.050 0.15-0.2 0.25-0.4 0.25z"></path>
<path fill="#5b554d" style="fill: var(--color1, #5b554d)" d="M4.35 6.35c-0.050 0-0.15 0-0.2-0.050-0.15-0.1-0.2-0.25-0.25-0.4 0-0.050 0-0.15 0.050-0.2l0.4 0.2-0.35-0.25 0.4 0.15 0.35 0.25c-0.1 0.25-0.25 0.3-0.4 0.3z"></path>
<path fill="#5b554d" style="fill: var(--color1, #5b554d)" d="M4 7.050c-0.050 0-0.15 0-0.2-0.050-0.15-0.1-0.25-0.25-0.25-0.4 0-0.050 0-0.15 0.050-0.2l0.1-0.15c0.1-0.2 0.4-0.3 0.6-0.2 0.15 0.1 0.25 0.25 0.25 0.4 0 0.050 0 0.15-0.050 0.2l-0.050 0.15c-0.1 0.15-0.25 0.25-0.45 0.25z"></path>
<path fill="#5b554d" style="fill: var(--color1, #5b554d)" d="M4.2 6.65c-0.050 0-0.15 0-0.2-0.050-0.15-0.1-0.25-0.25-0.25-0.4 0-0.050 0-0.15 0.050-0.2l0.050-0.1c0.1-0.2 0.4-0.35 0.6-0.2 0.15 0.1 0.25 0.25 0.25 0.4 0 0.050 0 0.1-0.050 0.2l-0.1 0.1c0 0.15-0.15 0.25-0.35 0.25z"></path>
<path fill="#5b554d" style="fill: var(--color1, #5b554d)" d="M4.3 6.45c-0.050 0-0.15 0-0.2-0.050-0.15-0.1-0.25-0.25-0.25-0.4 0-0.050 0-0.15 0.050-0.2v-0.050c0.1-0.2 0.4-0.35 0.6-0.2 0.15 0.1 0.25 0.25 0.25 0.4 0 0.050 0 0.15-0.050 0.2l-0.050 0.050c0 0.2-0.2 0.25-0.35 0.25z"></path>
<path fill="#5b554d" style="fill: var(--color1, #5b554d)" d="M22.1 11.9c-0.050 0-0.050 0 0 0-0.15 0-0.3-0.1-0.35-0.2l-5.8-8.1c-0.1-0.15-0.1-0.35 0-0.5s0.3-0.25 0.45-0.2l10.85 2.35c0.15 0.050 0.3 0.15 0.35 0.3s0 0.3-0.1 0.45l-5.1 5.75c-0.1 0.1-0.2 0.15-0.3 0.15zM17.35 4.050l4.8 6.7 4.25-4.8-9.050-1.9z"></path>
<path fill="#5b554d" style="fill: var(--color1, #5b554d)" d="M30.9 11.95h-29.9c-0.15 0-0.25-0.050-0.35-0.15-0.1-0.15-0.15-0.4-0.1-0.55 3.4-5.8 3.65-6 3.95-6l11.5-2.35c0.050 0 0.1 0 0.2 0l11.1 2.35c0.1 0 0.2 0.1 0.25 0.2l3.9 5.6c0.1 0.15 0.1 0.4-0.050 0.55l-0.15 0.2c-0.1 0.1-0.25 0.15-0.35 0.15zM1.7 11.1h28.65l-3.45-4.95-10.8-2.35-11.35 2.3c-0.4 0.5-1.75 2.8-3.050 5z"></path>
</symbol>
<symbol id="icon-Eye" viewBox="0 0 32 32">
<title>Eye</title>
<path fill="#5b554d" style="fill: var(--color1, #5b554d)" d="M16 26.65c-6.7 0-10.5-4.55-14.95-9.85l-0.45-0.55c-0.15-0.15-0.15-0.35 0-0.55 5.35-6.4 9.75-10.35 15.4-10.35 6.75 0 11.8 5.6 15.4 10.5 0.1 0.15 0.1 0.35 0 0.5l-0.35 0.4c-3.3 3.95-8.35 9.9-15.050 9.9zM1.45 16l0.25 0.3c4.3 5.1 8 9.55 14.3 9.55 6.35 0 11-5.55 14.45-9.6l0.1-0.15c-3.5-4.7-8.3-9.95-14.55-9.95-5.25 0-9.35 3.6-14.55 9.85z"></path>
<path fill="#5b554d" style="fill: var(--color1, #5b554d)" d="M16 21.35c-2.95 0-5.35-2.4-5.35-5.35s2.4-5.35 5.35-5.35c2.95 0 5.35 2.4 5.35 5.35s-2.4 5.35-5.35 5.35zM16 11.45c-2.5 0-4.55 2.050-4.55 4.55s2.050 4.55 4.55 4.55c2.5 0 4.55-2.050 4.55-4.55-0.050-2.5-2.050-4.55-4.55-4.55z"></path>
<path fill="#5b554d" style="fill: var(--color1, #5b554d)" d="M18.25 16c0 1.243-1.007 2.25-2.25 2.25s-2.25-1.007-2.25-2.25c0-1.243 1.007-2.25 2.25-2.25s2.25 1.007 2.25 2.25z"></path>
</symbol>
<symbol id="icon-Home" viewBox="0 0 32 32">
<title>Home</title>
<path fill="#5b554d" style="fill: var(--color1, #5b554d)" d="M23.15 30.45h-4.4c-0.2 0-0.4-0.15-0.4-0.4v-6.7h-4.7v6.7c0 0.2-0.15 0.4-0.4 0.4h-4.4c-1.7 0-3.1-1.4-3.1-3.1v-11.75c0-0.2 0.15-0.4 0.4-0.4 0.2 0 0.4 0.15 0.4 0.4v11.75c0 1.3 1.050 2.35 2.35 2.35h4.050v-6.75c0-0.2 0.15-0.4 0.4-0.4h5.5c0.2 0 0.4 0.15 0.4 0.4v6.7h4c1.3 0 2.35-1.050 2.35-2.35v-11.7c0-0.2 0.15-0.4 0.4-0.4 0.2 0 0.4 0.15 0.4 0.4v11.75c-0.15 1.7-1.55 3.1-3.25 3.1z"></path>
<path fill="#5b554d" style="fill: var(--color1, #5b554d)" d="M29.25 15.95c-0.050 0-0.1 0-0.2 0-0.050 0-0.15-0.050-0.2-0.050l-12.85-9.3-12.9 9.3c-0.050 0.050-0.1 0.050-0.2 0.050-0.65 0.050-1.25-0.2-1.6-0.7l-0.5-0.7c-0.25-0.35-0.4-0.85-0.3-1.3 0.050-0.45 0.3-0.85 0.7-1.15l13.45-9.65c0.55-0.4 1-0.75 1.1-0.8 0 0 0 0 0.050 0 0.15-0.1 0.35-0.1 0.45 0 0 0 0.050 0.050 0.050 0.050v0c0.050 0.050 0.35 0.25 0.75 0.55l3.9 2.85c0.6 0.45 5.6 4.050 6.2 4.45l3.65 2.6c0 0 0 0 0 0 0.8 0.55 0.95 1.65 0.4 2.45l-0.5 0.7c-0.35 0.4-0.9 0.65-1.45 0.65zM29.25 15.2c0.3 0 0.6-0.15 0.8-0.4l0.5-0.7c0.3-0.45 0.2-1.050-0.2-1.35l-3.65-2.6c-0.6-0.45-5.6-4.050-6.2-4.45l-3.9-2.85c-0.3-0.2-0.45-0.35-0.6-0.45-0.15 0.15-0.45 0.35-0.9 0.65l-13.4 9.7c-0.2 0.15-0.35 0.4-0.4 0.65s0 0.5 0.15 0.7l0.5 0.7c0.2 0.25 0.45 0.4 0.8 0.4l13-9.4c0.15-0.1 0.35-0.1 0.45 0v0l13.050 9.4zM16 6.1v0 0z"></path>
<path fill="#5b554d" style="fill: var(--color1, #5b554d)" d="M26.9 10.2c-0.1 0-0.15 0-0.25-0.050-0.7-0.5-1.25-1.6-1.25-2.45v-4.35c0-0.55-0.45-0.95-0.95-0.95h-1.3c-0.55 0-0.95 0.45-0.95 0.95v1.45c0 0.5-0.2 0.9-0.55 1.050s-0.75 0.1-1.2-0.2c-0.15-0.15-0.2-0.35-0.1-0.55 0.15-0.15 0.35-0.2 0.55-0.1 0.2 0.15 0.3 0.15 0.4 0.15 0.050-0.050 0.1-0.15 0.1-0.4v-1.4c0-0.95 0.8-1.75 1.75-1.75h1.3c0.95 0 1.75 0.8 1.75 1.75v4.3c0 0.6 0.45 1.45 0.95 1.85 0.15 0.15 0.2 0.35 0.1 0.55-0.1 0.1-0.2 0.15-0.35 0.15z"></path>
</symbol>
<symbol id="icon-Paper-plane" viewBox="0 0 32 32">
<title>Paper-plane</title>
<path fill="#5b554d" style="fill: var(--color1, #5b554d)" d="M14.55 25.75c0 0-0.050 0 0 0-0.15 0-0.2-0.050-0.3-0.15l-4.85-7.4-3.2 0.9c-0.1 0.050-0.2 0-0.3-0.050s-0.15-0.15-0.15-0.3l0.2-5.4-5.35-6.5c-0.1-0.1-0.1-0.25-0.050-0.35s0.15-0.2 0.3-0.2l30.3-0.050c0 0 0 0 0.050 0s0.1 0 0.15 0.050c0.050 0 0.050 0.050 0.1 0.050 0.050 0.050 0.050 0.1 0.050 0.15v0c0 0 0 0 0 0s0 0.050 0 0.050 0 0.1 0 0.15c0 0.050-0.050 0.050-0.050 0.1 0 0 0 0 0 0l-16.65 18.85c-0.1 0.050-0.15 0.1-0.25 0.1zM9.55 17.5c0.1 0 0.2 0.050 0.3 0.15l4.75 7.25 15.85-17.95h-28.9l5 6.1c0.050 0.050 0.1 0.15 0.1 0.25l-0.2 5.050 3-0.85c0.050 0 0.050 0 0.1 0z"></path>
<path fill="#5b554d" style="fill: var(--color1, #5b554d)" d="M6.3 13.6c-0.15 0-0.3-0.1-0.3-0.25-0.050-0.2 0.050-0.35 0.25-0.4l24.85-6.7c0.2-0.050 0.35 0.050 0.4 0.25s-0.050 0.35-0.25 0.4l-24.85 6.7c-0.050 0-0.050 0-0.1 0z"></path>
<path fill="#5b554d" style="fill: var(--color1, #5b554d)" d="M6.1 19.15c-0.1 0-0.15-0.050-0.2-0.1-0.15-0.1-0.15-0.35-0.050-0.45l2.6-3.050c0.050-0.050 0.1-0.050 0.15-0.1l22.5-9.2c0.15-0.050 0.35 0 0.45 0.2 0.050 0.15 0 0.35-0.2 0.45l-22.45 9.15-2.55 2.95c-0.050 0.1-0.15 0.15-0.25 0.15z"></path>
</symbol>
<symbol id="icon-Person" viewBox="0 0 32 32">
<title>Person</title>
<path fill="#5b554d" style="fill: var(--color1, #5b554d)" d="M24.75 31.5h-17.5c-0.6 0-1.2-0.25-1.5-0.7-0.35-0.45-0.45-1.050-0.3-1.65 0 0 0.050-0.25 0.15-0.65 0.55-2.4 2.050-7.85 3.050-9.3 1.9-2.7 5.1-2.6 5.2-2.6h3.25c0.15 0 4.4-0.1 6 2.75 1.2 1.55 2.85 7.3 3.35 9.45l0.050 0.35c0.15 0.6 0.050 1.2-0.3 1.65-0.25 0.45-0.8 0.7-1.45 0.7zM13.8 17.55c-0.35 0-2.9 0.050-4.4 2.2-0.8 1.15-2.25 5.95-2.95 9-0.1 0.4-0.15 0.6-0.15 0.6-0.1 0.35-0.050 0.65 0.1 0.9 0.15 0.2 0.45 0.35 0.8 0.35h17.5c0.35 0 0.6-0.1 0.75-0.35 0.15-0.2 0.2-0.5 0.1-0.8 0 0 0 0 0-0.050v-0.4c-0.55-2.45-2.2-7.85-3.2-9.1 0 0-0.050-0.050-0.050-0.050-1.3-2.35-5.15-2.3-5.15-2.3h-3.35c0.050 0 0.050 0 0 0zM15.95 15c-4 0-7.25-3.25-7.25-7.25s3.25-7.25 7.25-7.25c4 0 7.25 3.25 7.25 7.25 0.050 4-3.2 7.25-7.25 7.25zM15.95 1.45c-3.5 0-6.3 2.85-6.3 6.3 0 3.5 2.85 6.3 6.3 6.3 3.5 0 6.3-2.85 6.3-6.3 0.050-3.45-2.8-6.3-6.3-6.3z"></path>
</symbol>
<symbol id="icon-baffled" viewBox="0 0 32 32">
<title>baffled</title>
<path d="M16 32c8.837 0 16-7.163 16-16s-7.163-16-16-16-16 7.163-16 16 7.163 16 16 16zM16 3c7.18 0 13 5.82 13 13s-5.82 13-13 13-13-5.82-13-13 5.82-13 13-13z"></path>
<path d="M12 13c0 0.552-0.448 1-1 1s-1-0.448-1-1c0-0.552 0.448-1 1-1s1 0.448 1 1z"></path>
<path d="M11 10c1.657 0 3 1.343 3 3s-1.343 3-3 3-3-1.343-3-3 1.343-3 3-3zM11 8c-2.757 0-5 2.243-5 5s2.243 5 5 5 5-2.243 5-5-2.243-5-5-5v0z"></path>
<path d="M22 13c0 0.552-0.448 1-1 1s-1-0.448-1-1c0-0.552 0.448-1 1-1s1 0.448 1 1z"></path>
<path d="M21 10c1.657 0 3 1.343 3 3s-1.343 3-3 3-3-1.343-3-3 1.343-3 3-3zM21 8c-2.757 0-5 2.243-5 5s2.243 5 5 5 5-2.243 5-5-2.243-5-5-5v0z"></path>
<path d="M12 22h8v2h-8v-2z"></path>
</symbol>
<symbol id="icon-cool" viewBox="0 0 32 32">
<title>cool</title>
<path d="M16 32c8.837 0 16-7.163 16-16s-7.163-16-16-16-16 7.163-16 16 7.163 16 16 16zM16 3c7.18 0 13 5.82 13 13s-5.82 13-13 13-13-5.82-13-13 5.82-13 13-13zM25 8c0.55 0 1 0.45 1 1v3c0 1.1-0.9 2-2 2h-4c-1.1 0-2-0.9-2-2h-4c0 1.1-0.9 2-2 2h-4c-1.1 0-2-0.9-2-2v-3c0-0.55 0.45-1 1-1h6c0.55 0 1 0.45 1 1v1h4v-1c0-0.55 0.45-1 1-1h6zM16 24c2.913 0 5.462-1.557 6.861-3.884l1.715 1.029c-1.749 2.908-4.935 4.855-8.576 4.855-1.514 0-2.95-0.337-4.236-0.94l1.036-1.727c0.98 0.429 2.061 0.668 3.199 0.668z"></path>
</symbol>
<symbol id="icon-facebook" viewBox="0 0 32 32">
<title>facebook</title>
<path d="M18.272 31.424h-4.256c-1.024 0-1.888-0.864-1.888-1.888v-11.488h-3.52c-1.024 0-1.888-0.864-1.888-1.888v-3.296c0-1.024 0.864-1.888 1.888-1.888h3.488v-2.976c0-4.416 2.912-7.392 7.264-7.392h3.232c1.024 0 1.888 0.864 1.888 1.888v3.904c0 1.024-0.864 1.888-1.888 1.888h-2.24c-0.064 0-0.128 0-0.16 0 0 0.064 0 0.096 0 0.128v2.56h3.2c0.576 0 1.12 0.256 1.472 0.704s0.512 1.024 0.384 1.568v0l-0.672 3.264c-0.16 0.864-0.96 1.504-1.856 1.504h-2.56v11.52c0 0.992-0.864 1.888-1.888 1.888zM8.608 12.736c-0.064 0-0.128 0.064-0.128 0.128v3.328c0 0.064 0.064 0.128 0.128 0.128h5.28v13.216c0 0.064 0.064 0.128 0.128 0.128h4.256c0.064 0 0.128-0.064 0.128-0.128v-13.28h4.32c0.064 0 0.128-0.032 0.128-0.064l0.672-3.296c0-0.064 0-0.096-0.032-0.128s-0.064-0.032-0.128-0.032h-4.928v-4.32c0-1.152 0.32-1.888 1.92-1.888h2.24c0.064 0 0.128-0.064 0.128-0.128v-3.936c0-0.064-0.064-0.128-0.128-0.128h-3.232c-3.328 0-5.504 2.208-5.504 5.632v4.736h-5.248z"></path>
</symbol>
<symbol id="icon-facebook-filled" viewBox="0 0 32 32">
<title>facebook-filled</title>
<path d="M19.584 7.52h3.712c0.704 0 1.28-0.576 1.28-1.28v-3.168c0-0.704-0.576-1.28-1.28-1.28h-4.992c-3.168 0-5.696 2.56-5.696 5.696v0 4.352c0 0.192-0.128 0.32-0.32 0.32h-3.584c-0.704 0-1.28 0.576-1.28 1.28v3.168c0 0.704 0.576 1.28 1.28 1.28h3.584c0.192 0 0.32 0.128 0.32 0.32v10.72c0 0.704 0.576 1.28 1.28 1.28h3.168c0.704 0 1.28-0.576 1.28-1.28v-10.72c0-0.192 0.128-0.32 0.32-0.32h4.672c0.704 0 1.28-0.576 1.28-1.28v-3.168c0-0.704-0.576-1.28-1.28-1.28h-4.704c-0.192 0-0.32-0.128-0.32-0.32v-3.040c0-0.704 0.576-1.28 1.28-1.28z"></path>
</symbol>
<symbol id="icon-genius" viewBox="0 0 30 32">
<title>genius</title>
<path d="M0.567 24c0.785 1.36 2.548 2.079 5.097 2.079 0 0 0 0 0.001 0 1.146 0 2.407-0.161 3.722-0.438 1.266 3.879 3.287 6.359 5.613 6.359s4.347-2.48 5.613-6.359c1.316 0.276 2.577 0.438 3.723 0.438 0 0 0 0 0 0 2.548 0 4.311-0.719 5.096-2.079 1.016-1.761 0.117-4.72-2.966-8 3.083-3.28 3.982-6.239 2.966-8-0.785-1.36-2.548-2.079-5.097-2.079-1.146 0-2.408 0.161-3.723 0.438-1.265-3.879-3.286-6.359-5.612-6.359s-4.347 2.48-5.613 6.359c-1.316-0.277-2.578-0.438-3.723-0.438-2.549 0-4.312 0.719-5.097 2.079-1.016 1.761-0.117 4.72 2.966 8-3.083 3.28-3.983 6.239-2.966 8zM15 31c-1.839 0-3.516-2.199-4.627-5.579 1.503-0.381 3.066-0.92 4.627-1.599 1.561 0.679 3.124 1.218 4.627 1.599-1.111 3.38-2.788 5.579-4.627 5.579zM9 16c0-1.164 0.062-2.297 0.168-3.393 0.893-0.622 1.837-1.228 2.832-1.803 0.984-0.568 1.991-1.077 3-1.533 1.009 0.455 2.016 0.964 3 1.533 0.995 0.574 1.938 1.18 2.832 1.803 0.106 1.096 0.168 2.229 0.168 3.393s-0.062 2.297-0.168 3.393c-0.893 0.622-1.837 1.228-2.832 1.803-0.984 0.568-1.991 1.077-3 1.533-1.009-0.455-2.016-0.964-3-1.533-0.995-0.574-1.938-1.18-2.832-1.803-0.106-1.096-0.168-2.229-0.168-3.393zM8.098 18.623c-1.146-0.861-2.184-1.745-3.086-2.623 0.902-0.878 1.94-1.762 3.086-2.623-0.059 0.854-0.098 1.725-0.098 2.623s0.039 1.769 0.098 2.623zM9.321 11.286c0.184-1.341 0.442-2.604 0.764-3.754 1.195 0.301 2.435 0.717 3.682 1.219-0.762 0.369-1.522 0.757-2.267 1.187-0.773 0.447-1.488 0.897-2.179 1.348zM16.232 8.751c1.247-0.502 2.487-0.918 3.682-1.219 0.322 1.15 0.58 2.413 0.764 3.754-0.69-0.451-1.406-0.901-2.179-1.348-0.744-0.43-1.504-0.818-2.267-1.187zM21.902 13.377c1.147 0.861 2.184 1.744 3.086 2.623-0.902 0.878-1.94 1.762-3.086 2.623 0.059-0.854 0.098-1.725 0.098-2.623s-0.039-1.769-0.098-2.623zM20.679 20.714c-0.184 1.341-0.442 2.604-0.764 3.754-1.195-0.301-2.435-0.717-3.682-1.219 0.763-0.368 1.523-0.757 2.268-1.187 0.772-0.447 1.487-0.897 2.178-1.348zM11.5 22.062c0.745 0.43 1.505 0.819 2.268 1.187-1.247 0.502-2.487 0.918-3.682 1.219-0.322-1.15-0.58-2.413-0.764-3.754 0.69 0.451 1.405 0.901 2.178 1.348zM28.567 23.5c-0.588 1.019-2.090 1.579-4.23 1.579-1.056 0-2.218-0.146-3.432-0.395 0.396-1.424 0.693-3.008 0.877-4.708 1.546-1.084 2.851-2.168 3.94-3.229 2.532 2.682 3.726 5.226 2.845 6.753zM24.336 6.921c2.14 0 3.643 0.561 4.23 1.579 0.882 1.527-0.313 4.071-2.845 6.753-1.089-1.060-2.394-2.145-3.94-3.229-0.184-1.7-0.481-3.284-0.877-4.708 1.214-0.249 2.377-0.395 3.432-0.395zM15 1c1.839 0 3.516 2.199 4.627 5.579-1.503 0.381-3.066 0.92-4.627 1.599-1.561-0.679-3.124-1.218-4.627-1.599 1.111-3.38 2.788-5.579 4.627-5.579zM1.433 8.5c0.588-1.019 2.090-1.579 4.23-1.579 1.056 0 2.218 0.146 3.432 0.395-0.396 1.424-0.693 3.008-0.877 4.708-1.546 1.084-2.851 2.168-3.94 3.229-2.532-2.682-3.726-5.226-2.845-6.753zM4.278 16.747c1.089 1.060 2.394 2.145 3.94 3.229 0.184 1.7 0.481 3.284 0.877 4.708-1.213 0.249-2.375 0.395-3.431 0.395 0 0-0.001 0-0.001 0-2.14 0-3.643-0.561-4.23-1.579-0.881-1.527 0.313-4.071 2.845-6.753zM15 18.5c1.378 0 2.5-1.121 2.5-2.5s-1.122-2.5-2.5-2.5-2.5 1.121-2.5 2.5 1.122 2.5 2.5 2.5zM15 14.5c0.827 0 1.5 0.673 1.5 1.5s-0.673 1.5-1.5 1.5-1.5-0.673-1.5-1.5 0.673-1.5 1.5-1.5z"></path>
</symbol>
<symbol id="icon-github-original" viewBox="0 0 32 32">
<title>github-original</title>
<path d="M16 1.184c-8.384 0-15.2 6.784-15.2 15.2 0 6.72 4.352 12.416 10.4 14.432 0.768 0.128 1.024-0.32 1.024-0.736 0-0.352 0-1.312-0.032-2.592-4.224 0.928-5.12-2.048-5.12-2.048-0.704-1.76-1.696-2.208-1.696-2.208-1.376-0.928 0.096-0.928 0.096-0.928 1.536 0.096 2.336 1.568 2.336 1.568 1.344 2.336 3.552 1.664 4.416 1.248 0.128-0.992 0.544-1.664 0.96-2.048-3.328-0.352-6.88-1.664-6.88-7.488 0-1.664 0.608-3.008 1.568-4.064-0.16-0.384-0.672-1.92 0.16-4.032 0 0 1.28-0.416 4.192 1.568 1.216-0.352 2.528-0.512 3.808-0.512s2.592 0.16 3.808 0.512c2.912-1.952 4.16-1.568 4.16-1.568 0.832 2.080 0.32 3.648 0.16 4.032 0.96 1.056 1.568 2.432 1.568 4.064 0 5.824-3.552 7.136-6.944 7.488 0.544 0.48 1.024 1.408 1.024 2.816 0 2.048-0.032 3.68-0.032 4.16 0 0.416 0.288 0.864 1.056 0.736 6.048-2.016 10.4-7.712 10.4-14.432-0.032-8.384-6.848-15.168-15.232-15.168z"></path>
</symbol>
<symbol id="icon-icon-11-laughing-face" viewBox="0 0 32 32">
<title>icon-11-laughing-face</title>
<path fill="#929292" style="fill: var(--color2, #929292)" d="M16.5 29v0c-6.904 0-12.5-5.596-12.5-12.5s5.596-12.5 12.5-12.5c6.904 0 12.5 5.596 12.5 12.5s-5.596 12.5-12.5 12.5zM16.5 28c6.351 0 11.5-5.149 11.5-11.5s-5.149-11.5-11.5-11.5c-6.351 0-11.5 5.149-11.5 11.5s5.149 11.5 11.5 11.5v0zM12 14v0c-0.552 0-1-0.448-1-1s0.448-1 1-1c0.552 0 1 0.448 1 1s-0.448 1-1 1zM21 14v0c-0.552 0-1-0.448-1-1s0.448-1 1-1c0.552 0 1 0.448 1 1s-0.448 1-1 1zM9 19h15c0 0-1 6-7.5 6s-7.5-6-7.5-6zM10.345 20c0 0 1.287 4.013 6.18 4.013s6.118-4.013 6.118-4.013h-12.298z"></path>
</symbol>
<symbol id="icon-icon-20-sad-face-eyebrows" viewBox="0 0 32 32">
<title>icon-20-sad-face-eyebrows</title>
<path fill="#929292" style="fill: var(--color2, #929292)" d="M16.5 29v0c-6.904 0-12.5-5.596-12.5-12.5s5.596-12.5 12.5-12.5c6.904 0 12.5 5.596 12.5 12.5s-5.596 12.5-12.5 12.5zM16.5 28c6.351 0 11.5-5.149 11.5-11.5s-5.149-11.5-11.5-11.5c-6.351 0-11.5 5.149-11.5 11.5s5.149 11.5 11.5 11.5v0zM16.481 21c-3.481 0-5.481 2-5.481 2v-1c0 0 2-2 5.481-2s5.519 2 5.519 2v1c0 0-2.037-2-5.519-2v0zM20.622 9.967l-0.559 0.829 3.316 2.237 0.559-0.829-3.316-2.237zM9.062 12.204l0.559 0.829 3.316-2.237-0.559-0.829-3.316 2.237zM12 15c0.552 0 1-0.448 1-1s-0.448-1-1-1c-0.552 0-1 0.448-1 1s0.448 1 1 1v0zM21 15c0.552 0 1-0.448 1-1s-0.448-1-1-1c-0.552 0-1 0.448-1 1s0.448 1 1 1v0z"></path>
</symbol>
<symbol id="icon-icon-31-face-stuck-out-tongue" viewBox="0 0 32 32">
<title>icon-31-face-stuck-out-tongue</title>
<path fill="#929292" style="fill: var(--color2, #929292)" d="M13 20h-2v-1h11v1h-2v2.5c0 1.929-1.567 3.5-3.5 3.5-1.929 0-3.5-1.567-3.5-3.5v-2.5zM16.5 29v0c-6.904 0-12.5-5.596-12.5-12.5s5.596-12.5 12.5-12.5c6.904 0 12.5 5.596 12.5 12.5s-5.596 12.5-12.5 12.5zM16.5 28c6.351 0 11.5-5.149 11.5-11.5s-5.149-11.5-11.5-11.5c-6.351 0-11.5 5.149-11.5 11.5s5.149 11.5 11.5 11.5v0zM12 14c0.552 0 1-0.448 1-1s-0.448-1-1-1c-0.552 0-1 0.448-1 1s0.448 1 1 1v0zM21 14c0.552 0 1-0.448 1-1s-0.448-1-1-1c-0.552 0-1 0.448-1 1s0.448 1 1 1v0zM14 20v2.5c0 1.381 1.11 2.5 2.5 2.5 1.381 0 2.5-1.11 2.5-2.5v-2.5h-5z"></path>
</symbol>
<symbol id="icon-icon-32-face-stuck-out-tongue" viewBox="0 0 32 32">
<title>icon-32-face-stuck-out-tongue</title>
<path fill="#929292" style="fill: var(--color2, #929292)" d="M13 20h-2v-1h11v1h-2v2.5c0 1.929-1.567 3.5-3.5 3.5-1.929 0-3.5-1.567-3.5-3.5v-2.5zM16.5 29v0c-6.904 0-12.5-5.596-12.5-12.5s5.596-12.5 12.5-12.5c6.904 0 12.5 5.596 12.5 12.5s-5.596 12.5-12.5 12.5zM16.5 28c6.351 0 11.5-5.149 11.5-11.5s-5.149-11.5-11.5-11.5c-6.351 0-11.5 5.149-11.5 11.5s5.149 11.5 11.5 11.5v0zM21 14c0.552 0 1-0.448 1-1s-0.448-1-1-1c-0.552 0-1 0.448-1 1s0.448 1 1 1v0zM14 20v2.5c0 1.381 1.11 2.5 2.5 2.5 1.381 0 2.5-1.11 2.5-2.5v-2.5h-5zM11 13v1h4v-1h-4z"></path>
</symbol>
<symbol id="icon-icon-35-angry-face-teeth" viewBox="0 0 32 32">
<title>icon-35-angry-face-teeth</title>
<path fill="#929292" style="fill: var(--color2, #929292)" d="M19 20v1h-2v-1h2zM20 20v1h1.915c-0.206-0.583-0.763-1-1.421-1h-0.494zM19 23v-1h-2v1h2zM20 23v-1h1.915c-0.206 0.585-0.765 1-1.422 1h-0.494zM16 20v1h-2v-1h2zM16 23v-1h-2v1h2zM13 20v1h-1.915c0.206-0.585 0.765-1 1.422-1h0.494zM13 23v-1h-1.915c0.206 0.583 0.763 1 1.421 1h0.494zM16.5 29v0c-6.904 0-12.5-5.596-12.5-12.5s5.596-12.5 12.5-12.5c6.904 0 12.5 5.596 12.5 12.5s-5.596 12.5-12.5 12.5zM16.5 28c6.351 0 11.5-5.149 11.5-11.5s-5.149-11.5-11.5-11.5c-6.351 0-11.5 5.149-11.5 11.5s5.149 11.5 11.5 11.5v0zM12 15v0c-0.552 0-1-0.448-1-1s0.448-1 1-1c0.552 0 1 0.448 1 1s-0.448 1-1 1zM21 15v0c-0.552 0-1-0.448-1-1s0.448-1 1-1c0.552 0 1 0.448 1 1s-0.448 1-1 1zM12.507 19h7.987c1.387 0 2.507 1.119 2.507 2.5 0 1.39-1.122 2.5-2.507 2.5h-7.987c-1.387 0-2.507-1.119-2.507-2.5 0-1.39 1.122-2.5 2.507-2.5zM21.378 9.967l-3.316 2.237 0.559 0.829 3.316-2.237-0.559-0.829zM14.938 12.204l-3.316-2.237-0.559 0.829 3.316 2.237 0.559-0.829z"></path>
</symbol>
<symbol id="icon-icon-39-face-open-mouth-eyebrows" viewBox="0 0 32 32">
<title>icon-39-face-open-mouth-eyebrows</title>
<path fill="#929292" style="fill: var(--color2, #929292)" d="M16.5 29v0c-6.904 0-12.5-5.596-12.5-12.5s5.596-12.5 12.5-12.5c6.904 0 12.5 5.596 12.5 12.5s-5.596 12.5-12.5 12.5zM16.5 28c6.351 0 11.5-5.149 11.5-11.5s-5.149-11.5-11.5-11.5c-6.351 0-11.5 5.149-11.5 11.5s5.149 11.5 11.5 11.5v0zM12 15v0c-0.552 0-1-0.448-1-1s0.448-1 1-1c0.552 0 1 0.448 1 1s-0.448 1-1 1zM21 15v0c-0.552 0-1-0.448-1-1s0.448-1 1-1c0.552 0 1 0.448 1 1s-0.448 1-1 1zM16.5 24v0c-1.381 0-2.5-1.119-2.5-2.5s1.119-2.5 2.5-2.5c1.381 0 2.5 1.119 2.5 2.5s-1.119 2.5-2.5 2.5zM16.5 23c0.828 0 1.5-0.672 1.5-1.5s-0.672-1.5-1.5-1.5c-0.828 0-1.5 0.672-1.5 1.5s0.672 1.5 1.5 1.5v0zM20.622 9.967l-0.559 0.829 3.316 2.237 0.559-0.829-3.316-2.237zM9.062 12.204l0.559 0.829 3.316-2.237-0.559-0.829-3.316 2.237z"></path>
</symbol>
<symbol id="icon-icon-43-kissing-face" viewBox="0 0 32 32">
<title>icon-43-kissing-face</title>
<path fill="#929292" style="fill: var(--color2, #929292)" d="M16.5 29v0c-6.904 0-12.5-5.596-12.5-12.5s5.596-12.5 12.5-12.5c6.904 0 12.5 5.596 12.5 12.5s-5.596 12.5-12.5 12.5zM16.5 28c6.351 0 11.5-5.149 11.5-11.5s-5.149-11.5-11.5-11.5c-6.351 0-11.5 5.149-11.5 11.5s5.149 11.5 11.5 11.5v0zM19 10v1h4v-1h-4zM10 10v1h4v-1h-4zM12 15c0.552 0 1-0.448 1-1s-0.448-1-1-1c-0.552 0-1 0.448-1 1s0.448 1 1 1v0zM21 15c0.552 0 1-0.448 1-1s-0.448-1-1-1c-0.552 0-1 0.448-1 1s0.448 1 1 1v0zM18.5 19.5c-1 0-1 0.5-2.046 1-0.954-0.5-0.954-1-1.954-1s-2 1.5-3.5 1.5c1 0 2.5 3 5.454 3s4.546-3 5.546-3c-1.5 0-2.5-1.5-3.5-1.5v0z"></path>
</symbol>
<symbol id="icon-icon-47-amused-face-closed-eyes" viewBox="0 0 32 32">
<title>icon-47-amused-face-closed-eyes</title>
<path fill="#929292" style="fill: var(--color2, #929292)" d="M16.5 29v0c-6.904 0-12.5-5.596-12.5-12.5s5.596-12.5 12.5-12.5c6.904 0 12.5 5.596 12.5 12.5s-5.596 12.5-12.5 12.5zM16.5 28c6.351 0 11.5-5.149 11.5-11.5s-5.149-11.5-11.5-11.5c-6.351 0-11.5 5.149-11.5 11.5s5.149 11.5 11.5 11.5v0zM19.622 10.967l-0.559 0.829 3.316 2.237 0.559-0.829-3.316-2.237zM10.062 13.204l0.559 0.829 3.316-2.237-0.559-0.829-3.316 2.237zM16.497 21c-2.997 0-4.497-1-4.497-1s1 3 4.5 3c3.5 0 4.5-3 4.5-3s-1.506 1-4.503 1v0z"></path>
</symbol>
<symbol id="icon-icon-50-face-closed-eyes-open-mouth" viewBox="0 0 32 32">
<title>icon-50-face-closed-eyes-open-mouth</title>
<path fill="#929292" style="fill: var(--color2, #929292)" d="M16.5 29v0c-6.904 0-12.5-5.596-12.5-12.5s5.596-12.5 12.5-12.5c6.904 0 12.5 5.596 12.5 12.5s-5.596 12.5-12.5 12.5zM16.5 28c6.351 0 11.5-5.149 11.5-11.5s-5.149-11.5-11.5-11.5c-6.351 0-11.5 5.149-11.5 11.5s5.149 11.5 11.5 11.5v0zM10.622 10.967l3.316 2.237-0.559 0.829-3.316-2.237 0.559-0.829zM19.062 13.204l3.316-2.237 0.559 0.829-3.316 2.237-0.559-0.829zM16.5 24v0c-1.381 0-2.5-1.119-2.5-2.5s1.119-2.5 2.5-2.5c1.381 0 2.5 1.119 2.5 2.5s-1.119 2.5-2.5 2.5zM16.5 23c0.828 0 1.5-0.672 1.5-1.5s-0.672-1.5-1.5-1.5c-0.828 0-1.5 0.672-1.5 1.5s0.672 1.5 1.5 1.5v0z"></path>
</symbol>
<symbol id="icon-icon-53-grinning-face" viewBox="0 0 32 32">
<title>icon-53-grinning-face</title>
<path fill="#929292" style="fill: var(--color2, #929292)" d="M16.5 29v0c-6.904 0-12.5-5.596-12.5-12.5s5.596-12.5 12.5-12.5c6.904 0 12.5 5.596 12.5 12.5s-5.596 12.5-12.5 12.5zM16.5 28c6.351 0 11.5-5.149 11.5-11.5s-5.149-11.5-11.5-11.5c-6.351 0-11.5 5.149-11.5 11.5s5.149 11.5 11.5 11.5v0zM16.497 21c-2.997 0-4.497-1-4.497-1s1 3 4.5 3c3.5 0 4.5-3 4.5-3s-1.506 1-4.503 1v0zM18.672 13.793l2.828-2.828 2.828 2.828-0.707 0.707-2.121-2.121-2.121 2.121-0.707-0.707zM8.672 13.793l2.828-2.828 2.828 2.828-0.707 0.707-2.121-2.121-2.121 2.121-0.707-0.707z"></path>
</symbol>
<symbol id="icon-icon-54-sad-face" viewBox="0 0 32 32">
<title>icon-54-sad-face</title>
<path fill="#929292" style="fill: var(--color2, #929292)" d="M16.5 29v0c-6.904 0-12.5-5.596-12.5-12.5s5.596-12.5 12.5-12.5c6.904 0 12.5 5.596 12.5 12.5s-5.596 12.5-12.5 12.5zM16.5 28c6.351 0 11.5-5.149 11.5-11.5s-5.149-11.5-11.5-11.5c-6.351 0-11.5 5.149-11.5 11.5s5.149 11.5 11.5 11.5v0zM10.622 10.967l-0.559 0.829 3.316 2.237 0.559-0.829-3.316-2.237zM19.062 13.204l0.559 0.829 3.316-2.237-0.559-0.829-3.316 2.237zM16.497 22c-2.997 0-4.497 1-4.497 1s1-3 4.5-3c3.5 0 4.5 3 4.5 3s-1.506-1-4.503-1v0z"></path>
</symbol>
<symbol id="icon-icon-56-sad-face-closed-eyes" viewBox="0 0 32 32">
<title>icon-56-sad-face-closed-eyes</title>
<path fill="#929292" style="fill: var(--color2, #929292)" d="M16.5 29v0c-6.904 0-12.5-5.596-12.5-12.5s5.596-12.5 12.5-12.5c6.904 0 12.5 5.596 12.5 12.5s-5.596 12.5-12.5 12.5zM16.5 28c6.351 0 11.5-5.149 11.5-11.5s-5.149-11.5-11.5-11.5c-6.351 0-11.5 5.149-11.5 11.5s5.149 11.5 11.5 11.5v0zM10 13v1h4v-1h-4zM19 13v1h4v-1h-4zM16.497 22c-2.997 0-4.497 1-4.497 1s1-3 4.5-3c3.5 0 4.5 3 4.5 3s-1.506-1-4.503-1v0z"></path>
</symbol>
<symbol id="icon-icon-58-smiling-face" viewBox="0 0 32 32">
<title>icon-58-smiling-face</title>
<path fill="#929292" style="fill: var(--color2, #929292)" d="M16.5 29v0c-6.904 0-12.5-5.596-12.5-12.5s5.596-12.5 12.5-12.5c6.904 0 12.5 5.596 12.5 12.5s-5.596 12.5-12.5 12.5zM16.5 28c6.351 0 11.5-5.149 11.5-11.5s-5.149-11.5-11.5-11.5c-6.351 0-11.5 5.149-11.5 11.5s5.149 11.5 11.5 11.5v0zM19.622 10.967l-0.559 0.829 3.316 2.237 0.559-0.829-3.316-2.237zM10.062 13.204l0.559 0.829 3.316-2.237-0.559-0.829-3.316 2.237zM16.481 22c-3.481 0-5.481-2-5.481-2v1c0 0 2 2 5.481 2s5.519-2 5.519-2v-1c0 0-2.037 2-5.519 2v0z"></path>
</symbol>
<symbol id="icon-icon-60-astonished-face" viewBox="0 0 32 32">
<title>icon-60-astonished-face</title>
<path fill="#929292" style="fill: var(--color2, #929292)" d="M20.106 12.5l-1.044 0.704 0.559 0.829 1.378-0.93 1.378 0.93 0.559-0.829-1.044-0.704 1.044-0.704-0.559-0.829-1.378 0.93-1.378-0.93-0.559 0.829 1.044 0.704zM11.106 12.5l-1.044 0.704 0.559 0.829 1.378-0.93 1.378 0.93 0.559-0.829-1.044-0.704 1.044-0.704-0.559-0.829-1.378 0.93-1.378-0.93-0.559 0.829 1.044 0.704zM16.5 29v0c-6.904 0-12.5-5.596-12.5-12.5s5.596-12.5 12.5-12.5c6.904 0 12.5 5.596 12.5 12.5s-5.596 12.5-12.5 12.5zM16.5 28c6.351 0 11.5-5.149 11.5-11.5s-5.149-11.5-11.5-11.5c-6.351 0-11.5 5.149-11.5 11.5s5.149 11.5 11.5 11.5v0zM16.5 24v0c-2.485 0-4.5-1.119-4.5-2.5s2.015-2.5 4.5-2.5c2.485 0 4.5 1.119 4.5 2.5s-2.015 2.5-4.5 2.5zM16.5 23c1.933 0 3.5-0.672 3.5-1.5s-1.567-1.5-3.5-1.5c-1.933 0-3.5 0.672-3.5 1.5s1.567 1.5 3.5 1.5v0z"></path>
</symbol>
<symbol id="icon-icon-61-face-moustache" viewBox="0 0 32 32">
<title>icon-61-face-moustache</title>
<path fill="#929292" style="fill: var(--color2, #929292)" d="M16.5 20.758v0c-0.434 0.777-1.369 2.024-3.305 2.115-2.695 0.127-5.159-2.373-5.159-3.313 1.038 1.135 2.773 1.237 3.738 0.771 1.421-0.686 1.174-2.044 2.21-2.933 0.589-0.505 1.425-0.535 2.14 0 0.129 0.096 0.258 0.22 0.376 0.369 0.118-0.149 0.247-0.272 0.376-0.369 0.716-0.535 1.552-0.505 2.14 0 1.036 0.889 0.789 2.247 2.21 2.933 0.965 0.466 2.7 0.364 3.738-0.771 0 0.94-2.464 3.44-5.159 3.313-1.936-0.091-2.871-1.338-3.305-2.115zM16.5 29v0c-6.904 0-12.5-5.596-12.5-12.5s5.596-12.5 12.5-12.5c6.904 0 12.5 5.596 12.5 12.5s-5.596 12.5-12.5 12.5zM16.5 28c6.351 0 11.5-5.149 11.5-11.5s-5.149-11.5-11.5-11.5c-6.351 0-11.5 5.149-11.5 11.5s5.149 11.5 11.5 11.5v0zM12 16v0c-1.657 0-3-1.343-3-3s1.343-3 3-3c1.657 0 3 1.343 3 3s-1.343 3-3 3zM12 15c1.105 0 2-0.895 2-2s-0.895-2-2-2c-1.105 0-2 0.895-2 2s0.895 2 2 2v0zM12 14c0.552 0 1-0.448 1-1s-0.448-1-1-1c-0.552 0-1 0.448-1 1s0.448 1 1 1v0zM21 14c0.552 0 1-0.448 1-1s-0.448-1-1-1c-0.552 0-1 0.448-1 1s0.448 1 1 1v0z"></path>
</symbol>
<symbol id="icon-icon-62-face-moustache" viewBox="0 0 32 32">
<title>icon-62-face-moustache</title>
<path fill="#929292" style="fill: var(--color2, #929292)" d="M16.5 20.758v0c-0.434 0.777-1.369 2.024-3.305 2.115-2.695 0.127-5.159-2.373-5.159-3.313 1.038 1.135 2.773 1.237 3.738 0.771 1.421-0.686 1.174-2.044 2.21-2.933 0.589-0.505 1.425-0.535 2.14 0 0.129 0.096 0.258 0.22 0.376 0.369 0.118-0.149 0.247-0.272 0.376-0.369 0.716-0.535 1.552-0.505 2.14 0 1.036 0.889 0.789 2.247 2.21 2.933 0.965 0.466 2.7 0.364 3.738-0.771 0 0.94-2.464 3.44-5.159 3.313-1.936-0.091-2.871-1.338-3.305-2.115zM16.5 29v0c-6.904 0-12.5-5.596-12.5-12.5s5.596-12.5 12.5-12.5c6.904 0 12.5 5.596 12.5 12.5s-5.596 12.5-12.5 12.5zM16.5 28c6.351 0 11.5-5.149 11.5-11.5s-5.149-11.5-11.5-11.5c-6.351 0-11.5 5.149-11.5 11.5s5.149 11.5 11.5 11.5v0zM12 14c0.552 0 1-0.448 1-1s-0.448-1-1-1c-0.552 0-1 0.448-1 1s0.448 1 1 1v0zM21 14c0.552 0 1-0.448 1-1s-0.448-1-1-1c-0.552 0-1 0.448-1 1s0.448 1 1 1v0z"></path>
</symbol>
<symbol id="icon-icon-63-face-glasses" viewBox="0 0 32 32">
<title>icon-63-face-glasses</title>
<path fill="#929292" style="fill: var(--color2, #929292)" d="M26.11 10.181v0 0c-2.442-0.275-6.483-0.245-9.42 0.491-0.064 0.013-0.127 0.025-0.19 0.035-0.063-0.010-0.126-0.021-0.19-0.035-2.937-0.736-6.978-0.765-9.42-0.491v0c2.056-3.121 5.593-5.181 9.61-5.181s7.554 2.060 9.61 5.181zM26.856 11.494c0.733 1.513 1.144 3.212 1.144 5.006 0 6.351-5.149 11.5-11.5 11.5s-11.5-5.149-11.5-11.5c0-1.794 0.411-3.493 1.144-5.006 0.015 0.014 0.031 0.023 0.049 0.026 0.459 0.169 0.655 0.59 0.655 0.59s0.137 0.374 0.535 1.894c0.398 1.52 1.347 1.702 1.347 1.702s1.162 0.261 2.502 0.261c1.34 0 2.142-0.055 3-0.446s1.233-1.477 1.233-1.477c0 0 0.432-0.937 0.73-1.82 0.045-0.134 0.163-0.225 0.304-0.284 0.14 0.058 0.259 0.15 0.304 0.284 0.298 0.884 0.73 1.82 0.73 1.82s0.375 1.087 1.233 1.477c0.858 0.39 1.66 0.446 3 0.446s2.502-0.261 2.502-0.261c0 0 0.949-0.182 1.347-1.702s0.535-1.894 0.535-1.894c0 0 0.196-0.421 0.655-0.59 0.018-0.003 0.034-0.012 0.049-0.026v0 0zM16.5 29c6.904 0 12.5-5.596 12.5-12.5s-5.596-12.5-12.5-12.5c-6.904 0-12.5 5.596-12.5 12.5s5.596 12.5 12.5 12.5v0zM16.481 22v0c3.481 0 5.519-2 5.519-2v1c0 0-2.037 2-5.519 2s-5.481-2-5.481-2v-1c0 0 2 2 5.481 2zM8.44 11.317v0c0.494-0.32 2.314-0.328 2.954-0.313s1.813 0.109 2.952 0.454c1.139 0.345 0.464 1.518 0.375 1.771-0.128 0.366-0.531 1.018-0.952 1.287s-1.348 0.484-2.511 0.484c-0.676 0-1.224-0.029-1.765-0.139s-0.809-0.208-1.126-0.83c-0.137-0.269-0.254-0.71-0.302-1.030s-0.236-1.288 0.375-1.684zM24.56 11.317c0.611 0.395 0.423 1.363 0.375 1.684s-0.164 0.761-0.302 1.030c-0.318 0.622-0.586 0.72-1.126 0.83s-1.089 0.139-1.765 0.139c-1.164 0-2.090-0.215-2.511-0.484s-0.824-0.921-0.952-1.287c-0.088-0.252-0.764-1.426 0.375-1.771s2.312-0.438 2.952-0.454c0.64-0.016 2.459-0.007 2.954 0.313v0zM12 14c0.552 0 1-0.448 1-1s-0.448-1-1-1c-0.552 0-1 0.448-1 1s0.448 1 1 1v0zM21 14c0.552 0 1-0.448 1-1s-0.448-1-1-1c-0.552 0-1 0.448-1 1s0.448 1 1 1v0z"></path>
</symbol>
<symbol id="icon-icon-64-face-sunglasses" viewBox="0 0 32 32">
<title>icon-64-face-sunglasses</title>
<path fill="#929292" style="fill: var(--color2, #929292)" d="M26.11 10.181v0c-2.442-0.275-6.483-0.245-9.42 0.491-0.064 0.013-0.127 0.025-0.19 0.035-0.063-0.010-0.126-0.021-0.19-0.035-2.937-0.736-6.978-0.765-9.42-0.491v0c2.056-3.121 5.593-5.181 9.61-5.181s7.554 2.060 9.61 5.181zM26.856 11.494c0.733 1.513 1.144 3.212 1.144 5.006 0 6.351-5.149 11.5-11.5 11.5s-11.5-5.149-11.5-11.5c0-1.794 0.411-3.493 1.144-5.006 0.015 0.014 0.031 0.023 0.049 0.026 0.459 0.169 0.655 0.59 0.655 0.59s0.137 0.374 0.535 1.894c0.398 1.52 1.347 1.702 1.347 1.702s1.162 0.261 2.502 0.261c1.34 0 2.142-0.055 3-0.446s1.233-1.477 1.233-1.477c0 0 0.432-0.937 0.73-1.82 0.045-0.134 0.163-0.225 0.304-0.284 0.14 0.058 0.259 0.15 0.304 0.284 0.298 0.884 0.73 1.82 0.73 1.82s0.375 1.087 1.233 1.477c0.858 0.39 1.66 0.446 3 0.446s2.502-0.261 2.502-0.261c0 0 0.949-0.182 1.347-1.702s0.535-1.894 0.535-1.894c0 0 0.196-0.421 0.655-0.59 0.018-0.003 0.034-0.012 0.049-0.026v0zM16.5 29c6.904 0 12.5-5.596 12.5-12.5s-5.596-12.5-12.5-12.5c-6.904 0-12.5 5.596-12.5 12.5s5.596 12.5 12.5 12.5v0zM16.481 22c-3.481 0-5.481-2-5.481-2v1c0 0 2 2 5.481 2s5.519-2 5.519-2v-1c0 0-2.037 2-5.519 2v0z"></path>
</symbol>
<symbol id="icon-iconfinder_Muslim_Mosque-13_2044984" viewBox="0 0 32 32">
<title>iconfinder_Muslim_Mosque-13_2044984</title>
<path fill="none" stroke="#000" style="stroke: var(--color3, #000)" stroke-linejoin="round" stroke-linecap="round" stroke-miterlimit="10" stroke-width="0.5" d="M15.075 16.512c0.019-1.494-2.594-1.719-3.406-0.044-0.438 0.9 0.45 1.969 0.819 3.063 0.675 1.988 1.244 3.181 2.481 2.675 1.119-0.456 0.356-1.956 0.012-2.913-0.269-0.744 0.081-1.9 0.094-2.781z"></path>
<path d="M14.599 13.305c0.314 0.001 0.567 0.347 0.566 0.771s-0.258 0.768-0.572 0.766c-0.314-0.001-0.567-0.347-0.566-0.771s0.258-0.768 0.572-0.766z"></path>
<path d="M13.78 14.117c0.024 0.313-0.146 0.582-0.38 0.6s-0.443-0.221-0.468-0.534c-0.024-0.313 0.146-0.582 0.38-0.6s0.443 0.221 0.468 0.534z"></path>
<path d="M12.724 14.34c0.086 0.251 0.005 0.507-0.181 0.571s-0.407-0.088-0.493-0.339c-0.086-0.251-0.005-0.507 0.181-0.571s0.407 0.088 0.493 0.339z"></path>
<path d="M11.914 14.823c0.133 0.198 0.122 0.438-0.025 0.536s-0.372 0.017-0.505-0.181c-0.133-0.198-0.122-0.438 0.025-0.536s0.372-0.017 0.505 0.181z"></path>
<path d="M11.246 15.465c0.148 0.129 0.189 0.325 0.092 0.437s-0.297 0.098-0.445-0.032c-0.148-0.129-0.189-0.325-0.092-0.437s0.297-0.098 0.445 0.032z"></path>
<path fill="none" stroke="#000" style="stroke: var(--color3, #000)" stroke-linejoin="round" stroke-linecap="round" stroke-miterlimit="10" stroke-width="0.5" d="M16.95 12.894c-0.050-1.494 2.556-1.775 3.406-0.119 0.456 0.887-0.406 1.981-0.756 3.081-0.631 2-1.175 3.212-2.419 2.731-1.125-0.431-0.4-1.95-0.081-2.912 0.25-0.75-0.119-1.9-0.15-2.781z"></path>
<path d="M17.944 10.429c0.011 0.424-0.235 0.775-0.549 0.783s-0.578-0.329-0.589-0.754c-0.011-0.424 0.235-0.775 0.549-0.783s0.578 0.329 0.589 0.754z"></path>
<path d="M18.651 9.925c0.234 0.013 0.41 0.278 0.393 0.592s-0.222 0.557-0.456 0.544c-0.234-0.013-0.41-0.278-0.393-0.592s0.222-0.557 0.456-0.544z"></path>
<path d="M19.738 10.323c0.187 0.060 0.274 0.314 0.193 0.567s-0.298 0.41-0.486 0.35c-0.187-0.060-0.274-0.314-0.193-0.567s0.298-0.41 0.486-0.35z"></path>
<path d="M20.569 10.943c0.148 0.095 0.165 0.334 0.036 0.535s-0.352 0.287-0.501 0.192c-0.148-0.095-0.165-0.334-0.036-0.535s0.352-0.287 0.501-0.192z"></path>
<path d="M21.202 11.72c0.1 0.11 0.063 0.306-0.082 0.439s-0.344 0.151-0.444 0.042c-0.1-0.11-0.063-0.306 0.082-0.439s0.344-0.151 0.444-0.042z"></path>
</symbol>
<symbol id="icon-linkedin" viewBox="0 0 32 32">
<title>linkedin</title>
<path d="M7.68 12.16h-4.416c-0.832 0-1.536 0.672-1.536 1.536v14.944c0 0.832 0.672 1.536 1.536 1.536h4.416c0.832 0 1.536-0.672 1.536-1.536v-14.944c0-0.832-0.704-1.536-1.536-1.536zM7.456 28.416h-3.936v-14.496h3.936v14.496z"></path>
<path d="M25.504 12.224c-1.344-0.16-2.848 0.064-4.192 0.672-0.608 0.288-1.216 0.64-1.792 1.056v-0.288c0-0.832-0.672-1.536-1.536-1.536h-4.416c-0.832 0-1.536 0.672-1.536 1.536v14.944c0 0.832 0.672 1.536 1.536 1.536h4.416c0.832 0 1.536-0.672 1.536-1.536v-6.112c0-0.992 0.8-1.792 1.792-1.792s1.792 0.8 1.792 1.792v6.144c0 0.832 0.672 1.536 1.536 1.536h4.416c0.832 0 1.536-0.672 1.536-1.536v-10.752c-0.064-2.848-2.272-5.312-5.088-5.664zM28.768 28.416h-3.936v-5.952c0-1.952-1.6-3.552-3.552-3.552s-3.552 1.6-3.552 3.552v5.92h-3.904v-14.464h3.936v0.992c0 0.48 0.288 0.928 0.736 1.152s0.96 0.16 1.344-0.16c0.192-0.16 0.384-0.288 0.512-0.384 0.064-0.064 0.128-0.096 0.16-0.128 0.48-0.384 0.992-0.672 1.536-0.928 1.088-0.48 2.24-0.672 3.264-0.544 1.952 0.224 3.456 1.952 3.456 3.936v10.56z"></path>
<path d="M5.472 1.856c-2.208 0-4 1.792-4 4s1.792 4 4 4c2.208 0 4-1.792 4-4s-1.76-4-4-4zM5.472 8.096c-1.248 0-2.24-1.024-2.24-2.24s1.024-2.24 2.24-2.24c1.248 0 2.24 1.024 2.24 2.24s-0.992 2.24-2.24 2.24z"></path>
</symbol>
<symbol id="icon-linkedin2" viewBox="0 0 32 32">
<title>linkedin2</title>
<path d="M12 12h5.535v2.837h0.079c0.77-1.381 2.655-2.837 5.464-2.837 5.842 0 6.922 3.637 6.922 8.367v9.633h-5.769v-8.54c0-2.037-0.042-4.657-3.001-4.657-3.005 0-3.463 2.218-3.463 4.509v8.688h-5.767v-18z"></path>
<path d="M2 12h6v18h-6v-18z"></path>
<path d="M8 7c0 1.657-1.343 3-3 3s-3-1.343-3-3c0-1.657 1.343-3 3-3s3 1.343 3 3z"></path>
</symbol>
<symbol id="icon-python" viewBox="0 0 32 32">
<title>python</title>
<path d="M12.332 15.5h7.29c2.029 0 3.628-1.717 3.628-3.755v-6.949c0-1.978-1.658-3.464-3.639-3.794-1.253-0.209-2.549-0.304-3.797-0.298s-2.403 0.112-3.451 0.298c-3.089 0.545-3.613 1.688-3.613 3.794v2.704h7.25v1h-10.056c-2.121 0-3.978 1.277-4.559 3.703-0.67 2.78-0.7 4.48 0 7.383 0.519 2.16 1.758 3.665 3.879 3.665h2.487v-3.262c0-2.409 2.107-4.488 4.582-4.488zM11.873 5.723c-0.757 0-1.37-0.62-1.37-1.386 0-0.77 0.613-1.395 1.37-1.395 0.754 0 1.37 0.625 1.37 1.395-0 0.766-0.616 1.386-1.37 1.386zM30.57 12.203c-0.524-2.112-1.526-3.703-3.65-3.703h-2.671v3.245c0 2.513-2.198 4.505-4.628 4.505h-7.29c-1.997 0-3.582 1.831-3.582 3.831v6.95c0 1.977 1.686 3.141 3.615 3.709 2.311 0.679 4.498 0.802 7.263 0 1.837-0.532 3.622-1.603 3.622-3.709v-2.782h-7.25v-1h10.921c2.121 0 2.912-1.444 3.65-3.665 0.762-2.286 0.729-4.45 0-7.382zM20.081 26.104c0.757 0 1.37 0.62 1.37 1.387 0 0.769-0.613 1.395-1.37 1.395-0.754 0-1.369-0.625-1.369-1.395 0-0.767 0.616-1.387 1.369-1.387z"></path>
</symbol>
<symbol id="icon-study" viewBox="0 0 32 32">
<title>study</title>
<path d="M32 8c0-1.406-0.957-2.608-2.326-2.924l-13.013-3.003c-0.218-0.049-0.44-0.073-0.661-0.073s-0.443 0.024-0.675 0.076l-12.999 3c-1.37 0.316-2.326 1.518-2.326 2.924s0.957 2.608 2.325 2.924l2.675 0.617v8.459c0 2.654 3.038 5 11 5s11-2.346 11-5v-8.459l2.674-0.617c1.369-0.316 2.326-1.518 2.326-2.924zM25 20c0 1.105-3 3-9 3s-9-1.895-9-3v-7.997l8.338 1.924c0.218 0.049 0.441 0.073 0.662 0.073s0.444-0.024 0.674-0.076l8.326-1.921v7.997zM16.225 11.975c-0.075 0.016-0.15 0.025-0.225 0.025s-0.151-0.009-0.225-0.025l-13-3c-0.454-0.105-0.775-0.509-0.775-0.975s0.321-0.87 0.775-0.975l13-3c0.074-0.016 0.149-0.025 0.225-0.025s0.151 0.009 0.225 0.025l13 3c0.453 0.105 0.775 0.509 0.775 0.975s-0.322 0.87-0.775 0.975l-13 3zM29 13c0-0.553 0.447-1 1-1 0.552 0 1 0.447 1 1v9c0 0.553-0.448 1-1 1-0.553 0-1-0.447-1-1v-9zM30 24c1.104 0 2 2.896 2 4s-0.896 2-2 2c-1.105 0-2-0.896-2-2s0.895-4 2-4z"></path>
</symbol>
<symbol id="icon-target-arrow" viewBox="0 0 32 32">
<title>target-arrow</title>
<path d="M9 23.771l-1 1v3.229h-1v-2.229l-1.293 1.293-0.707-0.707 1.357-1.357h-2.357v-1h3.357l1-1h-2.357v-1h3.357l5.322-5.322-0.678-0.678 3-1-1 3-0.614-0.614-5.386 5.386v3.229h-1v-2.229zM7.779 21c-1.125-1.726-1.779-3.786-1.779-6 0-6.075 4.925-11 11-11s11 4.925 11 11c0 6.075-4.925 11-11 11-2.214 0-4.274-0.654-6-1.779v-1.072l0.085-0.085c1.656 1.217 3.702 1.936 5.915 1.936 5.523 0 10-4.477 10-10s-4.477-10-10-10c-5.523 0-10 4.477-10 10 0 2.227 0.728 4.285 1.96 5.947l-0.053 0.053h-1.128zM14.003 15.142c-0.002-0.047-0.003-0.094-0.003-0.142 0-1.657 1.343-3 3-3s3 1.343 3 3c0 1.657-1.343 3-3 3-0.048 0-0.095-0.001-0.142-0.003l0.282-0.988 0.015-0.015c1.032-0.079 1.845-0.942 1.845-1.994 0-1.105-0.895-2-2-2-1.056 0-1.921 0.818-1.995 1.856l-1.002 0.286zM11.115 18.792c-0.705-1.093-1.115-2.394-1.115-3.792 0-3.866 3.134-7 7-7s7 3.134 7 7c0 3.866-3.134 7-7 7-1.383 0-2.672-0.401-3.758-1.093l0.727-0.727c0.889 0.521 1.925 0.82 3.030 0.82 3.314 0 6-2.686 6-6s-2.686-6-6-6c-3.314 0-6 2.686-6 6 0 1.12 0.307 2.168 0.841 3.065l-0.726 0.726z"></path>
</symbol>
<symbol id="icon-twitter-filled" viewBox="0 0 32 32">
<title>twitter-filled</title>
<path d="M27.648 7.968l1.824-2.304c0.544-0.608 0.704-1.056 0.768-1.344-1.408 0.896-2.752 1.152-3.712 1.184h-0.384l-0.224-0.256c-1.152-1.024-2.592-1.6-4.16-1.6-3.36 0-6.080 2.752-6.080 6.080 0 0.256 0 0.48 0.032 0.704l0.16 0.992-1.024-0.032c-6.24-0.16-11.264-5.44-12.128-6.4-1.344 2.496-0.608 4.768 0.256 6.208l1.632 2.72-2.592-1.408c0.032 2.016 0.832 3.616 2.304 4.768l1.248 0.96-1.312 0.544c0.832 2.496 2.624 3.488 4.032 3.872l1.76 0.48-1.536 1.056c-2.688 1.888-6.112 1.76-7.52 1.632 3.072 2.112 6.656 2.56 9.216 2.56 1.888 0 3.264-0.256 3.616-0.32 13.568-3.2 14.176-15.296 14.144-17.728v-0.384l0.288-0.256c1.632-1.536 2.336-2.4 2.72-2.848-0.16 0.096-0.32 0.128-0.544 0.192l-2.784 0.928z"></path>
</symbol>
<symbol id="icon-z-c" viewBox="0 0 32 32">
<title>z-c</title>
<path fill="#659ad3" style="fill: var(--color4, #659ad3)" d="M28.85 7.675l-12.075-6.95c-0.2-0.125-0.475-0.175-0.775-0.175s-0.575 0.075-0.775 0.175l-12 6.975c-0.425 0.25-0.725 0.875-0.725 1.35v13.925c0 0.275 0.050 0.6 0.25 0.875l26.7-15.5c-0.15-0.3-0.375-0.525-0.6-0.675z"></path>
<path fill="#03599c" style="fill: var(--color5, #03599c)" d="M2.675 23.825c0.125 0.2 0.3 0.375 0.475 0.475l12.050 6.975c0.2 0.125 0.475 0.175 0.775 0.175s0.575-0.075 0.775-0.175l12-6.975c0.425-0.25 0.725-0.875 0.725-1.35v-13.925c0-0.225-0.025-0.475-0.15-0.7l-26.65 15.5z"></path>
<path fill="#fff" style="fill: var(--color6, #fff)" d="M21.325 19.025c-1.050 1.85-3.050 3.1-5.325 3.1-3.375 0-6.125-2.75-6.125-6.125s2.75-6.125 6.125-6.125c2.275 0 4.275 1.25 5.325 3.125l3.25-1.875c-1.7-2.975-4.9-5-8.575-5-5.45 0-9.875 4.425-9.875 9.875s4.425 9.875 9.875 9.875c3.65 0 6.85-2 8.55-4.95l-3.225-1.9z"></path>
</symbol>
<symbol id="icon-z-css" viewBox="0 0 32 32">
<title>z-css</title>
<path fill="#1572b6" style="fill: var(--color7, #1572b6)" d="M4.704 28.531l-2.514-28.193h27.62l-2.516 28.189-11.311 3.136-11.28-3.131z"></path>
<path fill="#33a9dc" style="fill: var(--color8, #33a9dc)" d="M16 29.265l9.14-2.534 2.15-24.088h-11.29v26.622z"></path>
<path fill="#fff" style="fill: var(--color6, #fff)" d="M16 12.857h4.575l0.316-3.541h-4.892v-3.458h8.671l-0.083 0.928-0.85 9.529h-7.738v-3.458z"></path>
<path fill="#ebebeb" style="fill: var(--color9, #ebebeb)" d="M16.021 21.837l-0.015 0.005-3.851-1.040-0.246-2.758h-3.47l0.484 5.429 7.083 1.966 0.016-0.005v-3.598z"></path>
<path fill="#fff" style="fill: var(--color6, #fff)" d="M20.282 16.169l-0.416 4.631-3.857 1.041v3.598l7.088-1.965 0.052-0.584 0.602-6.72h-3.469z"></path>
<path fill="#ebebeb" style="fill: var(--color9, #ebebeb)" d="M16.012 5.859v3.458h-8.352l-0.069-0.777-0.157-1.753-0.083-0.928h8.662zM16 12.858v3.458h-3.802l-0.069-0.777-0.158-1.753-0.082-0.928h4.112z"></path>
</symbol>
<symbol id="icon-z-django" viewBox="0 0 32 32">
<title>z-django</title>
<path fill="#003a2b" style="fill: var(--color10, #003a2b)" d="M31.625 20.95c0 0.95-0.775 1.725-1.725 1.725h-27.8c-0.95 0-1.725-0.775-1.725-1.725v-9.9c0-0.95 0.775-1.725 1.725-1.725h27.8c0.95 0 1.725 0.775 1.725 1.725v9.9z"></path>
<path fill="#fff" style="fill: var(--color6, #fff)" d="M5.75 11.4h1.5v6.85c-0.75 0.15-1.325 0.2-1.925 0.2-1.8 0-2.75-0.825-2.75-2.375 0-1.5 1-2.5 2.55-2.5 0.25 0 0.425 0.025 0.65 0.075v-2.25h-0.025zM5.75 14.85c-0.175-0.050-0.325-0.075-0.5-0.075-0.75 0-1.175 0.45-1.175 1.275 0 0.8 0.425 1.225 1.175 1.225 0.175 0 0.3 0 0.5-0.050v-2.375zM9.6 13.7v3.425c0 1.175-0.075 1.75-0.35 2.25-0.25 0.475-0.55 0.775-1.2 1.1l-1.375-0.65c0.65-0.3 0.975-0.575 1.175-1s0.275-0.925 0.275-2.2v-2.925h1.475zM8.125 11.425h1.475v1.525h-1.475v-1.525zM10.5 14.025c0.65-0.3 1.275-0.45 1.95-0.45 0.75 0 1.25 0.2 1.475 0.6 0.125 0.225 0.175 0.5 0.175 1.125v3c-0.675 0.1-1.5 0.175-2.125 0.175-1.25 0-1.8-0.425-1.8-1.4 0-1.050 0.75-1.525 2.55-1.675v-0.325c0-0.275-0.125-0.375-0.5-0.375-0.55 0-1.175 0.15-1.75 0.45v-1.125h0.025zM12.8 16.375c-0.975 0.1-1.3 0.25-1.3 0.625 0 0.3 0.175 0.425 0.575 0.425 0.225 0 0.425-0.025 0.7-0.075v-0.975h0.025zM14.825 13.925c0.875-0.225 1.6-0.325 2.325-0.325 0.75 0 1.3 0.175 1.625 0.5 0.3 0.325 0.4 0.675 0.4 1.4v2.9h-1.475v-2.85c0-0.575-0.2-0.775-0.725-0.775-0.2 0-0.375 0.025-0.675 0.1v3.525h-1.475v-4.475zM19.75 19.2c0.525 0.275 1.050 0.4 1.575 0.4 0.975 0 1.375-0.4 1.375-1.325v-0.025c-0.3 0.15-0.575 0.2-0.95 0.2-1.3 0-2.125-0.85-2.125-2.2 0-1.675 1.225-2.625 3.375-2.625 0.625 0 1.225 0.075 1.925 0.2l-0.5 1.075c-0.4-0.075-0.025 0-0.325-0.050v0.15l0.025 0.625v0.8c0 0.2 0 0.4 0.025 0.6v0.4c0 1.275-0.1 1.875-0.425 2.35-0.45 0.725-1.25 1.075-2.4 1.075-0.575 0-1.075-0.075-1.6-0.3v-1.35h0.025zM22.7 14.8h-0.15c-0.3 0-0.625 0.075-0.85 0.2-0.35 0.2-0.55 0.575-0.55 1.075 0 0.75 0.375 1.175 1.025 1.175 0.2 0 0.375-0.050 0.55-0.1v-2.35h-0.025zM27.25 13.575c1.475 0 2.375 0.925 2.375 2.45 0 1.55-0.95 2.525-2.45 2.525-1.475 0-2.4-0.925-2.4-2.425 0.025-1.575 0.975-2.55 2.475-2.55zM27.225 17.325c0.575 0 0.9-0.475 0.9-1.3 0-0.8-0.325-1.3-0.9-1.3s-0.925 0.475-0.925 1.3c0.025 0.85 0.35 1.3 0.925 1.3z"></path>
</symbol>
<symbol id="icon-z-docker" viewBox="0 0 32 32">
<title>z-docker</title>
<path fill="#3a4d54" style="fill: var(--color11, #3a4d54)" d="M18.45 12.7h2.825v2.875h1.425c0.65 0 1.325-0.125 1.95-0.325 0.3-0.1 0.65-0.25 0.95-0.425-0.4-0.525-0.6-1.175-0.65-1.825-0.075-0.875 0.1-2.025 0.7-2.7l0.3-0.35 0.35 0.275c0.9 0.725 1.625 1.7 1.775 2.85 1.075-0.325 2.325-0.25 3.275 0.3l0.375 0.225-0.2 0.4c-0.8 1.55-2.475 2.050-4.1 1.95-2.45 6.075-7.75 8.95-14.2 8.95-3.325 0-6.375-1.25-8.125-4.2l-0.025-0.050-0.25-0.525c-0.6-1.3-0.775-2.725-0.65-4.15l0.050-0.425h2.4v-2.85h2.825v-2.8h5.625v-2.825h3.375v5.625z"></path>
<path fill="#00aada" style="fill: var(--color12, #00aada)" d="M27.6 13.775c0.2-1.475-0.9-2.625-1.6-3.175-0.775 0.9-0.9 3.3 0.325 4.3-0.7 0.6-2.125 1.175-3.625 1.175h-18.050c-0.15 1.55 0.125 2.975 0.75 4.2l0.2 0.375c0.125 0.225 0.275 0.425 0.425 0.65 0.75 0.050 1.425 0.075 2.050 0.050 1.225-0.025 2.225-0.175 3-0.425 0.125-0.050 0.225 0.025 0.275 0.125 0.050 0.125-0.025 0.225-0.125 0.275-0.1 0.025-0.2 0.075-0.325 0.1-0.6 0.175-1.25 0.275-2.075 0.325h-0.15c-0.325 0.025-0.675 0.025-1.050 0.025-0.4 0-0.775 0-1.225-0.025 1.5 1.7 3.85 2.7 6.8 2.7 6.25 0 11.55-2.775 13.875-8.975 1.675 0.175 3.275-0.25 4-1.675-1.125-0.675-2.625-0.45-3.475-0.025z"></path>
<path fill="#28b8eb" style="fill: var(--color13, #28b8eb)" d="M27.6 13.775c0.2-1.475-0.9-2.625-1.6-3.175-0.775 0.9-0.9 3.3 0.325 4.3-0.7 0.6-2.125 1.175-3.625 1.175h-17c-0.075 2.375 0.8 4.175 2.375 5.25 1.225-0.025 2.225-0.175 3-0.425 0.125-0.050 0.225 0.025 0.275 0.125 0.050 0.125-0.025 0.225-0.125 0.275-0.1 0.025-0.2 0.075-0.325 0.1-0.6 0.175-1.3 0.3-2.125 0.35l-0.025-0.025c2.125 1.1 5.2 1.075 8.75-0.275 3.95-1.525 7.65-4.425 10.225-7.725-0.050 0.025-0.1 0.025-0.125 0.050z"></path>
<path fill="#028bb8" style="fill: var(--color14, #028bb8)" d="M4.675 17.95c0.1 0.825 0.35 1.6 0.725 2.325l0.2 0.375c0.125 0.225 0.275 0.425 0.425 0.65 0.75 0.050 1.425 0.075 2.050 0.050 1.225-0.025 2.225-0.175 3-0.425 0.125-0.050 0.225 0.025 0.275 0.125 0.050 0.125-0.025 0.225-0.125 0.275-0.1 0.025-0.2 0.075-0.325 0.1-0.6 0.175-1.3 0.3-2.125 0.35h-0.1c-0.325 0.025-0.675 0.025-1.025 0.025-0.4 0-0.8 0-1.225-0.025 1.5 1.7 3.875 2.7 6.825 2.7 5.35 0 10-2.025 12.7-6.5h-21.275v-0.025z"></path>
<path fill="#019bc6" style="fill: var(--color15, #019bc6)" d="M5.875 17.95c0.325 1.45 1.075 2.6 2.2 3.375 1.225-0.025 2.225-0.175 3-0.425 0.125-0.050 0.225 0.025 0.275 0.125 0.050 0.125-0.025 0.225-0.125 0.275-0.1 0.025-0.2 0.075-0.325 0.1-0.6 0.175-1.3 0.3-2.15 0.35 2.125 1.1 5.2 1.075 8.725-0.275 2.125-0.825 4.2-2.050 6.050-3.525h-17.65z"></path>
<path fill="#00acd3" style="fill: var(--color16, #00acd3)" d="M7.1 13.175v2.45h2.45v-2.45h-2.45zM7.3 13.375h0.2v2.025h-0.2v-2.025zM7.65 13.375h0.2v2.025h-0.2v-2.025zM8.025 13.375h0.2v2.025h-0.2v-2.025zM8.4 13.375h0.2v2.025h-0.2v-2.025zM8.775 13.375h0.2v2.025h-0.2v-2.025zM9.15 13.375h0.2v2.025h-0.2v-2.025zM9.9 10.375v2.45h2.45v-2.45h-2.45zM10.125 10.575h0.2v2.025h-0.2v-2.025zM10.475 10.575h0.2v2.025h-0.2v-2.025zM10.85 10.575h0.2v2.025h-0.2v-2.025zM11.225 10.575h0.2v2.025h-0.2v-2.025zM11.575 10.575h0.2v2.025h-0.2v-2.025zM11.95 10.575h0.2v2.025h-0.2v-2.025z"></path>
<path fill="#23c2ee" style="fill: var(--color17, #23c2ee)" d="M9.9 13.175v2.45h2.45v-2.45h-2.45zM10.125 13.375h0.2v2.025h-0.2v-2.025zM10.475 13.375h0.2v2.025h-0.2v-2.025zM10.85 13.375h0.2v2.025h-0.2v-2.025zM11.225 13.375h0.2v2.025h-0.2v-2.025zM11.575 13.375h0.2v2.025h-0.2v-2.025zM11.95 13.375h0.2v2.025h-0.2v-2.025z"></path>
<path fill="#00acd3" style="fill: var(--color16, #00acd3)" d="M12.725 13.175v2.45h2.45v-2.45h-2.45zM12.925 13.375h0.2v2.025h-0.2v-2.025zM13.3 13.375h0.2v2.025h-0.2v-2.025zM13.675 13.375h0.2v2.025h-0.2v-2.025zM14.025 13.375h0.2v2.025h-0.2v-2.025zM14.4 13.375h0.2v2.025h-0.2v-2.025zM14.775 13.375h0.2v2.025h-0.2v-2.025z"></path>
<path fill="#23c2ee" style="fill: var(--color17, #23c2ee)" d="M12.725 10.375v2.45h2.45v-2.45h-2.45zM12.925 10.575h0.2v2.025h-0.2v-2.025zM13.3 10.575h0.2v2.025h-0.2v-2.025zM13.675 10.575h0.2v2.025h-0.2v-2.025zM14.025 10.575h0.2v2.025h-0.2v-2.025zM14.4 10.575h0.2v2.025h-0.2v-2.025zM14.775 10.575h0.2v2.025h-0.2v-2.025zM15.55 13.175v2.45h2.45v-2.45h-2.45zM15.75 13.375h0.2v2.025h-0.2v-2.025zM16.125 13.375h0.2v2.025h-0.2v-2.025zM16.475 13.375h0.2v2.025h-0.2v-2.025zM16.85 13.375h0.2v2.025h-0.2v-2.025zM17.225 13.375h0.2v2.025h-0.2v-2.025zM17.6 13.375h0.2v2.025h-0.2v-2.025z"></path>
<path fill="#00acd3" style="fill: var(--color16, #00acd3)" d="M15.55 10.375v2.45h2.45v-2.45h-2.45zM15.75 10.575h0.2v2.025h-0.2v-2.025zM16.125 10.575h0.2v2.025h-0.2v-2.025zM16.475 10.575h0.2v2.025h-0.2v-2.025zM16.85 10.575h0.2v2.025h-0.2v-2.025zM17.225 10.575h0.2v2.025h-0.2v-2.025zM17.6 10.575h0.2v2.025h-0.2v-2.025z"></path>
<path fill="#23c2ee" style="fill: var(--color17, #23c2ee)" d="M15.55 7.55v2.45h2.45v-2.45h-2.45zM15.75 7.75h0.2v2.025h-0.2v-2.025zM16.125 7.75h0.2v2.025h-0.2v-2.025zM16.475 7.75h0.2v2.025h-0.2v-2.025zM16.85 7.75h0.2v2.025h-0.2v-2.025zM17.225 7.75h0.2v2.025h-0.2v-2.025zM17.6 7.75h0.2v2.025h-0.2v-2.025z"></path>
<path fill="#00acd3" style="fill: var(--color16, #00acd3)" d="M18.375 13.175v2.45h2.45v-2.45h-2.45zM18.575 13.375h0.2v2.025h-0.2v-2.025zM18.925 13.375h0.2v2.025h-0.2v-2.025zM19.3 13.375h0.2v2.025h-0.2v-2.025zM19.675 13.375h0.2v2.025h-0.2v-2.025zM20.050 13.375h0.2v2.025h-0.2v-2.025zM20.425 13.375h0.2v2.025h-0.2v-2.025z"></path>
<path fill="#d4eef1" style="fill: var(--color18, #d4eef1)" d="M12.2 19.575c0.375 0 0.675 0.3 0.675 0.675s-0.3 0.675-0.675 0.675c-0.375 0-0.675-0.3-0.675-0.675s0.3-0.675 0.675-0.675z"></path>
<path fill="#3a4d54" style="fill: var(--color11, #3a4d54)" d="M12.2 19.775c0.050 0 0.125 0 0.175 0.025-0.050 0.025-0.1 0.1-0.1 0.175 0 0.1 0.1 0.2 0.2 0.2 0.075 0 0.15-0.050 0.175-0.1 0.025 0.050 0.025 0.125 0.025 0.175 0 0.275-0.225 0.475-0.475 0.475-0.275 0-0.475-0.225-0.475-0.475s0.2-0.475 0.475-0.475zM0.275 18.2h31.35c-0.675-0.175-2.15-0.4-1.925-1.3-1.25 1.425-4.225 1-5 0.3-0.85 1.225-5.75 0.75-6.075-0.2-1.050 1.25-4.325 1.25-5.375 0-0.35 0.95-5.25 1.425-6.075 0.2-0.75 0.7-3.75 1.125-5-0.3 0.275 0.875-1.225 1.125-1.9 1.3z"></path>
<path fill="#bfdbe0" style="fill: var(--color19, #bfdbe0)" d="M14 24.45c-1.675-0.8-2.575-1.875-3.1-3.050-0.625 0.175-1.375 0.3-2.225 0.35-0.325 0.025-0.675 0.025-1.025 0.025-0.425 0-0.85 0-1.3-0.025 1.5 1.5 3.4 2.675 6.875 2.7h0.775z"></path>
<path fill="#d4eef1" style="fill: var(--color18, #d4eef1)" d="M11.525 22.475c-0.225-0.325-0.45-0.7-0.625-1.075-0.625 0.175-1.375 0.3-2.225 0.35 0.575 0.3 1.425 0.6 2.85 0.725z"></path>
</symbol>
<symbol id="icon-z-git" viewBox="0 0 32 32">
<title>z-git</title>
<path fill="#f34f29" style="fill: var(--color20, #f34f29)" d="M31.184 14.595l-13.779-13.778c-0.793-0.793-2.080-0.793-2.874 0l-2.861 2.861 3.63 3.629c0.844-0.285 1.811-0.094 2.483 0.579 0.676 0.677 0.865 1.652 0.573 2.498l3.498 3.498c0.846-0.292 1.823-0.103 2.498 0.574 0.945 0.944 0.945 2.475 0 3.42s-2.475 0.945-3.421 0c-0.71-0.711-0.886-1.755-0.526-2.63l-3.262-3.262-0 8.585c0.23 0.114 0.448 0.266 0.64 0.457 0.945 0.944 0.945 2.474 0 3.421-0.945 0.944-2.476 0.944-3.42 0-0.944-0.946-0.944-2.476 0-3.421 0.233-0.233 0.504-0.41 0.792-0.527v-8.665c-0.288-0.118-0.558-0.293-0.792-0.528-0.716-0.715-0.888-1.765-0.521-2.644l-3.578-3.578-9.448 9.447c-0.794 0.794-0.794 2.081 0 2.875l13.779 13.778c0.793 0.794 2.080 0.794 2.875 0l13.715-13.715c0.794-0.794 0.794-2.082-0-2.875z"></path>
</symbol>
<symbol id="icon-z-html" viewBox="0 0 32 32">
<title>z-html</title>
<path fill="#e44d26" style="fill: var(--color21, #e44d26)" d="M4.759 28.469l-2.501-28.054h27.484l-2.504 28.049-11.255 3.12z"></path>
<path fill="#f16529" style="fill: var(--color22, #f16529)" d="M16 29.2l9.095-2.521 2.14-23.97h-11.234z"></path>
<path fill="#ebebeb" style="fill: var(--color9, #ebebeb)" d="M16 13.114h-4.553l-0.315-3.524h4.867v-3.441h-8.628l0.082 0.923 0.845 9.482h7.7zM16 22.049l-0.015 0.004-3.832-1.035-0.245-2.744h-3.454l0.482 5.402 7.048 1.956 0.016-0.004z"></path>
<path fill="#fff" style="fill: var(--color6, #fff)" d="M15.988 13.114v3.441h4.237l-0.399 4.462-3.838 1.036v3.58l7.054-1.955 0.052-0.581 0.808-9.058 0.084-0.924h-0.927zM15.988 6.15v3.441h8.311l0.069-0.773 0.157-1.745 0.082-0.923z"></path>
</symbol>
<symbol id="icon-z-javascript" viewBox="0 0 32 32">
<title>z-javascript</title>
<path fill="#f0db4f" style="fill: var(--color23, #f0db4f)" d="M0.352 0.352h31.296v31.296h-31.296z"></path>
<path fill="#323330" style="fill: var(--color24, #323330)" d="M29.087 24.184c-0.229-1.428-1.16-2.627-3.918-3.745-0.958-0.44-2.026-0.756-2.344-1.482-0.113-0.422-0.128-0.66-0.056-0.916 0.205-0.83 1.196-1.089 1.981-0.851 0.506 0.169 0.985 0.559 1.273 1.181 1.351-0.875 1.348-0.869 2.291-1.47-0.345-0.535-0.529-0.782-0.756-1.011-0.812-0.907-1.919-1.374-3.689-1.339l-0.922 0.119c-0.884 0.223-1.726 0.687-2.219 1.309-1.482 1.681-1.059 4.623 0.744 5.834 1.776 1.333 4.385 1.636 4.718 2.883 0.324 1.526-1.122 2.020-2.558 1.845-1.059-0.22-1.648-0.759-2.285-1.737-1.172 0.678-1.172 0.678-2.377 1.371 0.286 0.625 0.586 0.907 1.065 1.449 2.267 2.3 7.94 2.186 8.957-1.294 0.041-0.119 0.315-0.916 0.095-2.145zM17.366 14.736h-2.927l-0.012 7.568c0 1.61 0.083 3.085-0.178 3.537-0.428 0.889-1.538 0.779-2.044 0.607-0.515-0.253-0.777-0.613-1.080-1.121-0.083-0.146-0.146-0.259-0.167-0.268l-2.38 1.457c0.396 0.812 0.979 1.517 1.726 1.975 1.116 0.669 2.615 0.875 4.183 0.515 1.021-0.297 1.901-0.913 2.362-1.85 0.666-1.229 0.523-2.716 0.517-4.361 0.015-2.684 0-5.367 0-8.059z"></path>
</symbol>
<symbol id="icon-z-jquery" viewBox="0 0 32 32">
<title>z-jquery</title>
<path fill="#0868ac" style="fill: var(--color25, #0868ac)" d="M2.406 8.045c-2.757 3.963-2.414 9.119-0.308 13.33 0.050 0.101 0.103 0.2 0.154 0.299l0.099 0.19 0.062 0.109 0.11 0.197c0.066 0.115 0.132 0.23 0.201 0.345l0.115 0.189c0.076 0.123 0.154 0.244 0.233 0.365l0.099 0.154c0.11 0.164 0.222 0.327 0.338 0.488l0.010 0.012 0.057 0.077c0.1 0.138 0.204 0.275 0.308 0.41l0.116 0.148c0.093 0.117 0.188 0.234 0.285 0.35l0.109 0.13c0.13 0.152 0.262 0.304 0.396 0.453l0.008 0.008 0.015 0.017c0.132 0.144 0.266 0.284 0.403 0.425l0.129 0.13c0.106 0.107 0.213 0.211 0.322 0.316l0.132 0.125c0.145 0.137 0.292 0.271 0.441 0.402l0.007 0.006 0.077 0.066c0.132 0.114 0.266 0.227 0.401 0.338l0.166 0.132c0.11 0.088 0.222 0.175 0.334 0.261l0.178 0.136c0.124 0.091 0.249 0.181 0.375 0.269l0.174 0.123c0.119 0.082 0.242 0.162 0.364 0.241l0.158 0.105c0.188 0.119 0.377 0.236 0.57 0.349l0.158 0.089c0.141 0.081 0.284 0.162 0.428 0.24 0.078 0.042 0.158 0.082 0.236 0.122 0.102 0.053 0.203 0.107 0.306 0.159l0.196 0.095c0.16 0.076 0.322 0.152 0.485 0.224l0.102 0.046c0.187 0.082 0.376 0.16 0.566 0.235l0.138 0.054c0.176 0.068 0.354 0.135 0.534 0.198l0.067 0.023c0.197 0.069 0.395 0.133 0.595 0.195l0.144 0.043c0.204 0.061 0.405 0.134 0.614 0.173 13.335 2.432 17.208-8.013 17.208-8.013-3.253 4.238-9.028 5.356-14.499 4.111-0.207-0.047-0.408-0.111-0.611-0.171l-0.152-0.046c-0.197-0.061-0.393-0.124-0.588-0.191l-0.081-0.029c-0.175-0.061-0.347-0.126-0.518-0.192l-0.146-0.057c-0.188-0.074-0.375-0.152-0.56-0.233l-0.112-0.049c-0.159-0.072-0.316-0.145-0.472-0.22l-0.136-0.066c-0.123-0.060-0.244-0.123-0.365-0.186-0.081-0.043-0.164-0.083-0.244-0.128-0.148-0.079-0.293-0.162-0.438-0.245l-0.148-0.082c-0.192-0.113-0.382-0.23-0.57-0.349l-0.154-0.102c-0.136-0.088-0.272-0.177-0.406-0.27l-0.13-0.092c-0.129-0.091-0.257-0.183-0.383-0.277l-0.17-0.128c-0.116-0.089-0.232-0.178-0.346-0.27l-0.154-0.124c-0.146-0.12-0.289-0.24-0.431-0.363l-0.047-0.040c-0.153-0.135-0.304-0.273-0.453-0.412l-0.128-0.123c-0.11-0.105-0.219-0.211-0.325-0.319l-0.128-0.127c-0.136-0.139-0.269-0.28-0.399-0.422l-0.020-0.021c-0.138-0.151-0.273-0.305-0.405-0.461l-0.106-0.126c-0.098-0.119-0.196-0.239-0.292-0.36l-0.107-0.133c-0.115-0.149-0.227-0.297-0.337-0.448-3.038-4.143-4.129-9.858-1.701-14.551zM10.966 4.706c-1.994 2.869-1.886 6.711-0.33 9.746 0.261 0.509 0.554 1.002 0.882 1.472 0.299 0.428 0.63 0.938 1.027 1.282 0.144 0.158 0.294 0.313 0.447 0.465l0.118 0.116c0.149 0.145 0.3 0.287 0.457 0.424l0.018 0.016 0.005 0.005c0.173 0.152 0.352 0.298 0.534 0.442l0.121 0.095c0.182 0.14 0.368 0.277 0.558 0.408l0.016 0.012c0.084 0.058 0.169 0.112 0.255 0.168l0.121 0.080c0.136 0.087 0.274 0.172 0.414 0.254l0.059 0.034c0.121 0.070 0.243 0.138 0.366 0.204l0.13 0.068c0.085 0.044 0.169 0.090 0.256 0.133l0.039 0.017c0.176 0.087 0.353 0.17 0.534 0.249l0.118 0.049c0.145 0.061 0.291 0.122 0.438 0.177l0.188 0.069c0.133 0.049 0.267 0.095 0.402 0.14l0.182 0.058c0.192 0.059 0.381 0.135 0.581 0.168 10.296 1.706 12.673-6.221 12.673-6.221-2.143 3.086-6.292 4.558-10.72 3.409-0.197-0.052-0.39-0.108-0.583-0.169l-0.175-0.057c-0.137-0.044-0.273-0.091-0.408-0.14l-0.184-0.069c-0.148-0.057-0.294-0.116-0.439-0.177l-0.118-0.050c-0.182-0.079-0.361-0.163-0.537-0.25-0.091-0.044-0.18-0.091-0.27-0.137l-0.155-0.080c-0.114-0.062-0.229-0.127-0.341-0.192l-0.081-0.046c-0.14-0.081-0.277-0.165-0.413-0.252l-0.125-0.083c-0.090-0.058-0.179-0.117-0.267-0.177-0.19-0.131-0.375-0.268-0.556-0.407l-0.125-0.099c-1.938-1.53-3.474-3.621-4.205-5.993-0.765-2.459-0.601-5.22 0.726-7.46zM18.164 2.212c-1.175 1.73-1.291 3.878-0.475 5.789 0.86 2.028 2.623 3.619 4.68 4.374 0.085 0.031 0.17 0.059 0.256 0.088l0.113 0.036c0.121 0.038 0.241 0.082 0.367 0.106 5.685 1.098 7.227-2.917 7.637-3.508-1.351 1.945-3.62 2.412-6.406 1.736-0.22-0.053-0.462-0.133-0.674-0.208-0.272-0.097-0.54-0.207-0.8-0.332-0.494-0.238-0.966-0.526-1.403-0.856-2.492-1.891-4.040-5.498-2.414-8.436z"></path>
</symbol>
<symbol id="icon-z-python" viewBox="0 0 32 32">
<title>z-python</title>
<path fill="#000" style="fill: var(--color3, #000)" d="M15.848 0.497c-1.056 0.005-2.063 0.095-2.95 0.252-2.613 0.462-3.087 1.427-3.087 3.209v2.353h6.173v0.784h-8.49c-1.794 0-3.365 1.078-3.857 3.13-0.567 2.351-0.592 3.819 0 6.274 0.439 1.828 1.487 3.13 3.281 3.13h2.123v-2.82c0-2.038 1.763-3.835 3.857-3.835h6.166c1.716 0 3.087-1.413 3.087-3.137v-5.878c0-1.673-1.412-2.93-3.087-3.209-1.061-0.176-2.161-0.257-3.216-0.252zM12.509 2.389c0.637 0 1.159 0.529 1.159 1.18 0 0.648-0.521 1.172-1.159 1.172-0.64 0-1.158-0.524-1.158-1.173-0-0.651 0.518-1.18 1.158-1.18z"></path>
<path fill="#000" style="fill: var(--color3, #000)" d="M22.921 7.095v2.741c0 2.125-1.802 3.914-3.857 3.914h-6.166c-1.689 0-3.086 1.446-3.086 3.137v5.879c0 1.673 1.454 2.657 3.087 3.137 1.954 0.574 3.828 0.678 6.166 0 1.554-0.45 3.087-1.356 3.087-3.137v-2.353h-6.166v-0.785h9.253c1.794 0 2.463-1.251 3.087-3.13 0.645-1.934 0.617-3.793 0-6.274-0.444-1.786-1.29-3.13-3.087-3.13h-2.317zM19.452 21.982c0.64 0 1.159 0.524 1.159 1.173 0 0.651-0.518 1.18-1.159 1.18-0.637 0-1.158-0.529-1.158-1.18 0-0.649 0.521-1.173 1.158-1.173z"></path>
<path fill="#000" style="fill: var(--color3, #000)" opacity="0.444" d="M24.327 29.899c0 0.886-3.704 1.604-8.273 1.604s-8.273-0.718-8.273-1.604c0-0.886 3.704-1.604 8.273-1.604s8.273 0.718 8.273 1.604z"></path>
</symbol>
<symbol id="icon-z-sass" viewBox="0 0 32 32">
<title>z-sass</title>
<path fill="#cb6699" style="fill: var(--color26, #cb6699)" d="M0.305 14.039c0 0.176 0.052 0.292 0.081 0.405 0.189 0.733 0.595 1.363 1.077 1.936 0.686 0.818 1.527 1.477 2.389 2.096 0.747 0.537 1.509 1.062 2.259 1.595 0.129 0.091 0.25 0.197 0.39 0.309-0.12 0.065-0.22 0.122-0.324 0.175-0.99 0.502-1.942 1.065-2.82 1.747-0.529 0.411-1.040 0.848-1.402 1.419-0.581 0.918-0.787 1.896-0.354 2.94 0.127 0.305 0.32 0.569 0.592 0.763 0.088 0.063 0.187 0.125 0.29 0.15 0.264 0.062 0.534 0.103 0.802 0.152l0.758-0c0.838-0.075 1.602-0.362 2.292-0.838 1.078-0.744 1.804-1.741 2.116-3.022 0.227-0.93 0.236-1.862-0.031-2.788-0.025-0.086-0.056-0.17-0.088-0.253s-0.071-0.164-0.116-0.268l1.719-0.988 0.026 0.022c-0.031 0.102-0.065 0.204-0.093 0.308-0.204 0.746-0.34 1.505-0.291 2.279 0.052 0.825 0.282 1.597 0.765 2.287 0.39 0.558 1.321 0.578 1.736 0.019 0.147-0.199 0.29-0.407 0.397-0.628 0.28-0.579 0.54-1.168 0.807-1.753l0.047-0.107c-0.019 0.277-0.042 0.52-0.052 0.764-0.016 0.38 0.006 0.758 0.136 1.12 0.111 0.309 0.3 0.541 0.655 0.581 0.242 0.028 0.436-0.083 0.614-0.224 0.278-0.22 0.505-0.491 0.673-0.8 0.475-0.873 0.963-1.74 1.394-2.635 0.466-0.968 0.873-1.964 1.306-2.948l0.072-0.174c0.102 0.402 0.174 0.795 0.305 1.168 0.152 0.432 0.341 0.854 0.547 1.264 0.097 0.194 0.086 0.32-0.049 0.482-0.564 0.68-1.118 1.368-1.673 2.056-0.123 0.152-0.245 0.306-0.347 0.472-0.062 0.101-0.103 0.224-0.12 0.341-0.033 0.224 0.105 0.441 0.346 0.493 0.22 0.047 0.453 0.065 0.677 0.048 0.774-0.057 1.477-0.329 2.099-0.789 0.805-0.596 1.064-1.41 0.869-2.375-0.053-0.262-0.146-0.516-0.237-0.768-0.041-0.114-0.044-0.194 0.031-0.299 0.644-0.919 1.194-1.895 1.705-2.892 0.020-0.039 0.041-0.078 0.076-0.12 0.166 0.863 0.415 1.694 0.862 2.448-0.228 0.22-0.454 0.419-0.658 0.639-0.45 0.483-0.84 1.009-1.043 1.649-0.087 0.276-0.155 0.556-0.116 0.851 0.061 0.458 0.436 0.755 0.886 0.651 0.963-0.223 1.795-0.677 2.403-1.481 0.409-0.541 0.446-1.145 0.275-1.778-0.047-0.172-0.103-0.341-0.163-0.538 0.238-0.074 0.47-0.162 0.709-0.217 1.245-0.284 2.476-0.235 3.675 0.215 0.7 0.262 1.266 0.702 1.602 1.393 0.41 0.845 0.183 1.646-0.613 2.18-0.074 0.050-0.159 0.089-0.221 0.151-0.038 0.038-0.061 0.115-0.051 0.168 0.005 0.031 0.087 0.069 0.133 0.069 0.262-0.002 0.474-0.139 0.678-0.28 0.511-0.353 0.883-0.828 0.963-1.454l0.016-0.047-0.019-0.407c-0.008-0.023 0.006-0.047 0.004-0.064-0.108-0.911-0.595-1.618-1.303-2.172-0.82-0.641-1.788-0.905-2.812-0.947-0.834-0.034-1.655 0.090-2.441 0.376-0.224 0.081-0.447 0.177-0.672 0.268-0.030-0.055-0.063-0.107-0.090-0.162-0.232-0.474-0.512-0.927-0.574-1.471-0.044-0.386-0.098-0.771-0.006-1.153 0.088-0.367 0.203-0.728 0.311-1.091 0.056-0.187 0.017-0.291-0.162-0.375-0.062-0.029-0.13-0.055-0.197-0.065-0.438-0.063-0.869-0.027-1.293 0.096-0.15 0.044-0.259 0.128-0.292 0.294-0.019 0.095-0.058 0.187-0.085 0.28-0.111 0.391-0.189 0.789-0.368 1.161-0.448 0.934-0.96 1.832-1.485 2.724-0.057 0.096-0.116 0.191-0.188 0.308-0.184-0.385-0.38-0.73-0.44-1.136-0.067-0.458-0.12-0.915-0.006-1.37 0.085-0.339 0.195-0.672 0.297-1.006 0.048-0.159 0.026-0.242-0.118-0.326-0.073-0.042-0.155-0.080-0.237-0.092-0.454-0.067-0.901-0.032-1.338 0.11-0.136 0.044-0.207 0.132-0.248 0.272-0.122 0.413-0.226 0.836-0.397 1.229-0.694 1.59-1.407 3.172-2.12 4.753-0.149 0.33-0.323 0.649-0.491 0.971-0.043 0.081-0.104 0.153-0.158 0.23-0.043-0.050-0.059-0.085-0.059-0.119 0.001-0.203-0.023-0.413 0.016-0.609 0.117-0.595 0.252-1.186 0.395-1.775 0.117-0.486 0.254-0.968 0.384-1.452 0.044-0.162 0.044-0.313-0.072-0.449-0.195-0.228-0.603-0.278-0.845-0.102l-0.107 0.061 0.021-0.172c0.051-0.37 0.061-0.738-0.040-1.102-0.127-0.454-0.45-0.715-0.921-0.701-0.22 0.007-0.45 0.044-0.653 0.124-0.855 0.335-1.512 0.928-2.072 1.642-0.051 0.065-0.118 0.124-0.189 0.163-0.723 0.401-1.449 0.797-2.174 1.195l-0.807 0.442c-0.216-0.206-0.413-0.421-0.636-0.602-0.682-0.556-1.375-1.098-2.061-1.648-0.609-0.487-1.198-0.995-1.649-1.64-0.336-0.48-0.552-1.005-0.572-1.599-0.026-0.756 0.188-1.447 0.573-2.091 0.493-0.823 1.164-1.483 1.903-2.082 0.781-0.633 1.626-1.169 2.502-1.66 1.225-0.686 2.486-1.293 3.837-1.694 1.386-0.411 2.791-0.646 4.241-0.482 0.57 0.064 1.123 0.195 1.632 0.474 0.389 0.213 0.709 0.492 0.857 0.929 0.146 0.43 0.142 0.865 0.041 1.301-0.206 0.883-0.69 1.612-1.299 2.263-0.998 1.067-2.216 1.793-3.588 2.273-0.791 0.277-1.605 0.45-2.441 0.521-0.682 0.057-1.35-0.003-1.996-0.241-0.428-0.157-0.8-0.398-1.1-0.747-0.053-0.063-0.122-0.13-0.222-0.072-0.098 0.057-0.115 0.15-0.082 0.245 0.055 0.156 0.105 0.319 0.191 0.46 0.214 0.351 0.527 0.606 0.871 0.825 0.661 0.42 1.399 0.562 2.165 0.594 1.162 0.050 2.296-0.123 3.413-0.435 1.596-0.445 2.983-1.231 4.096-2.471 0.927-1.033 1.588-2.198 1.73-3.605 0.069-0.687-0.005-1.359-0.326-1.986-0.349-0.679-0.903-1.183-1.566-1.531-0.965-0.506-2.008-0.801-3.083-0.801h-1.078c-1.303 0-2.562 0.373-3.786 0.819-0.927 0.337-1.835 0.735-2.717 1.176-1.921 0.96-3.709 2.117-5.179 3.708-0.732 0.793-1.352 1.668-1.708 2.697-0.104 0.302-0.203 0.625-0.278 0.937zM7.286 22.59c-0.083 1.115-0.588 2.018-1.414 2.75-0.465 0.412-0.997 0.704-1.618 0.808-0.225 0.037-0.455 0.046-0.673-0.047-0.311-0.133-0.381-0.409-0.387-0.703-0.009-0.469 0.155-0.893 0.38-1.297 0.294-0.526 0.725-0.927 1.185-1.302 0.725-0.59 1.511-1.090 2.317-1.561l0.061-0.025c0.125 0.46 0.184 0.914 0.149 1.377zM13.576 17.745c-0.059 0.356-0.132 0.712-0.236 1.057-0.36 1.194-0.821 2.352-1.321 3.493-0.092 0.211-0.226 0.404-0.343 0.604-0.018 0.031-0.045 0.058-0.071 0.084-0.145 0.143-0.281 0.135-0.354-0.052-0.085-0.217-0.137-0.449-0.182-0.679-0.030-0.154-0.023-0.316-0.033-0.474 0.010-1.123 0.352-2.145 0.934-3.095 0.24-0.392 0.501-0.765 0.899-1.014 0.123-0.076 0.26-0.137 0.399-0.177 0.213-0.060 0.343 0.038 0.308 0.252zM17.867 23.212l1.542-1.801c0.064 0.669-1.073 2.004-1.542 1.801zM22.793 22c-0.109 0.063-0.228 0.108-0.34 0.165-0.102 0.053-0.136-0-0.139-0.088-0.002-0.060 0.007-0.122 0.023-0.18 0.208-0.735 0.591-1.361 1.162-1.872l0.040-0.020c0.271 0.759-0.042 1.592-0.747 1.995z"></path>
</symbol>
<symbol id="icon-z-vue" viewBox="0 0 32 32">
<title>z-vue</title>
<path fill="#35495e" style="fill: var(--color27, #35495e)" d="M6.499 2.348l5.75 0.002 3.759 6.239 3.746-6.239 5.745-0.001-9.462 16.414z"></path>
<path fill="#41b883" style="fill: var(--color28, #41b883)" d="M0.228 2.392l6.266-0.043 9.538 16.414 9.463-16.413 6.277 0.007-15.741 27.015z"></path>
</symbol>
</defs>
</svg>
