<svg aria-hidden="true" style="position: absolute; width: 0; height: 0; overflow: hidden;" version="1.1" xmlns="http://www.w3.org/2000/svg" xmlns:xlink="http://www.w3.org/1999/xlink">
<defs>
<symbol id="icon-study" viewBox="0 0 32 32">
<title>study</title>
<path d="M32 8c0-1.406-0.957-2.608-2.326-2.924l-13.013-3.003c-0.218-0.049-0.44-0.073-0.661-0.073s-0.443 0.024-0.675 0.076l-12.999 3c-1.37 0.316-2.326 1.518-2.326 2.924s0.957 2.608 2.325 2.924l2.675 0.617v8.459c0 2.654 3.038 5 11 5s11-2.346 11-5v-8.459l2.674-0.617c1.369-0.316 2.326-1.518 2.326-2.924zM25 20c0 1.105-3 3-9 3s-9-1.895-9-3v-7.997l8.338 1.924c0.218 0.049 0.441 0.073 0.662 0.073s0.444-0.024 0.674-0.076l8.326-1.921v7.997zM16.225 11.975c-0.075 0.016-0.15 0.025-0.225 0.025s-0.151-0.009-0.225-0.025l-13-3c-0.454-0.105-0.775-0.509-0.775-0.975s0.321-0.87 0.775-0.975l13-3c0.074-0.016 0.149-0.025 0.225-0.025s0.151 0.009 0.225 0.025l13 3c0.453 0.105 0.775 0.509 0.775 0.975s-0.322 0.87-0.775 0.975l-13 3zM29 13c0-0.553 0.447-1 1-1 0.552 0 1 0.447 1 1v9c0 0.553-0.448 1-1 1-0.553 0-1-0.447-1-1v-9zM30 24c1.104 0 2 2.896 2 4s-0.896 2-2 2c-1.105 0-2-0.896-2-2s0.895-4 2-4z"></path>
</symbol>
<symbol id="icon-target-arrow" viewBox="0 0 32 32">
<title>target-arrow</title>
<path d="M9 23.771l-1 1v3.229h-1v-2.229l-1.293 1.293-0.707-0.707 1.357-1.357h-2.357v-1h3.357l1-1h-2.357v-1h3.357l5.322-5.322-0.678-0.678 3-1-1 3-0.614-0.614-5.386 5.386v3.229h-1v-2.229zM7.779 21c-1.125-1.726-1.779-3.786-1.779-6 0-6.075 4.925-11 11-11s11 4.925 11 11c0 6.075-4.925 11-11 11-2.214 0-4.274-0.654-6-1.779v-1.072l0.085-0.085c1.656 1.217 3.702 1.936 5.915 1.936 5.523 0 10-4.477 10-10s-4.477-10-10-10c-5.523 0-10 4.477-10 10 0 2.227 0.728 4.285 1.96 5.947l-0.053 0.053h-1.128zM14.003 15.142c-0.002-0.047-0.003-0.094-0.003-0.142 0-1.657 1.343-3 3-3s3 1.343 3 3c0 1.657-1.343 3-3 3-0.048 0-0.095-0.001-0.142-0.003l0.282-0.988 0.015-0.015c1.032-0.079 1.845-0.942 1.845-1.994 0-1.105-0.895-2-2-2-1.056 0-1.921 0.818-1.995 1.856l-1.002 0.286zM11.115 18.792c-0.705-1.093-1.115-2.394-1.115-3.792 0-3.866 3.134-7 7-7s7 3.134 7 7c0 3.866-3.134 7-7 7-1.383 0-2.672-0.401-3.758-1.093l0.727-0.727c0.889 0.521 1.925 0.82 3.030 0.82 3.314 0 6-2.686 6-6s-2.686-6-6-6c-3.314 0-6 2.686-6 6 0 1.12 0.307 2.168 0.841 3.065l-0.726 0.726z"></path>
</symbol>
<symbol id="icon-genius" viewBox="0 0 30 32">
<title>genius</title>
<path d="M0.567 24c0.785 1.36 2.548 2.079 5.097 2.079 0 0 0 0 0.001 0 1.146 0 2.407-0.161 3.722-0.438 1.266 3.879 3.287 6.359 5.613 6.359s4.347-2.48 5.613-6.359c1.316 0.276 2.577 0.438 3.723 0.438 0 0 0 0 0 0 2.548 0 4.311-0.719 5.096-2.079 1.016-1.761 0.117-4.72-2.966-8 3.083-3.28 3.982-6.239 2.966-8-0.785-1.36-2.548-2.079-5.097-2.079-1.146 0-2.408 0.161-3.723 0.438-1.265-3.879-3.286-6.359-5.612-6.359s-4.347 2.48-5.613 6.359c-1.316-0.277-2.578-0.438-3.723-0.438-2.549 0-4.312 0.719-5.097 2.079-1.016 1.761-0.117 4.72 2.966 8-3.083 3.28-3.983 6.239-2.966 8zM15 31c-1.839 0-3.516-2.199-4.627-5.579 1.503-0.381 3.066-0.92 4.627-1.599 1.561 0.679 3.124 1.218 4.627 1.599-1.111 3.38-2.788 5.579-4.627 5.579zM9 16c0-1.164 0.062-2.297 0.168-3.393 0.893-0.622 1.837-1.228 2.832-1.803 0.984-0.568 1.991-1.077 3-1.533 1.009 0.455 2.016 0.964 3 1.533 0.995 0.574 1.938 1.18 2.832 1.803 0.106 1.096 0.168 2.229 0.168 3.393s-0.062 2.297-0.168 3.393c-0.893 0.622-1.837 1.228-2.832 1.803-0.984 0.568-1.991 1.077-3 1.533-1.009-0.455-2.016-0.964-3-1.533-0.995-0.574-1.938-1.18-2.832-1.803-0.106-1.096-0.168-2.229-0.168-3.393zM8.098 18.623c-1.146-0.861-2.184-1.745-3.086-2.623 0.902-0.878 1.94-1.762 3.086-2.623-0.059 0.854-0.098 1.725-0.098 2.623s0.039 1.769 0.098 2.623zM9.321 11.286c0.184-1.341 0.442-2.604 0.764-3.754 1.195 0.301 2.435 0.717 3.682 1.219-0.762 0.369-1.522 0.757-2.267 1.187-0.773 0.447-1.488 0.897-2.179 1.348zM16.232 8.751c1.247-0.502 2.487-0.918 3.682-1.219 0.322 1.15 0.58 2.413 0.764 3.754-0.69-0.451-1.406-0.901-2.179-1.348-0.744-0.43-1.504-0.818-2.267-1.187zM21.902 13.377c1.147 0.861 2.184 1.744 3.086 2.623-0.902 0.878-1.94 1.762-3.086 2.623 0.059-0.854 0.098-1.725 0.098-2.623s-0.039-1.769-0.098-2.623zM20.679 20.714c-0.184 1.341-0.442 2.604-0.764 3.754-1.195-0.301-2.435-0.717-3.682-1.219 0.763-0.368 1.523-0.757 2.268-1.187 0.772-0.447 1.487-0.897 2.178-1.348zM11.5 22.062c0.745 0.43 1.505 0.819 2.268 1.187-1.247 0.502-2.487 0.918-3.682 1.219-0.322-1.15-0.58-2.413-0.764-3.754 0.69 0.451 1.405 0.901 2.178 1.348zM28.567 23.5c-0.588 1.019-2.090 1.579-4.23 1.579-1.056 0-2.218-0.146-3.432-0.395 0.396-1.424 0.693-3.008 0.877-4.708 1.546-1.084 2.851-2.168 3.94-3.229 2.532 2.682 3.726 5.226 2.845 6.753zM24.336 6.921c2.14 0 3.643 0.561 4.23 1.579 0.882 1.527-0.313 4.071-2.845 6.753-1.089-1.060-2.394-2.145-3.94-3.229-0.184-1.7-0.481-3.284-0.877-4.708 1.214-0.249 2.377-0.395 3.432-0.395zM15 1c1.839 0 3.516 2.199 4.627 5.579-1.503 0.381-3.066 0.92-4.627 1.599-1.561-0.679-3.124-1.218-4.627-1.599 1.111-3.38 2.788-5.579 4.627-5.579zM1.433 8.5c0.588-1.019 2.090-1.579 4.23-1.579 1.056 0 2.218 0.146 3.432 0.395-0.396 1.424-0.693 3.008-0.877 4.708-1.546 1.084-2.851 2.168-3.94 3.229-2.532-2.682-3.726-5.226-2.845-6.753zM4.278 16.747c1.089 1.060 2.394 2.145 3.94 3.229 0.184 1.7 0.481 3.284 0.877 4.708-1.213 0.249-2.375 0.395-3.431 0.395 0 0-0.001 0-0.001 0-2.14 0-3.643-0.561-4.23-1.579-0.881-1.527 0.313-4.071 2.845-6.753zM15 18.5c1.378 0 2.5-1.121 2.5-2.5s-1.122-2.5-2.5-2.5-2.5 1.121-2.5 2.5 1.122 2.5 2.5 2.5zM15 14.5c0.827 0 1.5 0.673 1.5 1.5s-0.673 1.5-1.5 1.5-1.5-0.673-1.5-1.5 0.673-1.5 1.5-1.5z"></path>
</symbol>
<symbol id="icon-icon-64-face-sunglasses" viewBox="0 0 32 32">
<title>icon-64-face-sunglasses</title>
<path fill="#929292" style="fill: var(--color1, #929292)" d="M26.11 10.181v0c-2.442-0.275-6.483-0.245-9.42 0.491-0.064 0.013-0.127 0.025-0.19 0.035-0.063-0.010-0.126-0.021-0.19-0.035-2.937-0.736-6.978-0.765-9.42-0.491v0c2.056-3.121 5.593-5.181 9.61-5.181s7.554 2.060 9.61 5.181zM26.856 11.494c0.733 1.513 1.144 3.212 1.144 5.006 0 6.351-5.149 11.5-11.5 11.5s-11.5-5.149-11.5-11.5c0-1.794 0.411-3.493 1.144-5.006 0.015 0.014 0.031 0.023 0.049 0.026 0.459 0.169 0.655 0.59 0.655 0.59s0.137 0.374 0.535 1.894c0.398 1.52 1.347 1.702 1.347 1.702s1.162 0.261 2.502 0.261c1.34 0 2.142-0.055 3-0.446s1.233-1.477 1.233-1.477c0 0 0.432-0.937 0.73-1.82 0.045-0.134 0.163-0.225 0.304-0.284 0.14 0.058 0.259 0.15 0.304 0.284 0.298 0.884 0.73 1.82 0.73 1.82s0.375 1.087 1.233 1.477c0.858 0.39 1.66 0.446 3 0.446s2.502-0.261 2.502-0.261c0 0 0.949-0.182 1.347-1.702s0.535-1.894 0.535-1.894c0 0 0.196-0.421 0.655-0.59 0.018-0.003 0.034-0.012 0.049-0.026v0zM16.5 29c6.904 0 12.5-5.596 12.5-12.5s-5.596-12.5-12.5-12.5c-6.904 0-12.5 5.596-12.5 12.5s5.596 12.5 12.5 12.5v0zM16.481 22c-3.481 0-5.481-2-5.481-2v1c0 0 2 2 5.481 2s5.519-2 5.519-2v-1c0 0-2.037 2-5.519 2v0z"></path>
</symbol>
<symbol id="icon-icon-63-face-glasses" viewBox="0 0 32 32">
<title>icon-63-face-glasses</title>
<path fill="#929292" style="fill: var(--color1, #929292)" d="M26.11 10.181v0 0c-2.442-0.275-6.483-0.245-9.42 0.491-0.064 0.013-0.127 0.025-0.19 0.035-0.063-0.010-0.126-0.021-0.19-0.035-2.937-0.736-6.978-0.765-9.42-0.491v0c2.056-3.121 5.593-5.181 9.61-5.181s7.554 2.060 9.61 5.181zM26.856 11.494c0.733 1.513 1.144 3.212 1.144 5.006 0 6.351-5.149 11.5-11.5 11.5s-11.5-5.149-11.5-11.5c0-1.794 0.411-3.493 1.144-5.006 0.015 0.014 0.031 0.023 0.049 0.026 0.459 0.169 0.655 0.59 0.655 0.59s0.137 0.374 0.535 1.894c0.398 1.52 1.347 1.702 1.347 1.702s1.162 0.261 2.502 0.261c1.34 0 2.142-0.055 3-0.446s1.233-1.477 1.233-1.477c0 0 0.432-0.937 0.73-1.82 0.045-0.134 0.163-0.225 0.304-0.284 0.14 0.058 0.259 0.15 0.304 0.284 0.298 0.884 0.73 1.82 0.73 1.82s0.375 1.087 1.233 1.477c0.858 0.39 1.66 0.446 3 0.446s2.502-0.261 2.502-0.261c0 0 0.949-0.182 1.347-1.702s0.535-1.894 0.535-1.894c0 0 0.196-0.421 0.655-0.59 0.018-0.003 0.034-0.012 0.049-0.026v0 0zM16.5 29c6.904 0 12.5-5.596 12.5-12.5s-5.596-12.5-12.5-12.5c-6.904 0-12.5 5.596-12.5 12.5s5.596 12.5 12.5 12.5v0zM16.481 22v0c3.481 0 5.519-2 5.519-2v1c0 0-2.037 2-5.519 2s-5.481-2-5.481-2v-1c0 0 2 2 5.481 2zM8.44 11.317v0c0.494-0.32 2.314-0.328 2.954-0.313s1.813 0.109 2.952 0.454c1.139 0.345 0.464 1.518 0.375 1.771-0.128 0.366-0.531 1.018-0.952 1.287s-1.348 0.484-2.511 0.484c-0.676 0-1.224-0.029-1.765-0.139s-0.809-0.208-1.126-0.83c-0.137-0.269-0.254-0.71-0.302-1.030s-0.236-1.288 0.375-1.684zM24.56 11.317c0.611 0.395 0.423 1.363 0.375 1.684s-0.164 0.761-0.302 1.030c-0.318 0.622-0.586 0.72-1.126 0.83s-1.089 0.139-1.765 0.139c-1.164 0-2.090-0.215-2.511-0.484s-0.824-0.921-0.952-1.287c-0.088-0.252-0.764-1.426 0.375-1.771s2.312-0.438 2.952-0.454c0.64-0.016 2.459-0.007 2.954 0.313v0zM12 14c0.552 0 1-0.448 1-1s-0.448-1-1-1c-0.552 0-1 0.448-1 1s0.448 1 1 1v0zM21 14c0.552 0 1-0.448 1-1s-0.448-1-1-1c-0.552 0-1 0.448-1 1s0.448 1 1 1v0z"></path>
</symbol>
<symbol id="icon-icon-62-face-moustache" viewBox="0 0 32 32">
<title>icon-62-face-moustache</title>
<path fill="#929292" style="fill: var(--color1, #929292)" d="M16.5 20.758v0c-0.434 0.777-1.369 2.024-3.305 2.115-2.695 0.127-5.159-2.373-5.159-3.313 1.038 1.135 2.773 1.237 3.738 0.771 1.421-0.686 1.174-2.044 2.21-2.933 0.589-0.505 1.425-0.535 2.14 0 0.129 0.096 0.258 0.22 0.376 0.369 0.118-0.149 0.247-0.272 0.376-0.369 0.716-0.535 1.552-0.505 2.14 0 1.036 0.889 0.789 2.247 2.21 2.933 0.965 0.466 2.7 0.364 3.738-0.771 0 0.94-2.464 3.44-5.159 3.313-1.936-0.091-2.871-1.338-3.305-2.115zM16.5 29v0c-6.904 0-12.5-5.596-12.5-12.5s5.596-12.5 12.5-12.5c6.904 0 12.5 5.596 12.5 12.5s-5.596 12.5-12.5 12.5zM16.5 28c6.351 0 11.5-5.149 11.5-11.5s-5.149-11.5-11.5-11.5c-6.351 0-11.5 5.149-11.5 11.5s5.149 11.5 11.5 11.5v0zM12 14c0.552 0 1-0.448 1-1s-0.448-1-1-1c-0.552 0-1 0.448-1 1s0.448 1 1 1v0zM21 14c0.552 0 1-0.448 1-1s-0.448-1-1-1c-0.552 0-1 0.448-1 1s0.448 1 1 1v0z"></path>
</symbol>
<symbol id="icon-icon-61-face-moustache" viewBox="0 0 32 32">
<title>icon-61-face-moustache</title>
<path fill="#929292" style="fill: var(--color1, #929292)" d="M16.5 20.758v0c-0.434 0.777-1.369 2.024-3.305 2.115-2.695 0.127-5.159-2.373-5.159-3.313 1.038 1.135 2.773 1.237 3.738 0.771 1.421-0.686 1.174-2.044 2.21-2.933 0.589-0.505 1.425-0.535 2.14 0 0.129 0.096 0.258 0.22 0.376 0.369 0.118-0.149 0.247-0.272 0.376-0.369 0.716-0.535 1.552-0.505 2.14 0 1.036 0.889 0.789 2.247 2.21 2.933 0.965 0.466 2.7 0.364 3.738-0.771 0 0.94-2.464 3.44-5.159 3.313-1.936-0.091-2.871-1.338-3.305-2.115zM16.5 29v0c-6.904 0-12.5-5.596-12.5-12.5s5.596-12.5 12.5-12.5c6.904 0 12.5 5.596 12.5 12.5s-5.596 12.5-12.5 12.5zM16.5 28c6.351 0 11.5-5.149 11.5-11.5s-5.149-11.5-11.5-11.5c-6.351 0-11.5 5.149-11.5 11.5s5.149 11.5 11.5 11.5v0zM12 16v0c-1.657 0-3-1.343-3-3s1.343-3 3-3c1.657 0 3 1.343 3 3s-1.343 3-3 3zM12 15c1.105 0 2-0.895 2-2s-0.895-2-2-2c-1.105 0-2 0.895-2 2s0.895 2 2 2v0zM12 14c0.552 0 1-0.448 1-1s-0.448-1-1-1c-0.552 0-1 0.448-1 1s0.448 1 1 1v0zM21 14c0.552 0 1-0.448 1-1s-0.448-1-1-1c-0.552 0-1 0.448-1 1s0.448 1 1 1v0z"></path>
</symbol>
<symbol id="icon-icon-60-astonished-face" viewBox="0 0 32 32">
<title>icon-60-astonished-face</title>
<path fill="#929292" style="fill: var(--color1, #929292)" d="M20.106 12.5l-1.044 0.704 0.559 0.829 1.378-0.93 1.378 0.93 0.559-0.829-1.044-0.704 1.044-0.704-0.559-0.829-1.378 0.93-1.378-0.93-0.559 0.829 1.044 0.704zM11.106 12.5l-1.044 0.704 0.559 0.829 1.378-0.93 1.378 0.93 0.559-0.829-1.044-0.704 1.044-0.704-0.559-0.829-1.378 0.93-1.378-0.93-0.559 0.829 1.044 0.704zM16.5 29v0c-6.904 0-12.5-5.596-12.5-12.5s5.596-12.5 12.5-12.5c6.904 0 12.5 5.596 12.5 12.5s-5.596 12.5-12.5 12.5zM16.5 28c6.351 0 11.5-5.149 11.5-11.5s-5.149-11.5-11.5-11.5c-6.351 0-11.5 5.149-11.5 11.5s5.149 11.5 11.5 11.5v0zM16.5 24v0c-2.485 0-4.5-1.119-4.5-2.5s2.015-2.5 4.5-2.5c2.485 0 4.5 1.119 4.5 2.5s-2.015 2.5-4.5 2.5zM16.5 23c1.933 0 3.5-0.672 3.5-1.5s-1.567-1.5-3.5-1.5c-1.933 0-3.5 0.672-3.5 1.5s1.567 1.5 3.5 1.5v0z"></path>
</symbol>
<symbol id="icon-icon-58-smiling-face" viewBox="0 0 32 32">
<title>icon-58-smiling-face</title>
<path fill="#929292" style="fill: var(--color1, #929292)" d="M16.5 29v0c-6.904 0-12.5-5.596-12.5-12.5s5.596-12.5 12.5-12.5c6.904 0 12.5 5.596 12.5 12.5s-5.596 12.5-12.5 12.5zM16.5 28c6.351 0 11.5-5.149 11.5-11.5s-5.149-11.5-11.5-11.5c-6.351 0-11.5 5.149-11.5 11.5s5.149 11.5 11.5 11.5v0zM19.622 10.967l-0.559 0.829 3.316 2.237 0.559-0.829-3.316-2.237zM10.062 13.204l0.559 0.829 3.316-2.237-0.559-0.829-3.316 2.237zM16.481 22c-3.481 0-5.481-2-5.481-2v1c0 0 2 2 5.481 2s5.519-2 5.519-2v-1c0 0-2.037 2-5.519 2v0z"></path>
</symbol>
<symbol id="icon-icon-56-sad-face-closed-eyes" viewBox="0 0 32 32">
<title>icon-56-sad-face-closed-eyes</title>
<path fill="#929292" style="fill: var(--color1, #929292)" d="M16.5 29v0c-6.904 0-12.5-5.596-12.5-12.5s5.596-12.5 12.5-12.5c6.904 0 12.5 5.596 12.5 12.5s-5.596 12.5-12.5 12.5zM16.5 28c6.351 0 11.5-5.149 11.5-11.5s-5.149-11.5-11.5-11.5c-6.351 0-11.5 5.149-11.5 11.5s5.149 11.5 11.5 11.5v0zM10 13v1h4v-1h-4zM19 13v1h4v-1h-4zM16.497 22c-2.997 0-4.497 1-4.497 1s1-3 4.5-3c3.5 0 4.5 3 4.5 3s-1.506-1-4.503-1v0z"></path>
</symbol>
<symbol id="icon-icon-54-sad-face" viewBox="0 0 32 32">
<title>icon-54-sad-face</title>
<path fill="#929292" style="fill: var(--color1, #929292)" d="M16.5 29v0c-6.904 0-12.5-5.596-12.5-12.5s5.596-12.5 12.5-12.5c6.904 0 12.5 5.596 12.5 12.5s-5.596 12.5-12.5 12.5zM16.5 28c6.351 0 11.5-5.149 11.5-11.5s-5.149-11.5-11.5-11.5c-6.351 0-11.5 5.149-11.5 11.5s5.149 11.5 11.5 11.5v0zM10.622 10.967l-0.559 0.829 3.316 2.237 0.559-0.829-3.316-2.237zM19.062 13.204l0.559 0.829 3.316-2.237-0.559-0.829-3.316 2.237zM16.497 22c-2.997 0-4.497 1-4.497 1s1-3 4.5-3c3.5 0 4.5 3 4.5 3s-1.506-1-4.503-1v0z"></path>
</symbol>
<symbol id="icon-icon-53-grinning-face" viewBox="0 0 32 32">
<title>icon-53-grinning-face</title>
<path fill="#929292" style="fill: var(--color1, #929292)" d="M16.5 29v0c-6.904 0-12.5-5.596-12.5-12.5s5.596-12.5 12.5-12.5c6.904 0 12.5 5.596 12.5 12.5s-5.596 12.5-12.5 12.5zM16.5 28c6.351 0 11.5-5.149 11.5-11.5s-5.149-11.5-11.5-11.5c-6.351 0-11.5 5.149-11.5 11.5s5.149 11.5 11.5 11.5v0zM16.497 21c-2.997 0-4.497-1-4.497-1s1 3 4.5 3c3.5 0 4.5-3 4.5-3s-1.506 1-4.503 1v0zM18.672 13.793l2.828-2.828 2.828 2.828-0.707 0.707-2.121-2.121-2.121 2.121-0.707-0.707zM8.672 13.793l2.828-2.828 2.828 2.828-0.707 0.707-2.121-2.121-2.121 2.121-0.707-0.707z"></path>
</symbol>
<symbol id="icon-icon-50-face-closed-eyes-open-mouth" viewBox="0 0 32 32">
<title>icon-50-face-closed-eyes-open-mouth</title>
<path fill="#929292" style="fill: var(--color1, #929292)" d="M16.5 29v0c-6.904 0-12.5-5.596-12.5-12.5s5.596-12.5 12.5-12.5c6.904 0 12.5 5.596 12.5 12.5s-5.596 12.5-12.5 12.5zM16.5 28c6.351 0 11.5-5.149 11.5-11.5s-5.149-11.5-11.5-11.5c-6.351 0-11.5 5.149-11.5 11.5s5.149 11.5 11.5 11.5v0zM10.622 10.967l3.316 2.237-0.559 0.829-3.316-2.237 0.559-0.829zM19.062 13.204l3.316-2.237 0.559 0.829-3.316 2.237-0.559-0.829zM16.5 24v0c-1.381 0-2.5-1.119-2.5-2.5s1.119-2.5 2.5-2.5c1.381 0 2.5 1.119 2.5 2.5s-1.119 2.5-2.5 2.5zM16.5 23c0.828 0 1.5-0.672 1.5-1.5s-0.672-1.5-1.5-1.5c-0.828 0-1.5 0.672-1.5 1.5s0.672 1.5 1.5 1.5v0z"></path>
</symbol>
<symbol id="icon-icon-47-amused-face-closed-eyes" viewBox="0 0 32 32">
<title>icon-47-amused-face-closed-eyes</title>
<path fill="#929292" style="fill: var(--color1, #929292)" d="M16.5 29v0c-6.904 0-12.5-5.596-12.5-12.5s5.596-12.5 12.5-12.5c6.904 0 12.5 5.596 12.5 12.5s-5.596 12.5-12.5 12.5zM16.5 28c6.351 0 11.5-5.149 11.5-11.5s-5.149-11.5-11.5-11.5c-6.351 0-11.5 5.149-11.5 11.5s5.149 11.5 11.5 11.5v0zM19.622 10.967l-0.559 0.829 3.316 2.237 0.559-0.829-3.316-2.237zM10.062 13.204l0.559 0.829 3.316-2.237-0.559-0.829-3.316 2.237zM16.497 21c-2.997 0-4.497-1-4.497-1s1 3 4.5 3c3.5 0 4.5-3 4.5-3s-1.506 1-4.503 1v0z"></path>
</symbol>
<symbol id="icon-icon-43-kissing-face" viewBox="0 0 32 32">
<title>icon-43-kissing-face</title>
<path fill="#929292" style="fill: var(--color1, #929292)" d="M16.5 29v0c-6.904 0-12.5-5.596-12.5-12.5s5.596-12.5 12.5-12.5c6.904 0 12.5 5.596 12.5 12.5s-5.596 12.5-12.5 12.5zM16.5 28c6.351 0 11.5-5.149 11.5-11.5s-5.149-11.5-11.5-11.5c-6.351 0-11.5 5.149-11.5 11.5s5.149 11.5 11.5 11.5v0zM19 10v1h4v-1h-4zM10 10v1h4v-1h-4zM12 15c0.552 0 1-0.448 1-1s-0.448-1-1-1c-0.552 0-1 0.448-1 1s0.448 1 1 1v0zM21 15c0.552 0 1-0.448 1-1s-0.448-1-1-1c-0.552 0-1 0.448-1 1s0.448 1 1 1v0zM18.5 19.5c-1 0-1 0.5-2.046 1-0.954-0.5-0.954-1-1.954-1s-2 1.5-3.5 1.5c1 0 2.5 3 5.454 3s4.546-3 5.546-3c-1.5 0-2.5-1.5-3.5-1.5v0z"></path>
</symbol>
<symbol id="icon-icon-39-face-open-mouth-eyebrows" viewBox="0 0 32 32">
<title>icon-39-face-open-mouth-eyebrows</title>
<path fill="#929292" style="fill: var(--color1, #929292)" d="M16.5 29v0c-6.904 0-12.5-5.596-12.5-12.5s5.596-12.5 12.5-12.5c6.904 0 12.5 5.596 12.5 12.5s-5.596 12.5-12.5 12.5zM16.5 28c6.351 0 11.5-5.149 11.5-11.5s-5.149-11.5-11.5-11.5c-6.351 0-11.5 5.149-11.5 11.5s5.149 11.5 11.5 11.5v0zM12 15v0c-0.552 0-1-0.448-1-1s0.448-1 1-1c0.552 0 1 0.448 1 1s-0.448 1-1 1zM21 15v0c-0.552 0-1-0.448-1-1s0.448-1 1-1c0.552 0 1 0.448 1 1s-0.448 1-1 1zM16.5 24v0c-1.381 0-2.5-1.119-2.5-2.5s1.119-2.5 2.5-2.5c1.381 0 2.5 1.119 2.5 2.5s-1.119 2.5-2.5 2.5zM16.5 23c0.828 0 1.5-0.672 1.5-1.5s-0.672-1.5-1.5-1.5c-0.828 0-1.5 0.672-1.5 1.5s0.672 1.5 1.5 1.5v0zM20.622 9.967l-0.559 0.829 3.316 2.237 0.559-0.829-3.316-2.237zM9.062 12.204l0.559 0.829 3.316-2.237-0.559-0.829-3.316 2.237z"></path>
</symbol>
<symbol id="icon-icon-35-angry-face-teeth" viewBox="0 0 32 32">
<title>icon-35-angry-face-teeth</title>
<path fill="#929292" style="fill: var(--color1, #929292)" d="M19 20v1h-2v-1h2zM20 20v1h1.915c-0.206-0.583-0.763-1-1.421-1h-0.494zM19 23v-1h-2v1h2zM20 23v-1h1.915c-0.206 0.585-0.765 1-1.422 1h-0.494zM16 20v1h-2v-1h2zM16 23v-1h-2v1h2zM13 20v1h-1.915c0.206-0.585 0.765-1 1.422-1h0.494zM13 23v-1h-1.915c0.206 0.583 0.763 1 1.421 1h0.494zM16.5 29v0c-6.904 0-12.5-5.596-12.5-12.5s5.596-12.5 12.5-12.5c6.904 0 12.5 5.596 12.5 12.5s-5.596 12.5-12.5 12.5zM16.5 28c6.351 0 11.5-5.149 11.5-11.5s-5.149-11.5-11.5-11.5c-6.351 0-11.5 5.149-11.5 11.5s5.149 11.5 11.5 11.5v0zM12 15v0c-0.552 0-1-0.448-1-1s0.448-1 1-1c0.552 0 1 0.448 1 1s-0.448 1-1 1zM21 15v0c-0.552 0-1-0.448-1-1s0.448-1 1-1c0.552 0 1 0.448 1 1s-0.448 1-1 1zM12.507 19h7.987c1.387 0 2.507 1.119 2.507 2.5 0 1.39-1.122 2.5-2.507 2.5h-7.987c-1.387 0-2.507-1.119-2.507-2.5 0-1.39 1.122-2.5 2.507-2.5zM21.378 9.967l-3.316 2.237 0.559 0.829 3.316-2.237-0.559-0.829zM14.938 12.204l-3.316-2.237-0.559 0.829 3.316 2.237 0.559-0.829z"></path>
</symbol>
<symbol id="icon-icon-32-face-stuck-out-tongue" viewBox="0 0 32 32">
<title>icon-32-face-stuck-out-tongue</title>
<path fill="#929292" style="fill: var(--color1, #929292)" d="M13 20h-2v-1h11v1h-2v2.5c0 1.929-1.567 3.5-3.5 3.5-1.929 0-3.5-1.567-3.5-3.5v-2.5zM16.5 29v0c-6.904 0-12.5-5.596-12.5-12.5s5.596-12.5 12.5-12.5c6.904 0 12.5 5.596 12.5 12.5s-5.596 12.5-12.5 12.5zM16.5 28c6.351 0 11.5-5.149 11.5-11.5s-5.149-11.5-11.5-11.5c-6.351 0-11.5 5.149-11.5 11.5s5.149 11.5 11.5 11.5v0zM21 14c0.552 0 1-0.448 1-1s-0.448-1-1-1c-0.552 0-1 0.448-1 1s0.448 1 1 1v0zM14 20v2.5c0 1.381 1.11 2.5 2.5 2.5 1.381 0 2.5-1.11 2.5-2.5v-2.5h-5zM11 13v1h4v-1h-4z"></path>
</symbol>
<symbol id="icon-icon-31-face-stuck-out-tongue" viewBox="0 0 32 32">
<title>icon-31-face-stuck-out-tongue</title>
<path fill="#929292" style="fill: var(--color1, #929292)" d="M13 20h-2v-1h11v1h-2v2.5c0 1.929-1.567 3.5-3.5 3.5-1.929 0-3.5-1.567-3.5-3.5v-2.5zM16.5 29v0c-6.904 0-12.5-5.596-12.5-12.5s5.596-12.5 12.5-12.5c6.904 0 12.5 5.596 12.5 12.5s-5.596 12.5-12.5 12.5zM16.5 28c6.351 0 11.5-5.149 11.5-11.5s-5.149-11.5-11.5-11.5c-6.351 0-11.5 5.149-11.5 11.5s5.149 11.5 11.5 11.5v0zM12 14c0.552 0 1-0.448 1-1s-0.448-1-1-1c-0.552 0-1 0.448-1 1s0.448 1 1 1v0zM21 14c0.552 0 1-0.448 1-1s-0.448-1-1-1c-0.552 0-1 0.448-1 1s0.448 1 1 1v0zM14 20v2.5c0 1.381 1.11 2.5 2.5 2.5 1.381 0 2.5-1.11 2.5-2.5v-2.5h-5z"></path>
</symbol>
<symbol id="icon-icon-20-sad-face-eyebrows" viewBox="0 0 32 32">
<title>icon-20-sad-face-eyebrows</title>
<path fill="#929292" style="fill: var(--color1, #929292)" d="M16.5 29v0c-6.904 0-12.5-5.596-12.5-12.5s5.596-12.5 12.5-12.5c6.904 0 12.5 5.596 12.5 12.5s-5.596 12.5-12.5 12.5zM16.5 28c6.351 0 11.5-5.149 11.5-11.5s-5.149-11.5-11.5-11.5c-6.351 0-11.5 5.149-11.5 11.5s5.149 11.5 11.5 11.5v0zM16.481 21c-3.481 0-5.481 2-5.481 2v-1c0 0 2-2 5.481-2s5.519 2 5.519 2v1c0 0-2.037-2-5.519-2v0zM20.622 9.967l-0.559 0.829 3.316 2.237 0.559-0.829-3.316-2.237zM9.062 12.204l0.559 0.829 3.316-2.237-0.559-0.829-3.316 2.237zM12 15c0.552 0 1-0.448 1-1s-0.448-1-1-1c-0.552 0-1 0.448-1 1s0.448 1 1 1v0zM21 15c0.552 0 1-0.448 1-1s-0.448-1-1-1c-0.552 0-1 0.448-1 1s0.448 1 1 1v0z"></path>
</symbol>
<symbol id="icon-icon-11-laughing-face" viewBox="0 0 32 32">
<title>icon-11-laughing-face</title>
<path fill="#929292" style="fill: var(--color1, #929292)" d="M16.5 29v0c-6.904 0-12.5-5.596-12.5-12.5s5.596-12.5 12.5-12.5c6.904 0 12.5 5.596 12.5 12.5s-5.596 12.5-12.5 12.5zM16.5 28c6.351 0 11.5-5.149 11.5-11.5s-5.149-11.5-11.5-11.5c-6.351 0-11.5 5.149-11.5 11.5s5.149 11.5 11.5 11.5v0zM12 14v0c-0.552 0-1-0.448-1-1s0.448-1 1-1c0.552 0 1 0.448 1 1s-0.448 1-1 1zM21 14v0c-0.552 0-1-0.448-1-1s0.448-1 1-1c0.552 0 1 0.448 1 1s-0.448 1-1 1zM9 19h15c0 0-1 6-7.5 6s-7.5-6-7.5-6zM10.345 20c0 0 1.287 4.013 6.18 4.013s6.118-4.013 6.118-4.013h-12.298z"></path>
</symbol>
<symbol id="icon-iconfinder_Muslim_Mosque-13_2044984" viewBox="0 0 32 32">
<title>iconfinder_Muslim_Mosque-13_2044984</title>
<path fill="none" stroke="#000" style="stroke: var(--color2, #000)" stroke-linejoin="round" stroke-linecap="round" stroke-miterlimit="10" stroke-width="0.5" d="M15.075 16.512c0.019-1.494-2.594-1.719-3.406-0.044-0.438 0.9 0.45 1.969 0.819 3.063 0.675 1.988 1.244 3.181 2.481 2.675 1.119-0.456 0.356-1.956 0.012-2.913-0.269-0.744 0.081-1.9 0.094-2.781z"></path>
<path d="M14.599 13.305c0.314 0.001 0.567 0.347 0.566 0.771s-0.258 0.768-0.572 0.766c-0.314-0.001-0.567-0.347-0.566-0.771s0.258-0.768 0.572-0.766z"></path>
<path d="M13.78 14.117c0.024 0.313-0.146 0.582-0.38 0.6s-0.443-0.221-0.468-0.534c-0.024-0.313 0.146-0.582 0.38-0.6s0.443 0.221 0.468 0.534z"></path>
<path d="M12.724 14.34c0.086 0.251 0.005 0.507-0.181 0.571s-0.407-0.088-0.493-0.339c-0.086-0.251-0.005-0.507 0.181-0.571s0.407 0.088 0.493 0.339z"></path>
<path d="M11.914 14.823c0.133 0.198 0.122 0.438-0.025 0.536s-0.372 0.017-0.505-0.181c-0.133-0.198-0.122-0.438 0.025-0.536s0.372-0.017 0.505 0.181z"></path>
<path d="M11.246 15.465c0.148 0.129 0.189 0.325 0.092 0.437s-0.297 0.098-0.445-0.032c-0.148-0.129-0.189-0.325-0.092-0.437s0.297-0.098 0.445 0.032z"></path>
<path fill="none" stroke="#000" style="stroke: var(--color2, #000)" stroke-linejoin="round" stroke-linecap="round" stroke-miterlimit="10" stroke-width="0.5" d="M16.95 12.894c-0.050-1.494 2.556-1.775 3.406-0.119 0.456 0.887-0.406 1.981-0.756 3.081-0.631 2-1.175 3.212-2.419 2.731-1.125-0.431-0.4-1.95-0.081-2.912 0.25-0.75-0.119-1.9-0.15-2.781z"></path>
<path d="M17.944 10.429c0.011 0.424-0.235 0.775-0.549 0.783s-0.578-0.329-0.589-0.754c-0.011-0.424 0.235-0.775 0.549-0.783s0.578 0.329 0.589 0.754z"></path>
<path d="M18.651 9.925c0.234 0.013 0.41 0.278 0.393 0.592s-0.222 0.557-0.456 0.544c-0.234-0.013-0.41-0.278-0.393-0.592s0.222-0.557 0.456-0.544z"></path>
<path d="M19.738 10.323c0.187 0.060 0.274 0.314 0.193 0.567s-0.298 0.41-0.486 0.35c-0.187-0.060-0.274-0.314-0.193-0.567s0.298-0.41 0.486-0.35z"></path>
<path d="M20.569 10.943c0.148 0.095 0.165 0.334 0.036 0.535s-0.352 0.287-0.501 0.192c-0.148-0.095-0.165-0.334-0.036-0.535s0.352-0.287 0.501-0.192z"></path>
<path d="M21.202 11.72c0.1 0.11 0.063 0.306-0.082 0.439s-0.344 0.151-0.444 0.042c-0.1-0.11-0.063-0.306 0.082-0.439s0.344-0.151 0.444-0.042z"></path>
</symbol>
<symbol id="icon-Diamond" viewBox="0 0 32 32">
<title>Diamond</title>
<path fill="#5b554d" style="fill: var(--color3, #5b554d)" d="M15.85 29.1v0c-0.15 0-0.25-0.050-0.35-0.15l-14.9-17.2c-0.1-0.15-0.15-0.35-0.050-0.5 3.4-5.75 3.65-6 3.95-6l11.25-2.35c0.050 0 0.1 0 0.2 0l11.3 2.35c0.1 0 0.2 0.1 0.25 0.2l3.9 5.6c0.1 0.15 0.1 0.4-0.050 0.55l-15.15 17.35c-0.1 0.050-0.2 0.15-0.35 0.15zM1.5 11.45l14.35 16.55 14.65-16.7-3.6-5.2-11-2.3-11.15 2.3c-0.4 0.55-1.9 3-3.25 5.35z"></path>
<path fill="#5b554d" style="fill: var(--color3, #5b554d)" d="M15.85 29.1c-0.1 0-0.25-0.050-0.35-0.15l-14.9-17.2c-0.1-0.15-0.15-0.35-0.050-0.5 3.55-6.050 3.65-6 4-6 0.1 0 0.2 0.050 0.3 0.15 0.5 0.4 1.65 1.65 5.25 5.75 0.050 0.050 0.050 0.1 0.1 0.15l6.050 17.2c0.050 0.2 0 0.4-0.2 0.55-0.050 0-0.1 0.050-0.2 0.050zM1.5 11.45l13.15 15.15-5.25-14.9c-1.55-1.8-4-4.5-4.8-5.35-0.55 0.8-1.9 3-3.1 5.1z"></path>
<path fill="#5b554d" style="fill: var(--color3, #5b554d)" d="M16.2 28.7c-0.1 0-0.15 0-0.2-0.050-0.2-0.1-0.25-0.35-0.2-0.55l5.8-16.7c0-0.050 0.050-0.1 0.1-0.15l5.2-5.85c0.1-0.1 0.2-0.15 0.35-0.15s0.25 0.1 0.35 0.2l3.9 5.6c0.1 0.15 0.1 0.4-0.050 0.55l-14.95 16.95c-0.050 0.1-0.2 0.15-0.3 0.15zM22.4 11.8l-5.050 14.45 13.15-14.95-3.35-4.85-4.75 5.35z"></path>
<path fill="#5b554d" style="fill: var(--color3, #5b554d)" d="M4.45 6.2c-0.1 0-0.2-0.050-0.25-0.1-0.1-0.1-0.2-0.2-0.2-0.35 0-0.1 0.050-0.2 0.1-0.25 0-0.050 0.050-0.1 0.1-0.1 0.2-0.15 0.45-0.15 0.6 0.050 0.050 0.1 0.1 0.2 0.1 0.3s-0.050 0.25-0.15 0.3c0 0.1-0.15 0.15-0.3 0.15z"></path>
<path fill="#5b554d" style="fill: var(--color3, #5b554d)" d="M9.8 11.9c-0.15 0-0.25-0.050-0.35-0.15-1.75-2-4.65-5.25-5.1-5.65-0.050-0.050-0.1-0.050-0.15-0.15-0.1-0.15-0.1-0.3-0.050-0.45s0.2-0.2 0.35-0.25v0l11-2.35c0.2-0.050 0.35 0.050 0.45 0.2s0.1 0.35 0 0.5l-5.8 8.15c-0.1 0.1-0.2 0.15-0.35 0.15v0zM5.45 5.95c0.7 0.7 1.95 2.1 4.3 4.8l4.8-6.75-9.1 1.95z"></path>
<path fill="#5b554d" style="fill: var(--color3, #5b554d)" d="M4.5 6.15c-0.050 0-0.050 0-0.1 0-0.1 0-0.25-0.1-0.3-0.2s-0.1-0.15-0.1-0.25c0-0.15 0.050-0.25 0.2-0.35 0.1-0.1 0.25-0.1 0.4-0.050s0.25 0.15 0.3 0.25c0 0.050 0.050 0.1 0.050 0.2 0 0.15-0.1 0.35-0.25 0.4-0.050 0-0.1 0-0.2 0z"></path>
<path fill="#5b554d" style="fill: var(--color3, #5b554d)" d="M4.45 6.25c-0.1 0-0.15 0-0.2-0.050-0.2-0.1-0.25-0.25-0.25-0.4 0-0.050 0-0.15 0.050-0.2l0.050-0.050c0.15-0.2 0.4-0.25 0.6-0.15 0.15 0.1 0.2 0.25 0.2 0.35s0 0.15-0.050 0.25c-0.1 0.15-0.25 0.25-0.4 0.25z"></path>
<path fill="#5b554d" style="fill: var(--color3, #5b554d)" d="M4.1 6.85c-0.050 0-0.15 0-0.2-0.050-0.15-0.1-0.25-0.25-0.25-0.4 0-0.050 0-0.15 0.050-0.2l0.050-0.15c0.1-0.2 0.4-0.3 0.6-0.2 0.15 0.1 0.25 0.25 0.25 0.4 0 0.050 0 0.15-0.050 0.2l-0.050 0.15c-0.050 0.15-0.2 0.25-0.4 0.25z"></path>
<path fill="#5b554d" style="fill: var(--color3, #5b554d)" d="M4.35 6.35c-0.050 0-0.15 0-0.2-0.050-0.15-0.1-0.2-0.25-0.25-0.4 0-0.050 0-0.15 0.050-0.2l0.4 0.2-0.35-0.25 0.4 0.15 0.35 0.25c-0.1 0.25-0.25 0.3-0.4 0.3z"></path>
<path fill="#5b554d" style="fill: var(--color3, #5b554d)" d="M4 7.050c-0.050 0-0.15 0-0.2-0.050-0.15-0.1-0.25-0.25-0.25-0.4 0-0.050 0-0.15 0.050-0.2l0.1-0.15c0.1-0.2 0.4-0.3 0.6-0.2 0.15 0.1 0.25 0.25 0.25 0.4 0 0.050 0 0.15-0.050 0.2l-0.050 0.15c-0.1 0.15-0.25 0.25-0.45 0.25z"></path>
<path fill="#5b554d" style="fill: var(--color3, #5b554d)" d="M4.2 6.65c-0.050 0-0.15 0-0.2-0.050-0.15-0.1-0.25-0.25-0.25-0.4 0-0.050 0-0.15 0.050-0.2l0.050-0.1c0.1-0.2 0.4-0.35 0.6-0.2 0.15 0.1 0.25 0.25 0.25 0.4 0 0.050 0 0.1-0.050 0.2l-0.1 0.1c0 0.15-0.15 0.25-0.35 0.25z"></path>
<path fill="#5b554d" style="fill: var(--color3, #5b554d)" d="M4.3 6.45c-0.050 0-0.15 0-0.2-0.050-0.15-0.1-0.25-0.25-0.25-0.4 0-0.050 0-0.15 0.050-0.2v-0.050c0.1-0.2 0.4-0.35 0.6-0.2 0.15 0.1 0.25 0.25 0.25 0.4 0 0.050 0 0.15-0.050 0.2l-0.050 0.050c0 0.2-0.2 0.25-0.35 0.25z"></path>
<path fill="#5b554d" style="fill: var(--color3, #5b554d)" d="M22.1 11.9c-0.050 0-0.050 0 0 0-0.15 0-0.3-0.1-0.35-0.2l-5.8-8.1c-0.1-0.15-0.1-0.35 0-0.5s0.3-0.25 0.45-0.2l10.85 2.35c0.15 0.050 0.3 0.15 0.35 0.3s0 0.3-0.1 0.45l-5.1 5.75c-0.1 0.1-0.2 0.15-0.3 0.15zM17.35 4.050l4.8 6.7 4.25-4.8-9.050-1.9z"></path>
<path fill="#5b554d" style="fill: var(--color3, #5b554d)" d="M30.9 11.95h-29.9c-0.15 0-0.25-0.050-0.35-0.15-0.1-0.15-0.15-0.4-0.1-0.55 3.4-5.8 3.65-6 3.95-6l11.5-2.35c0.050 0 0.1 0 0.2 0l11.1 2.35c0.1 0 0.2 0.1 0.25 0.2l3.9 5.6c0.1 0.15 0.1 0.4-0.050 0.55l-0.15 0.2c-0.1 0.1-0.25 0.15-0.35 0.15zM1.7 11.1h28.65l-3.45-4.95-10.8-2.35-11.35 2.3c-0.4 0.5-1.75 2.8-3.050 5z"></path>
</symbol>
<symbol id="icon-Eye" viewBox="0 0 32 32">
<title>Eye</title>
<path fill="#5b554d" style="fill: var(--color3, #5b554d)" d="M16 26.65c-6.7 0-10.5-4.55-14.95-9.85l-0.45-0.55c-0.15-0.15-0.15-0.35 0-0.55 5.35-6.4 9.75-10.35 15.4-10.35 6.75 0 11.8 5.6 15.4 10.5 0.1 0.15 0.1 0.35 0 0.5l-0.35 0.4c-3.3 3.95-8.35 9.9-15.050 9.9zM1.45 16l0.25 0.3c4.3 5.1 8 9.55 14.3 9.55 6.35 0 11-5.55 14.45-9.6l0.1-0.15c-3.5-4.7-8.3-9.95-14.55-9.95-5.25 0-9.35 3.6-14.55 9.85z"></path>
<path fill="#5b554d" style="fill: var(--color3, #5b554d)" d="M16 21.35c-2.95 0-5.35-2.4-5.35-5.35s2.4-5.35 5.35-5.35c2.95 0 5.35 2.4 5.35 5.35s-2.4 5.35-5.35 5.35zM16 11.45c-2.5 0-4.55 2.050-4.55 4.55s2.050 4.55 4.55 4.55c2.5 0 4.55-2.050 4.55-4.55-0.050-2.5-2.050-4.55-4.55-4.55z"></path>
<path fill="#5b554d" style="fill: var(--color3, #5b554d)" d="M18.25 16c0 1.243-1.007 2.25-2.25 2.25s-2.25-1.007-2.25-2.25c0-1.243 1.007-2.25 2.25-2.25s2.25 1.007 2.25 2.25z"></path>
</symbol>
<symbol id="icon-Home" viewBox="0 0 32 32">
<title>Home</title>
<path fill="#5b554d" style="fill: var(--color3, #5b554d)" d="M23.15 30.45h-4.4c-0.2 0-0.4-0.15-0.4-0.4v-6.7h-4.7v6.7c0 0.2-0.15 0.4-0.4 0.4h-4.4c-1.7 0-3.1-1.4-3.1-3.1v-11.75c0-0.2 0.15-0.4 0.4-0.4 0.2 0 0.4 0.15 0.4 0.4v11.75c0 1.3 1.050 2.35 2.35 2.35h4.050v-6.75c0-0.2 0.15-0.4 0.4-0.4h5.5c0.2 0 0.4 0.15 0.4 0.4v6.7h4c1.3 0 2.35-1.050 2.35-2.35v-11.7c0-0.2 0.15-0.4 0.4-0.4 0.2 0 0.4 0.15 0.4 0.4v11.75c-0.15 1.7-1.55 3.1-3.25 3.1z"></path>
<path fill="#5b554d" style="fill: var(--color3, #5b554d)" d="M29.25 15.95c-0.050 0-0.1 0-0.2 0-0.050 0-0.15-0.050-0.2-0.050l-12.85-9.3-12.9 9.3c-0.050 0.050-0.1 0.050-0.2 0.050-0.65 0.050-1.25-0.2-1.6-0.7l-0.5-0.7c-0.25-0.35-0.4-0.85-0.3-1.3 0.050-0.45 0.3-0.85 0.7-1.15l13.45-9.65c0.55-0.4 1-0.75 1.1-0.8 0 0 0 0 0.050 0 0.15-0.1 0.35-0.1 0.45 0 0 0 0.050 0.050 0.050 0.050v0c0.050 0.050 0.35 0.25 0.75 0.55l3.9 2.85c0.6 0.45 5.6 4.050 6.2 4.45l3.65 2.6c0 0 0 0 0 0 0.8 0.55 0.95 1.65 0.4 2.45l-0.5 0.7c-0.35 0.4-0.9 0.65-1.45 0.65zM29.25 15.2c0.3 0 0.6-0.15 0.8-0.4l0.5-0.7c0.3-0.45 0.2-1.050-0.2-1.35l-3.65-2.6c-0.6-0.45-5.6-4.050-6.2-4.45l-3.9-2.85c-0.3-0.2-0.45-0.35-0.6-0.45-0.15 0.15-0.45 0.35-0.9 0.65l-13.4 9.7c-0.2 0.15-0.35 0.4-0.4 0.65s0 0.5 0.15 0.7l0.5 0.7c0.2 0.25 0.45 0.4 0.8 0.4l13-9.4c0.15-0.1 0.35-0.1 0.45 0v0l13.050 9.4zM16 6.1v0 0z"></path>
<path fill="#5b554d" style="fill: var(--color3, #5b554d)" d="M26.9 10.2c-0.1 0-0.15 0-0.25-0.050-0.7-0.5-1.25-1.6-1.25-2.45v-4.35c0-0.55-0.45-0.95-0.95-0.95h-1.3c-0.55 0-0.95 0.45-0.95 0.95v1.45c0 0.5-0.2 0.9-0.55 1.050s-0.75 0.1-1.2-0.2c-0.15-0.15-0.2-0.35-0.1-0.55 0.15-0.15 0.35-0.2 0.55-0.1 0.2 0.15 0.3 0.15 0.4 0.15 0.050-0.050 0.1-0.15 0.1-0.4v-1.4c0-0.95 0.8-1.75 1.75-1.75h1.3c0.95 0 1.75 0.8 1.75 1.75v4.3c0 0.6 0.45 1.45 0.95 1.85 0.15 0.15 0.2 0.35 0.1 0.55-0.1 0.1-0.2 0.15-0.35 0.15z"></path>
</symbol>
<symbol id="icon-Paper-plane" viewBox="0 0 32 32">
<title>Paper-plane</title>
<path fill="#5b554d" style="fill: var(--color3, #5b554d)" d="M14.55 25.75c0 0-0.050 0 0 0-0.15 0-0.2-0.050-0.3-0.15l-4.85-7.4-3.2 0.9c-0.1 0.050-0.2 0-0.3-0.050s-0.15-0.15-0.15-0.3l0.2-5.4-5.35-6.5c-0.1-0.1-0.1-0.25-0.050-0.35s0.15-0.2 0.3-0.2l30.3-0.050c0 0 0 0 0.050 0s0.1 0 0.15 0.050c0.050 0 0.050 0.050 0.1 0.050 0.050 0.050 0.050 0.1 0.050 0.15v0c0 0 0 0 0 0s0 0.050 0 0.050 0 0.1 0 0.15c0 0.050-0.050 0.050-0.050 0.1 0 0 0 0 0 0l-16.65 18.85c-0.1 0.050-0.15 0.1-0.25 0.1zM9.55 17.5c0.1 0 0.2 0.050 0.3 0.15l4.75 7.25 15.85-17.95h-28.9l5 6.1c0.050 0.050 0.1 0.15 0.1 0.25l-0.2 5.050 3-0.85c0.050 0 0.050 0 0.1 0z"></path>
<path fill="#5b554d" style="fill: var(--color3, #5b554d)" d="M6.3 13.6c-0.15 0-0.3-0.1-0.3-0.25-0.050-0.2 0.050-0.35 0.25-0.4l24.85-6.7c0.2-0.050 0.35 0.050 0.4 0.25s-0.050 0.35-0.25 0.4l-24.85 6.7c-0.050 0-0.050 0-0.1 0z"></path>
<path fill="#5b554d" style="fill: var(--color3, #5b554d)" d="M6.1 19.15c-0.1 0-0.15-0.050-0.2-0.1-0.15-0.1-0.15-0.35-0.050-0.45l2.6-3.050c0.050-0.050 0.1-0.050 0.15-0.1l22.5-9.2c0.15-0.050 0.35 0 0.45 0.2 0.050 0.15 0 0.35-0.2 0.45l-22.45 9.15-2.55 2.95c-0.050 0.1-0.15 0.15-0.25 0.15z"></path>
</symbol>
<symbol id="icon-Person" viewBox="0 0 32 32">
<title>Person</title>
<path fill="#5b554d" style="fill: var(--color3, #5b554d)" d="M24.75 31.5h-17.5c-0.6 0-1.2-0.25-1.5-0.7-0.35-0.45-0.45-1.050-0.3-1.65 0 0 0.050-0.25 0.15-0.65 0.55-2.4 2.050-7.85 3.050-9.3 1.9-2.7 5.1-2.6 5.2-2.6h3.25c0.15 0 4.4-0.1 6 2.75 1.2 1.55 2.85 7.3 3.35 9.45l0.050 0.35c0.15 0.6 0.050 1.2-0.3 1.65-0.25 0.45-0.8 0.7-1.45 0.7zM13.8 17.55c-0.35 0-2.9 0.050-4.4 2.2-0.8 1.15-2.25 5.95-2.95 9-0.1 0.4-0.15 0.6-0.15 0.6-0.1 0.35-0.050 0.65 0.1 0.9 0.15 0.2 0.45 0.35 0.8 0.35h17.5c0.35 0 0.6-0.1 0.75-0.35 0.15-0.2 0.2-0.5 0.1-0.8 0 0 0 0 0-0.050v-0.4c-0.55-2.45-2.2-7.85-3.2-9.1 0 0-0.050-0.050-0.050-0.050-1.3-2.35-5.15-2.3-5.15-2.3h-3.35c0.050 0 0.050 0 0 0zM15.95 15c-4 0-7.25-3.25-7.25-7.25s3.25-7.25 7.25-7.25c4 0 7.25 3.25 7.25 7.25 0.050 4-3.2 7.25-7.25 7.25zM15.95 1.45c-3.5 0-6.3 2.85-6.3 6.3 0 3.5 2.85 6.3 6.3 6.3 3.5 0 6.3-2.85 6.3-6.3 0.050-3.45-2.8-6.3-6.3-6.3z"></path>
</symbol>
<symbol id="icon-facebook" viewBox="0 0 32 32">
<title>facebook</title>
<path d="M18.272 31.424h-4.256c-1.024 0-1.888-0.864-1.888-1.888v-11.488h-3.52c-1.024 0-1.888-0.864-1.888-1.888v-3.296c0-1.024 0.864-1.888 1.888-1.888h3.488v-2.976c0-4.416 2.912-7.392 7.264-7.392h3.232c1.024 0 1.888 0.864 1.888 1.888v3.904c0 1.024-0.864 1.888-1.888 1.888h-2.24c-0.064 0-0.128 0-0.16 0 0 0.064 0 0.096 0 0.128v2.56h3.2c0.576 0 1.12 0.256 1.472 0.704s0.512 1.024 0.384 1.568v0l-0.672 3.264c-0.16 0.864-0.96 1.504-1.856 1.504h-2.56v11.52c0 0.992-0.864 1.888-1.888 1.888zM8.608 12.736c-0.064 0-0.128 0.064-0.128 0.128v3.328c0 0.064 0.064 0.128 0.128 0.128h5.28v13.216c0 0.064 0.064 0.128 0.128 0.128h4.256c0.064 0 0.128-0.064 0.128-0.128v-13.28h4.32c0.064 0 0.128-0.032 0.128-0.064l0.672-3.296c0-0.064 0-0.096-0.032-0.128s-0.064-0.032-0.128-0.032h-4.928v-4.32c0-1.152 0.32-1.888 1.92-1.888h2.24c0.064 0 0.128-0.064 0.128-0.128v-3.936c0-0.064-0.064-0.128-0.128-0.128h-3.232c-3.328 0-5.504 2.208-5.504 5.632v4.736h-5.248z"></path>
</symbol>
<symbol id="icon-github-original" viewBox="0 0 32 32">
<title>github-original</title>
<path d="M16 1.184c-8.384 0-15.2 6.784-15.2 15.2 0 6.72 4.352 12.416 10.4 14.432 0.768 0.128 1.024-0.32 1.024-0.736 0-0.352 0-1.312-0.032-2.592-4.224 0.928-5.12-2.048-5.12-2.048-0.704-1.76-1.696-2.208-1.696-2.208-1.376-0.928 0.096-0.928 0.096-0.928 1.536 0.096 2.336 1.568 2.336 1.568 1.344 2.336 3.552 1.664 4.416 1.248 0.128-0.992 0.544-1.664 0.96-2.048-3.328-0.352-6.88-1.664-6.88-7.488 0-1.664 0.608-3.008 1.568-4.064-0.16-0.384-0.672-1.92 0.16-4.032 0 0 1.28-0.416 4.192 1.568 1.216-0.352 2.528-0.512 3.808-0.512s2.592 0.16 3.808 0.512c2.912-1.952 4.16-1.568 4.16-1.568 0.832 2.080 0.32 3.648 0.16 4.032 0.96 1.056 1.568 2.432 1.568 4.064 0 5.824-3.552 7.136-6.944 7.488 0.544 0.48 1.024 1.408 1.024 2.816 0 2.048-0.032 3.68-0.032 4.16 0 0.416 0.288 0.864 1.056 0.736 6.048-2.016 10.4-7.712 10.4-14.432-0.032-8.384-6.848-15.168-15.232-15.168z"></path>
</symbol>
<symbol id="icon-linkedin" viewBox="0 0 32 32">
<title>linkedin</title>
<path d="M7.68 12.16h-4.416c-0.832 0-1.536 0.672-1.536 1.536v14.944c0 0.832 0.672 1.536 1.536 1.536h4.416c0.832 0 1.536-0.672 1.536-1.536v-14.944c0-0.832-0.704-1.536-1.536-1.536zM7.456 28.416h-3.936v-14.496h3.936v14.496z"></path>
<path d="M25.504 12.224c-1.344-0.16-2.848 0.064-4.192 0.672-0.608 0.288-1.216 0.64-1.792 1.056v-0.288c0-0.832-0.672-1.536-1.536-1.536h-4.416c-0.832 0-1.536 0.672-1.536 1.536v14.944c0 0.832 0.672 1.536 1.536 1.536h4.416c0.832 0 1.536-0.672 1.536-1.536v-6.112c0-0.992 0.8-1.792 1.792-1.792s1.792 0.8 1.792 1.792v6.144c0 0.832 0.672 1.536 1.536 1.536h4.416c0.832 0 1.536-0.672 1.536-1.536v-10.752c-0.064-2.848-2.272-5.312-5.088-5.664zM28.768 28.416h-3.936v-5.952c0-1.952-1.6-3.552-3.552-3.552s-3.552 1.6-3.552 3.552v5.92h-3.904v-14.464h3.936v0.992c0 0.48 0.288 0.928 0.736 1.152s0.96 0.16 1.344-0.16c0.192-0.16 0.384-0.288 0.512-0.384 0.064-0.064 0.128-0.096 0.16-0.128 0.48-0.384 0.992-0.672 1.536-0.928 1.088-0.48 2.24-0.672 3.264-0.544 1.952 0.224 3.456 1.952 3.456 3.936v10.56z"></path>
<path d="M5.472 1.856c-2.208 0-4 1.792-4 4s1.792 4 4 4c2.208 0 4-1.792 4-4s-1.76-4-4-4zM5.472 8.096c-1.248 0-2.24-1.024-2.24-2.24s1.024-2.24 2.24-2.24c1.248 0 2.24 1.024 2.24 2.24s-0.992 2.24-2.24 2.24z"></path>
</symbol>
<symbol id="icon-slack" viewBox="0 0 32 32">
<title>slack</title>
<path d="M13.468 14.789l3.853-1.291 1.24 3.702-3.854 1.291-1.24-3.702z"></path>
<path d="M13.468 14.789l3.853-1.291 1.24 3.702-3.854 1.291-1.24-3.702z"></path>
<path d="M29.184 12.032c-2.944-9.888-7.232-12.192-17.152-9.216-9.888 2.944-12.192 7.232-9.216 17.152 2.976 9.888 7.264 12.192 17.152 9.248 9.888-2.976 12.192-7.264 9.216-17.184zM24.192 18.464l-1.856 0.64 0.64 1.92c0.256 0.768-0.16 1.632-0.928 1.888-0.16 0.064-0.352 0.096-0.512 0.064-0.608 0-1.184-0.416-1.376-1.024l-0.64-1.92-3.84 1.28 0.64 1.92c0.256 0.768-0.16 1.632-0.928 1.888-0.16 0.064-0.352 0.096-0.512 0.064-0.608 0-1.184-0.416-1.376-1.024l-0.64-1.92-1.856 0.64c-0.16 0.064-0.352 0.096-0.512 0.064-0.608 0-1.184-0.416-1.376-1.024-0.256-0.768 0.16-1.632 0.928-1.888l1.856-0.64-1.248-3.712-1.856 0.64c-0.16 0.064-0.352 0.096-0.512 0.064-0.608 0-1.184-0.416-1.376-1.024-0.256-0.768 0.16-1.632 0.928-1.888l1.856-0.64-0.64-1.92c-0.256-0.768 0.16-1.632 0.928-1.888s1.632 0.16 1.888 0.928l0.64 1.92 3.84-1.28-0.64-1.92c-0.256-0.768 0.16-1.632 0.928-1.888s1.632 0.16 1.888 0.928l0.64 1.92 1.856-0.64c0.768-0.256 1.632 0.16 1.888 0.928s-0.16 1.632-0.928 1.888l-1.856 0.64 1.248 3.712 1.856-0.64c0.768-0.256 1.632 0.16 1.888 0.928 0.288 0.896-0.16 1.76-0.928 2.016z"></path>
</symbol>
<symbol id="icon-twitter-filled" viewBox="0 0 32 32">
<title>twitter-filled</title>
<path d="M27.648 7.968l1.824-2.304c0.544-0.608 0.704-1.056 0.768-1.344-1.408 0.896-2.752 1.152-3.712 1.184h-0.384l-0.224-0.256c-1.152-1.024-2.592-1.6-4.16-1.6-3.36 0-6.080 2.752-6.080 6.080 0 0.256 0 0.48 0.032 0.704l0.16 0.992-1.024-0.032c-6.24-0.16-11.264-5.44-12.128-6.4-1.344 2.496-0.608 4.768 0.256 6.208l1.632 2.72-2.592-1.408c0.032 2.016 0.832 3.616 2.304 4.768l1.248 0.96-1.312 0.544c0.832 2.496 2.624 3.488 4.032 3.872l1.76 0.48-1.536 1.056c-2.688 1.888-6.112 1.76-7.52 1.632 3.072 2.112 6.656 2.56 9.216 2.56 1.888 0 3.264-0.256 3.616-0.32 13.568-3.2 14.176-15.296 14.144-17.728v-0.384l0.288-0.256c1.632-1.536 2.336-2.4 2.72-2.848-0.16 0.096-0.32 0.128-0.544 0.192l-2.784 0.928z"></path>
</symbol>
</defs>
</svg>
